<svg width="65" height="74" viewBox="0 0 65 74" fill="none" xmlns="http://www.w3.org/2000/svg">
<path d="M32.5093 0L63.9362 8.45801C64.3584 8.57042 64.6533 8.91437 64.6652 9.32155C64.7952 13.7671 65.4747 38.7818 64.4179 42.3608C63.989 44.3963 61.9958 51.1034 58.3375 55.6265C55.537 59.0892 53.8718 61.0231 49.8098 64.5873C44.1497 69.5537 35.8787 74 32.5093 74C29.138 74 20.8622 69.5537 15.1989 64.5873C11.1346 61.0231 9.4684 59.0892 6.66627 55.6265C3.00593 51.1034 1.01155 44.3963 0.582394 42.3608C-0.474998 38.7818 0.204892 13.7671 0.334954 9.32155C0.346864 8.91437 0.641998 8.57042 1.06444 8.45801L32.5093 0Z" fill="white"/>
<path d="M32.4957 3.17708L61.0681 10.458C61.4619 10.5628 61.7371 10.8835 61.7482 11.2632C61.8694 15.4086 62.4398 38.7874 61.454 42.1249C61.0539 44.023 58.9776 49.1971 55.6927 54.3498C53.2669 57.5828 48.869 62.8974 45.0797 66.221C39.8818 70.4156 35.9888 72.2715 33.0186 73.2314C32.677 73.3418 32.3109 73.3516 31.9641 73.2585C28.6926 72.3796 26.1284 70.8551 20.4677 66.8272C16.6762 63.5036 11.8623 57.5787 9.24827 54.3498C5.8337 50.1319 3.98836 44.023 3.58802 42.1249C2.60163 38.7874 2.92001 15.4086 3.04134 11.2632C3.05245 10.8835 3.32777 10.5628 3.72185 10.458L32.4957 3.17708Z" fill="#2C2C2C"/>
<path fill-rule="evenodd" clip-rule="evenodd" d="M41.5218 12.7884L32.4838 10.1045L24.1953 12.7884C23.7729 12.9008 23.1239 13.2448 23.112 13.652C22.9819 18.0975 30.3334 51.9666 32.4994 52.3275C34.6667 51.9666 42.3809 18.0975 42.2509 13.652C42.239 13.2448 41.944 12.9008 41.5218 12.7884ZM27.0369 14.636C26.6107 14.7486 26.3136 15.1016 26.3051 15.5123C26.2184 19.6915 28.1972 34.0469 31.4167 45.4708C31.8154 46.8854 32.5001 49.0796 32.5001 49.0796C32.5001 49.0796 33.172 46.885 33.5852 45.4708C36.9178 34.0655 39.4562 19.739 39.3349 15.5936C39.3238 15.2139 39.0487 14.8932 38.6548 14.7884L32.4714 13.2816L27.0369 14.636Z" fill="#F7B70B"/>
<ellipse cx="32.5001" cy="60.6278" rx="3.61111" ry="3.6088" fill="#F7B70B"/>
<ellipse cx="32.5001" cy="60.6277" rx="2.16667" ry="2.16528" fill="#2C2C2C"/>
</svg>
