<svg width="1157" height="869" viewBox="0 0 1157 869" fill="none" xmlns="http://www.w3.org/2000/svg">
<path fill-rule="evenodd" clip-rule="evenodd" d="M204.261 566.811C204.261 566.811 189.81 577.286 179.674 582.465C169.507 587.66 163.562 590.43 152.496 593.24C145.645 594.98 134.656 596.287 134.656 596.287L140.246 581.779L165.266 576.334L204.261 566.811ZM165.554 577.124L141.214 582.422L136.158 595.187C136.158 595.187 146.028 593.982 152.193 592.449C163.208 589.709 169.086 586.865 179.213 581.736C188.564 577.001 202.05 567.637 202.05 567.637L165.554 577.124Z" fill="white" fill-opacity="0.03"/>
<path fill-rule="evenodd" clip-rule="evenodd" d="M642.553 469.32H842.51L842.125 469.93L841.699 469.734C842.125 469.93 842.125 469.931 842.125 469.931L842.119 469.939L842.104 469.963C842.09 469.985 842.07 470.016 842.043 470.057C841.989 470.139 841.908 470.259 841.801 470.416C841.586 470.729 841.262 471.187 840.826 471.768C839.954 472.93 838.632 474.586 836.827 476.573C833.216 480.545 827.67 485.839 819.923 491.131C804.424 501.719 780.123 512.296 744.916 512.296C704.801 512.296 679.289 501.728 663.797 491.131C656.055 485.835 650.823 480.537 647.525 476.558C645.876 474.569 644.71 472.909 643.954 471.745C643.577 471.162 643.302 470.704 643.121 470.389C643.03 470.232 642.963 470.111 642.918 470.028C642.896 469.987 642.879 469.956 642.868 469.934L642.855 469.909L642.851 469.902L642.85 469.9C642.85 469.9 642.85 469.899 643.293 469.734L642.85 469.899L642.553 469.32Z" fill="white" fill-opacity="0.03"/>
<path fill-rule="evenodd" clip-rule="evenodd" d="M743.672 214.585L822.521 422.814L821.606 423.084L752.266 271.41L741.73 432.876L740.762 432.867L733.79 274.555L656.044 442.511L655.133 442.233L743.672 214.585Z" fill="white" fill-opacity="0.03"/>
<path fill-rule="evenodd" clip-rule="evenodd" d="M957.041 469.32H1157L1156.61 469.93L1156.19 469.734C1156.61 469.93 1156.61 469.931 1156.61 469.931L1156.61 469.939L1156.59 469.963C1156.58 469.985 1156.56 470.016 1156.53 470.057C1156.48 470.139 1156.4 470.259 1156.29 470.416C1156.07 470.729 1155.75 471.187 1155.31 471.768C1154.44 472.93 1153.12 474.586 1151.31 476.573C1147.7 480.545 1142.16 485.839 1134.41 491.131C1118.91 501.719 1094.61 512.296 1059.4 512.296C1019.29 512.296 993.777 501.728 978.285 491.131C970.543 485.835 965.311 480.537 962.013 476.558C960.364 474.569 959.198 472.909 958.443 471.745C958.065 471.162 957.79 470.704 957.609 470.389C957.518 470.232 957.451 470.111 957.406 470.028C957.384 469.987 957.367 469.956 957.356 469.934L957.343 469.909L957.339 469.902L957.338 469.9C957.338 469.9 957.338 469.899 957.781 469.734L957.338 469.899L957.041 469.32Z" fill="white" fill-opacity="0.03"/>
<path fill-rule="evenodd" clip-rule="evenodd" d="M1058.16 214.585L1137.01 422.814L1136.09 423.084L1066.36 274.555L1056.22 432.876L1055.25 432.867L1048.28 278.093L970.532 442.511L969.621 442.233L1058.16 214.585Z" fill="white" fill-opacity="0.03"/>
<path fill-rule="evenodd" clip-rule="evenodd" d="M901.657 35.3287L902.622 35.3271L910.333 127.92H915.161C915.383 127.92 915.587 128.005 915.734 128.173C917.591 130.289 930.416 145.281 932.029 157.417C934.111 173.082 920.629 190.352 920.629 190.352L918.875 199.409H1068.61L1068.67 200.232C1068.67 200.232 1049.78 202.275 1037.72 203.949C1021.04 206.265 1011.6 207.258 995.177 210.967C977.339 214.995 967.319 217.607 950.249 224.168C931.094 231.53 903.117 247.403 903.117 247.403C903.117 247.403 866.199 227.856 840.998 219.223C802.475 206.027 738.473 200.226 738.473 200.226L738.575 199.409H886.079L884.246 190.411C884.246 190.411 871.749 170.837 873.074 157.228C874.297 144.676 887.89 127.753 889.055 127.609C890.22 127.465 893.396 127.022 894.43 127.068L901.657 35.3287Z" fill="white" fill-opacity="0.03"/>
<path fill-rule="evenodd" clip-rule="evenodd" d="M762.509 19.2361C731.379 32.1399 693.584 66.1729 678.174 97.0599C678.174 97.0599 689.971 84.708 700.923 74.0707C716.762 58.6865 732.317 45.9034 752.35 36.3756C771.166 27.4265 791.95 21.0392 811.952 15.2721C832.558 9.33041 853.606 5.17005 874.729 1.53422C832.524 -3.17584 801.62 3.02412 762.509 19.2361Z" fill="white" fill-opacity="0.03"/>
<path fill-rule="evenodd" clip-rule="evenodd" d="M649.445 197.053C663.449 177.825 675.52 156.84 698.768 149.184C700.748 158.812 673.814 230.024 670.09 240.109L732.748 107.694C732.748 107.694 741.382 91.9373 747.277 82.0522C754.924 69.2289 766.105 54.1968 766.105 54.1968C766.105 54.1968 713.345 83.04 694.711 107.679C676.076 132.318 671.864 155.305 660.068 176.642C655.721 184.506 649.445 197.053 649.445 197.053Z" fill="white" fill-opacity="0.03"/>
<path fill-rule="evenodd" clip-rule="evenodd" d="M641.316 293.726C641.316 293.726 617.957 316.171 603.047 330.755C584.56 348.836 557.006 378.344 557.006 378.344L602.151 329.529L641.316 293.726Z" fill="white" fill-opacity="0.03"/>
<path fill-rule="evenodd" clip-rule="evenodd" d="M506.436 356.779C492.336 373.657 485.27 383.33 474.329 402.408C466.108 416.743 460.915 424.442 456.246 440.294C453.845 448.445 451.922 459.802 451.922 459.802L631.966 293.517L625.676 291.503L614.276 262.854C614.276 262.854 541.187 315.183 506.436 356.779Z" fill="white" fill-opacity="0.03"/>
<path fill-rule="evenodd" clip-rule="evenodd" d="M203.606 398.889C220.623 408.881 229.534 417.149 241.189 433.155C242.761 441.017 232.297 443.27 227.891 449.843C211.824 473.812 204.335 506.452 202.025 534.466C209.894 512.917 215.391 485.435 228.88 466.718C238.595 453.237 263.626 437.989 268.548 424.139C269.742 420.778 270.37 415.191 270.37 415.191C270.37 415.191 255.803 414.376 246.622 412.757C229.24 409.693 203.606 398.889 203.606 398.889Z" fill="white" fill-opacity="0.03"/>
<path fill-rule="evenodd" clip-rule="evenodd" d="M209.429 217.735C221.082 217.483 235.299 226.299 245.865 230.585C255.667 234.561 265.221 233.455 275.629 233.455C286.273 233.455 297.043 227.49 306.982 223.978C312.337 222.086 328.933 214.892 328.933 224.919C328.933 224.919 325.726 223.759 323.578 223.547C320.535 223.247 317.589 224.185 314.629 224.777C314.629 224.777 311.637 225.661 309.78 226.393C307.088 227.454 305.639 228.218 303.12 229.643C288.464 237.928 281.446 247.892 262.051 244.612C244.578 241.657 229.291 229.003 212.609 223.511C207.495 221.827 199.125 220.632 199.125 220.632L199.131 219.829C199.131 219.829 205.326 217.824 209.429 217.735Z" fill="white" fill-opacity="0.03"/>
<path fill-rule="evenodd" clip-rule="evenodd" d="M270.484 147.794C289.636 156.111 304.08 176.161 320.349 189.082L318.584 189.516C318.172 189.617 317.737 189.548 317.379 189.322C302.572 179.944 289.912 165.957 273.925 158.882C253.963 150.048 227.982 150.533 208.055 158.877C194.362 164.611 190.593 175.504 179.723 184.059C179.586 184.167 179.415 184.227 179.24 184.224C172.216 184.104 164.896 179.334 157.472 178.751C150.719 178.222 143.89 178.518 137.347 180.385C128.665 182.863 121.291 188.15 114.214 193.605C114.214 193.605 115 192.033 116.383 189.768C118.145 187.315 121.351 184.253 121.351 184.253C121.351 184.253 126.217 180.168 129.647 178.002C139.76 171.617 149.983 170.271 161.938 171.313C169.457 171.969 174.856 179.705 182.338 174.734C189.298 166.874 192.463 159.906 201.727 153.624C220.435 140.938 249.496 138.679 270.484 147.794Z" fill="white" fill-opacity="0.03"/>
<path fill-rule="evenodd" clip-rule="evenodd" d="M234.112 158.292C247.755 152.838 260.71 160.54 273.817 164.581C286.924 168.623 291.535 177.77 303.693 185.023C310.485 189.075 315.734 191.355 323.348 192.885C332.028 194.629 339.753 194.972 348.311 197.603C359.158 200.937 360.694 210.176 362.463 219.617C364.891 232.574 349.497 241.281 341.628 249.493L337.697 246.348L339.859 243.203C339.859 243.203 344.931 238.596 347.132 235.341C350.605 230.203 349.531 225.299 348.507 219.617C343.62 192.489 295.132 204.641 276.961 210.182C255.405 216.756 239.78 196.773 219.371 196.03C209.279 195.663 194.408 203.892 194.408 203.892L196.177 200.747C196.177 200.747 207.957 188.288 218.192 185.023C226.855 182.26 235.366 182.202 244.137 183.451C254.477 184.922 265.197 193.278 274.603 197.603C285.135 202.445 299.632 195.179 310.376 192.885C305.432 188.663 299.405 186.431 293.669 183.451C282.028 177.403 270.149 173.73 257.503 170.871C241.735 167.307 227.183 172.812 212.295 177.161C200.301 180.665 193.595 189.388 184.777 197.603L184.188 196.03L183.401 194.458V192.885C183.401 192.885 189.983 184.962 194.802 180.306C206.501 169.002 219.299 164.213 234.112 158.292Z" fill="white" fill-opacity="0.03"/>
<path d="M320.385 337.17C322.68 344.933 326.528 348.21 330.498 355.265L330.5 355.268C337.893 363.758 341.565 372.595 340.226 383.775C336.765 378.939 333.67 373.352 329.689 368.939C326.395 365.289 323.002 364.984 319.53 361.504C316.11 358.075 314.477 355.774 312.206 351.496C310.928 349.089 309.441 345.088 309.441 345.088C309.441 345.088 307.991 350.343 307.808 353.8C307.536 358.949 307.592 362.168 309.72 366.864C311.685 371.199 314.778 372.352 317.418 376.313L317.486 376.415C320.738 381.295 323.027 384.73 322.321 390.844C318.794 388.379 318.266 385.979 316.554 382.48C315.331 379.982 314.229 378.764 312.27 376.79C310.415 374.921 308.8 374.521 306.943 372.654C304.597 370.296 301.986 365.728 301.986 365.728C301.986 365.728 299.213 368.599 298.125 370.857C295.7 375.887 297.557 379.601 298.125 385.157C298.395 387.796 303.351 403.017 301.575 403.583C301.575 403.583 298.88 399.575 297.215 396.966C294.85 393.258 291.359 387.348 291.359 387.348C291.359 387.348 288.161 396.022 284.01 399.898L283.964 399.941C282.187 401.597 279.841 403.867 277.004 406.153C275.046 407.732 274.104 408.899 271.852 410.02C266.294 412.785 255.734 410.02 255.734 410.02C255.734 410.02 239.98 407.122 230.185 403.764C216.172 398.96 195.982 385.573 195.982 385.573C195.982 385.573 212.068 392.639 225.072 398.168C241.361 405.093 262.923 408.782 269.493 406.153C280.5 399.941 284.132 388.177 286.397 382.48C290.793 371.423 293.301 358.892 297.173 347.486C300.872 336.59 304.48 323.87 304.48 323.87L320.385 312.47C320.385 312.47 317.433 327.184 320.385 337.17Z" fill="white" fill-opacity="0.03"/>
<path fill-rule="evenodd" clip-rule="evenodd" d="M347.381 658.31C347.381 658.31 360.215 694.228 366.625 717.783C370.421 731.734 372.574 739.574 375.343 753.765C378.808 771.527 380.555 781.611 381.64 799.675C382.492 813.87 382.788 821.914 381.64 836.088C380.858 845.733 378.285 860.639 378.285 860.639L387.931 865.506C387.931 865.506 389.819 826.85 387.931 802.2C386.939 789.251 385.748 782.048 384.063 769.171C384.062 769.167 384.062 769.162 384.062 769.162L380.675 745.617L381.597 745.397C381.597 745.397 391.397 761.85 396.133 773.118C402.829 789.049 408.255 815.674 408.255 815.674C408.255 815.674 408.919 805.931 408.255 799.746C407.312 790.969 404.839 786.398 402.462 777.896C398.284 762.957 396.178 754.478 390.856 739.907C384.015 721.174 379.726 710.71 370.069 693.26C362.19 679.022 347.381 658.31 347.381 658.31Z" fill="white" fill-opacity="0.03"/>
<path fill-rule="evenodd" clip-rule="evenodd" d="M338.071 844.777C338.071 844.777 340.369 806.131 336.544 781.848C330.297 742.189 294.475 669.548 294.475 669.548L294.473 669.544C277.552 628.342 250.105 582.293 249.432 536.347C248.891 499.369 264.413 460.637 289.218 433.186C305.794 414.843 326.395 404.964 347.906 393.832L348.55 394.426C334.228 411.497 319.577 427.934 308.915 447.667C299.913 464.329 292.327 482.791 288.145 501.287C284.965 515.348 284.485 523.584 284.281 537.998C284.118 549.441 285.972 567.252 285.972 567.252L289.122 549.096C289.122 549.096 289.123 549.09 289.124 549.087C291.791 532.394 294.285 515.945 298.321 499.483L299.271 499.475C299.271 499.475 304.517 527.604 310.392 544.895C323.004 582.014 341.357 607.485 368.398 642.718C416.561 705.474 450.435 753.557 465.262 835.476C466.826 844.112 468.686 857.687 468.686 857.687C468.686 857.687 469.907 844.746 469.136 830.16C468.667 821.277 468.373 816.283 467.203 807.465C465.757 796.569 464.617 790.472 461.889 779.824C457.944 764.428 454.523 756.09 448.356 741.442C441.046 724.078 427.31 717.234 426.551 698.409C425.436 670.74 438.164 644.44 434.295 616.536L434.295 616.531C433.746 603.596 426.916 588.752 427.993 576.417C430.44 548.372 449.202 518.665 462.891 494.836L488.082 457.19L488.093 457.176C549.132 366.844 497.989 454.328 441.823 482.086C441.823 482.086 439.161 502.147 437.194 514.898C432.841 543.114 420.249 586.014 420.249 586.014L420.244 586.032L414.444 608.322L414.442 608.329L401.071 660.739L399.881 661.351C399.881 661.351 370.894 631.646 355.49 610.115C346.463 597.496 341.351 590.344 334.166 576.593C328.76 566.246 322.045 549.268 322.045 549.268C322.045 549.268 315.219 530.148 313.315 517.376C310.954 501.543 313.315 476.384 313.315 476.384C313.315 476.384 314.902 461.084 318.174 451.903C322.981 438.413 328.208 431.612 337.599 420.801C345.26 411.98 350.573 407.888 359.934 400.898C368.714 394.343 383.701 385.988 383.701 385.988L410.305 372.77L450.426 344.701L487.177 314.558L523.933 279.454L555.853 245.175L581.6 213.718L539.666 255.614L492.236 299.423L492.223 299.434L443.805 337.886L403.133 365.587C403.133 365.587 390.925 376.485 381.236 379.3C373.387 381.58 368.443 379.443 360.344 380.544C347.23 382.328 339.364 383.171 327.575 389.186C321.351 392.362 312.65 399.053 312.65 399.053L312.643 399.058C312.643 399.058 295.118 409.029 285.614 417.605C268.731 432.839 251.027 460.187 243.135 482.313C218.571 551.183 256.257 611.898 293.433 684.107L293.437 684.115C320.585 734.849 336.254 787.34 338.071 844.777ZM417.094 619.764L410.828 672.451L419.705 685.717L424.361 653.116L419.701 615.312L417.094 619.764Z" fill="white" fill-opacity="0.03"/>
<path fill-rule="evenodd" clip-rule="evenodd" d="M133.002 301.564L133.682 300.518L114.301 287.586L112.398 286.116C112.168 285.938 111.9 285.831 111.624 285.8L103.379 280.298C102.994 279.896 102.541 279.529 101.993 279.11C101.895 279.052 101.742 279.041 101.54 279.071L96.2401 275.535L81.5115 286.118C69.0222 294.732 53.6264 305.911 50.3715 321.891C47.6486 335.258 55.827 343.802 63.8181 352.149C70.665 359.301 77.3742 366.31 76.9712 376.086C76.4587 388.519 69.12 397.231 61.717 406.02C53.8396 415.371 45.8893 424.809 46.0131 438.909C46.0705 445.45 46.5059 449.167 47.9612 455.544C53.9365 468.003 59.7402 480.53 65.3811 493.143C72.9656 510.103 65.1437 536.781 54.3108 551.09C48.2946 559.036 39.6287 564.751 31.0219 570.427C18.2873 578.826 5.68193 587.139 1.97969 602.468C-1.11351 615.275 3.66245 626.185 8.58387 637.427C9.30038 639.063 10.02 640.707 10.7188 642.365L11.658 642.225C11.658 642.225 5.48761 614.823 10.6902 604.625C17.4591 591.357 29.4192 583.684 41.3405 576.035C55.6347 566.864 69.8731 557.729 75.0393 539.028C79.4404 523.097 75.6212 505.088 69.7032 490.022C59.5132 464.082 53.0509 445.469 65.3811 420.65C66.6986 417.087 68.8316 413.075 71.0314 408.938C74.3979 402.606 77.9212 395.979 78.9192 390.215C79.7417 385.465 79.7675 377.901 79.7675 377.901C79.9111 378.15 80.0606 378.408 80.2143 378.673C82.3728 382.394 85.3652 387.554 84.7067 391.757C83.6021 398.807 81.4019 404.744 79.2529 410.543C75.7701 419.94 72.422 428.975 74.0903 441.796C74.9794 448.629 78.5814 453.96 82.1656 459.264C84.5362 462.773 86.8989 466.269 88.4639 470.182C91.7401 480.374 93.4129 491.164 94.9981 501.389C95.1248 502.206 95.2509 503.019 95.3772 503.828C97.0844 514.765 96.7286 545.276 91.0488 559.143C85.5961 572.456 78.8739 580.67 72.3829 588.601C64.7043 597.984 57.3494 606.971 52.8023 623.536C48.308 639.909 47.0427 655.371 52.8075 671.688C56.2731 681.497 66.8108 694.607 66.8108 694.607C66.1486 692.298 65.438 689.941 64.7165 687.548C61.1186 675.616 57.2529 662.795 57.8013 650.619C58.8244 627.904 71.1625 612.328 83.5604 596.676C92.65 585.2 101.772 573.684 106.49 559.285C114.272 535.538 106.155 510.987 98.5348 487.939C97.5627 484.999 96.5987 482.083 95.6768 479.197C95.6768 479.197 107.176 495.231 111.855 506.826C117.673 521.246 120.788 537.789 118.604 553.323C117.704 559.725 115.85 564.164 113.867 568.913C112.521 572.138 111.114 575.506 109.907 579.728C104.478 598.715 101.671 618.735 103.592 638.412C101.933 640.891 100.134 643.458 98.2803 646.103C87.6165 661.318 75.1686 679.079 77.4625 697.148C78.2206 703.119 82.3722 711.869 82.3722 711.869C82.3722 711.869 80.8641 694.927 83.6283 684.477C89.9969 660.401 101.106 646.727 123.143 638.888L123.149 638.886L152.692 628.133L206.319 602.555H207.754L218.291 637.319V640.843C218.291 640.843 201.494 660.416 189.854 672.123C179.15 682.889 161.336 698.541 161.336 698.541L161.317 698.557C149.959 708.479 131.706 723.344 131.706 723.344C131.706 723.344 152.453 713.3 164.865 705.368C172.668 700.382 184.249 691.713 184.249 691.713L184.256 691.707L226.703 659.167H228.133L247.326 697.682V703.664C247.326 703.664 223.289 734.415 206.296 752.716C192.964 767.072 178.735 780.622 164.525 794.154L164.524 794.155L164.518 794.161L164.514 794.164C159.591 798.853 154.67 803.539 149.789 808.256L185.169 782.704L213.307 759.464L213.324 759.45C232.029 743.883 256.888 714.891 256.888 714.891C256.888 714.891 258.606 718.33 259.908 720.417C261.532 723.021 263.476 725.856 265.53 728.85L265.531 728.852C273.266 740.131 282.558 753.679 282.168 765.706C281.422 788.711 264.826 816.53 250.165 841.106C244.33 850.888 238.802 860.155 234.701 868.402C248.761 855.541 258.182 838.231 267.196 821.666L267.597 820.93L267.601 820.923L267.605 820.915L291.308 778.38L323.543 845.995L313.123 805.759L313.118 805.745C303.83 776.026 287.896 745.606 271.649 714.587C238.743 651.762 204.55 586.481 221.667 519.593C226.248 501.69 236.732 484.541 246.336 468.832C246.784 468.099 247.23 467.37 247.673 466.644C228.249 486.149 207.743 510.467 204.741 538.864C204.632 539.897 204.606 540.885 204.581 541.822C204.481 545.533 204.403 548.433 199.29 550.074C191.299 550.464 184.248 539.431 179.875 532.589C179.753 532.398 179.633 532.21 179.515 532.026C179.351 531.77 179.192 531.521 179.036 531.28C173.37 522.496 170.334 512.226 170.867 501.75C171.095 497.278 172.29 492.561 173.492 487.815C175.301 480.678 177.126 473.474 175.706 466.93C175.002 463.684 168.53 458.489 162.082 453.313C156.739 449.024 151.413 444.748 149.397 441.605L149.187 441.277C145.086 434.884 142.592 430.997 140.736 423.526C139.455 418.37 139.017 415.304 139.296 409.998C139.482 406.45 139.746 404.427 140.731 401.013C141.684 397.706 143.121 395.532 144.631 393.247C145.761 391.536 146.933 389.763 147.974 387.405C150.808 380.986 152.21 377.243 153.8 370.409C153.942 369.798 154.078 369.241 154.206 368.715L154.207 368.713C154.723 366.598 155.115 364.993 155.267 362.474C155.583 357.225 154.806 354.194 153.317 349.152C152.423 346.124 151.75 344.464 150.377 341.621C148.487 337.706 145.943 335.293 143.412 332.894C140.799 330.417 138.201 327.953 136.352 323.863C134.56 319.898 133.679 317.535 133.002 313.238C132.292 308.735 133.002 301.564 133.002 301.564ZM101.54 279.071C99.4648 279.384 92.2763 284.105 87.62 287.877C78.301 295.427 67.237 307.567 63.9334 319.263C61.5457 327.717 62.0427 332.819 63.9336 341.398C66.1686 351.538 72.2791 358.071 78.4118 364.628C82.9025 369.429 87.4051 374.243 90.4067 380.496C96.4505 393.084 92.7995 405.134 89.0864 417.387C86.4162 426.2 83.7139 435.118 84.562 444.419C85.7711 457.68 94.6617 469.722 103.057 481.093C106.975 486.4 110.786 491.561 113.657 496.631C127.919 521.815 127.451 543.511 122.337 572.777C121.506 577.538 119.78 582.023 118.099 586.391C114.359 596.108 110.843 605.245 117.892 615.554C135.258 590.132 162.857 536.171 141.17 508.691C137.287 503.772 132.722 498.834 128.085 493.817C118.828 483.804 109.282 473.477 104.295 462.359C99.6647 452.035 95.2346 441.798 97.9999 429.997C99.6325 423.031 101.672 417.618 103.638 414.08C104.796 436.494 115.661 447.852 127.37 460.091C135.903 469.009 144.883 478.396 150.881 492.872C156.193 505.691 154.253 528.243 154.253 528.243L147.006 560.834L144.414 572.344L200.176 560.047C200.176 560.047 177.278 546.571 171.62 537.961C164.948 527.81 166.04 517.733 167.129 507.684C168.107 498.652 169.083 489.644 164.419 480.625C159.747 471.592 151.468 466.249 143.142 460.876C132.996 454.327 122.778 447.733 118.93 434.357C115.371 421.984 119.406 412.413 123.597 402.473C127.149 394.05 130.812 385.361 130.06 374.476C129.265 362.96 123.946 353.838 118.901 345.187C113.233 335.467 107.911 326.341 109.745 315.082C111.115 306.669 116.018 301.135 121.363 295.169C121.971 294.49 121.874 293.437 121.153 292.88L114.301 287.586L111.624 285.8C111.387 285.773 111.143 285.803 110.912 285.893C108.503 286.841 101.272 289.894 97.702 293.707C91.4384 300.398 84.46 313.456 84.6577 323.271C84.839 332.274 88.6512 339.974 92.5639 347.877C94.8227 352.44 97.1149 357.07 98.7615 362.057C90.6372 352.746 81.3867 342.093 78.2811 329.851C75.2309 317.826 78.0011 310.294 84.6681 299.948C88.1022 294.619 95.3509 289.436 100.098 286.042C102.816 284.098 104.714 282.74 104.605 282.279C104.277 281.425 103.888 280.832 103.379 280.298L101.54 279.071ZM110.575 383.397C109.241 377.861 103.207 370.257 103.207 370.257C103.207 370.257 105.557 381.208 105.959 388.34C106.362 395.485 105.253 406.651 105.253 406.651C105.253 406.651 109.581 401.193 110.575 397.201C111.878 391.97 111.838 388.638 110.575 383.397ZM188.959 596.573C186.231 598.902 188.932 596.596 188.932 596.596L162.267 613.156C162.267 613.156 145.626 622.884 134.138 627.237C125.947 630.34 112.642 633.64 112.642 633.64C112.642 628.126 118.403 620.986 123.462 614.717C125.939 611.647 128.248 608.786 129.63 606.427L129.731 606.254C129.731 606.254 143.884 604.931 156.536 600.843C159.931 599.746 163.363 598.571 166.826 597.385C176.268 594.151 185.939 590.839 195.719 588.826C193.775 591.837 191.686 594.244 188.959 596.573Z" fill="white" fill-opacity="0.03"/>
<path fill-rule="evenodd" clip-rule="evenodd" d="M159.873 206.017C164.111 205.945 166.785 206.018 170.88 206.803C176.179 207.819 183.459 210.734 183.459 210.734C185.57 196.246 172.381 187.94 159.873 184.789C151.263 182.619 140.11 182.552 131.569 184.789C116.492 188.737 103.346 200.11 100.12 216.237C99.4358 219.657 99.6777 223.835 99.9218 228.05C100.257 233.838 100.596 239.695 98.5476 243.755C97.2624 246.303 95.9825 248.447 94.8381 250.364C90.7165 257.268 88.3523 261.229 93.8303 270.487C104.487 288.497 129.026 301.001 148.866 306.653C151.426 307.382 155.201 308.358 159.144 309.378C163.966 310.625 169.04 311.937 172.452 312.942C182.422 315.88 187.269 316.633 197.611 317.66C202.307 318.126 206.163 318.125 210.073 318.125C213.533 318.124 217.035 318.123 221.198 318.446C223.306 318.61 225.139 318.712 226.833 318.806C231.82 319.084 235.602 319.295 241.639 320.805C244.943 321.631 247.314 322.611 249.707 323.6C251.97 324.535 254.253 325.478 257.364 326.308C262.245 327.611 264.906 328.278 269.943 328.667C270.217 328.688 270.487 328.709 270.755 328.73L270.783 328.732C276.128 329.15 280.436 329.487 285.668 327.881C288.419 327.036 290.013 325.855 291.686 324.617C293.065 323.595 294.497 322.535 296.675 321.591C297.942 321.042 299.24 320.742 300.537 320.443C301.884 320.132 303.229 319.822 304.537 319.232C306.351 318.415 307.379 317.683 308.591 316.82C309.236 316.362 309.933 315.866 310.827 315.301C314.26 313.131 315.886 311.951 318.689 309.011C320.914 306.677 323.406 301.935 323.406 301.935C324.587 300.067 325.837 298.728 327.053 297.426C328.581 295.79 330.055 294.212 331.269 291.715C334.634 284.791 334.952 279.167 335.322 272.616C335.469 270.004 335.625 267.245 335.986 264.197C336.212 262.289 336.681 260.637 337.125 259.074C337.963 256.121 338.712 253.486 337.558 250.045C337.528 249.953 337.497 249.863 337.468 249.774L337.394 249.551C336.701 247.461 336.212 245.987 334.413 244.541C333.483 243.793 332.38 243.568 331.241 243.335C330.729 243.231 330.21 243.125 329.696 242.969C329.019 242.764 328.612 242.745 328.261 242.728C327.773 242.706 327.394 242.688 326.551 242.183C325.48 241.541 323.348 239.824 323.348 239.824L321.834 227.245C321.834 227.245 318.619 235.348 315.544 239.824C312.935 243.623 311.089 245.369 307.682 248.472C302.523 253.172 297.768 254.927 292.329 256.936C289.773 257.879 287.066 258.879 284.095 260.266C284.095 260.266 271.051 267.394 262.081 270.487C249.871 274.697 241.883 276.016 229.06 277.563C221.25 278.505 216.095 278.454 209.3 278.387H209.3H209.3H209.299C207.621 278.37 205.843 278.353 203.901 278.349C201.74 278.345 199.821 278.364 198.036 278.382H198.036C192.03 278.444 187.525 278.489 180.314 277.563C168.285 276.016 148.866 270.487 148.866 270.487V268.914C147.136 249.148 155.262 236.925 172.452 228.031C177.145 225.603 185.032 223.313 185.032 223.313C182.317 222.154 180.25 222.52 177.69 222.972C177.032 223.088 176.34 223.21 175.597 223.313C165.201 224.759 154.089 227.985 147.293 236.679C143.443 241.605 142.05 247.046 142.576 253.19C142.79 255.695 143.47 257.889 144.143 260.06C144.937 262.622 145.721 265.153 145.721 268.128L137.859 264.983C137.806 262.461 137.565 259.832 137.321 257.167C136.756 251.014 136.175 244.672 137.859 239.038C142.036 225.056 154.671 220.55 167.735 217.024L170.88 216.237V215.451C168.705 215.451 166.384 215.362 163.985 215.27H163.985H163.985C154.494 214.906 143.804 214.495 136.286 219.382C130.374 223.226 128.108 230.443 129.996 237.465C132.427 246.507 133.959 253.377 133.141 263.411C129.569 263.475 127.143 262.147 124.145 260.506L124.14 260.503C124.057 260.458 123.975 260.412 123.892 260.367C123.83 260.333 123.769 260.3 123.707 260.266C113.854 254.886 112.724 245.951 115.844 235.893C116.668 233.238 117.665 231.261 118.989 228.817C119.533 227.814 119.936 226.972 120.302 226.21L120.302 226.21C121.186 224.366 121.843 222.995 123.707 220.955C127.221 217.107 130.198 214.907 134.714 212.306C138.76 209.976 141.912 209.095 146.204 207.894L146.205 207.894C146.559 207.795 146.922 207.694 147.293 207.589C152.034 206.255 154.949 206.1 159.873 206.017ZM253.305 213.348C246.697 208.937 240.044 204.497 232.205 202.872C221.01 200.55 208.87 205.616 199.184 210.734V211.52C210.167 210.966 220.393 210.668 230.632 214.665C234.686 216.247 238.814 218.289 242.995 220.357C251.296 224.463 259.808 228.674 268.371 229.603C278.178 230.668 287.391 227.225 296.626 223.774C303.868 221.068 311.123 218.357 318.689 217.81C321.834 217.582 325.516 217.398 326.551 217.81C326.922 217.957 327.354 218.111 327.818 218.275L327.818 218.275C329.598 218.907 331.839 219.702 332.841 220.955C335.816 224.676 337.259 233.152 335.986 237.465C335.265 239.906 332.841 242.969 332.841 242.969L339.131 244.541C339.89 243.504 340.782 242.472 341.688 241.422C344.533 238.129 347.521 234.671 346.993 230.389C346.856 229.28 346.772 228.161 346.689 227.055C346.311 222.016 345.952 217.226 340.703 214.665C333.566 211.183 328.679 209.061 320.261 211.52C316.285 212.682 312.396 214.057 308.514 215.43C302.552 217.538 296.605 219.64 290.385 220.955C280.084 223.132 268.102 222.743 258.936 217.024C257.046 215.844 255.177 214.597 253.305 213.348L253.305 213.348ZM147.293 199.727C147.293 199.727 143.424 201.2 141.003 202.086C139.627 202.589 138.294 203.003 136.982 203.41C134.632 204.141 132.348 204.85 129.996 206.017C127.792 207.11 126.625 207.922 124.907 209.117C124.538 209.374 124.143 209.649 123.707 209.948C121.073 211.753 119.616 213.136 117.417 215.451C117.231 215.648 117.053 215.833 116.885 216.01L116.884 216.011C114.937 218.052 114.086 218.944 112.7 221.741C111.019 225.131 110.453 227.465 109.565 231.132L109.555 231.176C109.338 232.07 109.12 232.833 108.911 233.565C108.56 234.796 108.234 235.937 107.982 237.465C107.159 242.692 107.982 253.19 107.982 253.19C107.982 253.19 105.062 247.861 103.265 245.328C101.93 241.223 102.246 239.339 102.741 236.385C102.915 235.351 103.111 234.186 103.265 232.748C103.482 230.729 103.208 229.114 102.95 227.585C102.595 225.489 102.268 223.553 103.265 220.955C105.111 216.147 106.178 213.836 109.555 209.948C112.528 206.523 115.079 204.383 118.989 202.086C122.827 199.831 126.123 199.199 130.303 198.398L130.304 198.398C130.717 198.319 131.138 198.238 131.569 198.154C138.473 196.808 148.866 198.941 148.866 198.941L147.293 199.727ZM113.203 273.182C117.157 275.363 123.956 277.437 123.956 277.437C123.956 277.437 116.757 274.193 113.921 270.313C112.224 267.992 110.781 263.654 110.781 263.654L119.696 266.058C119.696 266.058 115.393 262.471 115 260.112C115.113 259.837 115.351 259.437 115.351 259.437L139.99 271.401C139.99 271.401 156.532 277.059 167.483 279.226C179.383 281.582 198.371 282.523 198.371 282.523C198.371 282.523 227.007 283.317 245.119 280.947C258.447 279.203 273.861 272.224 287.048 266.254C302.721 259.158 315.248 253.487 317.39 259.719C317.732 260.714 317.39 262.077 317.39 262.077L305.816 269.032L319.673 267.183L320.854 270.711L295.233 285.947C297.095 285.682 298.96 285.183 300.83 284.683C304.255 283.767 307.697 282.846 311.167 283.35C312.653 283.567 314.903 284.262 314.903 284.262L315.486 286.751C315.486 286.751 314.02 288.731 312.904 289.837C309.487 293.227 305.06 296.126 300.726 298.963C298.213 300.609 295.73 302.234 293.496 303.923C289.869 306.662 287.951 307.731 286.993 308.147C287.919 307.859 288.844 307.562 289.769 307.265L289.769 307.264C293.1 306.194 296.437 305.122 299.86 304.434C304.376 303.525 311.583 303.128 311.583 303.128V305.037C308.684 307.019 305.717 308.877 302.749 310.735C300.032 312.436 297.316 314.137 294.651 315.934C293.85 316.282 293.127 316.607 292.447 316.914C289.828 318.094 287.854 318.983 284.572 319.715C276.839 321.439 271.616 320.903 264.693 320.194L264.693 320.194C263.144 320.035 261.51 319.868 259.744 319.715C252.748 319.11 246.343 317.221 240.5 315.498L240.5 315.498C234.766 313.807 229.575 312.277 224.902 312.277C190.84 312.277 162.551 305.566 130.724 292.347C125.173 290.041 117.072 285.38 112.809 281.142C108.66 277.016 104.995 273.201 103.207 269.547C103.207 268.078 103.611 266.114 103.611 266.114C103.611 266.114 109.129 270.935 113.203 273.182Z" fill="white" fill-opacity="0.03"/>
</svg>
