<svg width="1440" height="1082" viewBox="0 0 1440 1082" fill="none" xmlns="http://www.w3.org/2000/svg">
<path fill-rule="evenodd" clip-rule="evenodd" d="M799.168 584.62H1048.25L1047.77 585.379L1047.24 585.135C1047.77 585.379 1047.77 585.38 1047.77 585.38L1047.76 585.391L1047.74 585.421C1047.73 585.448 1047.7 585.487 1047.67 585.538C1047.6 585.64 1047.5 585.79 1047.37 585.985C1047.1 586.375 1046.7 586.945 1046.15 587.669C1045.07 589.116 1043.42 591.18 1041.17 593.655C1036.67 598.603 1029.76 605.197 1020.11 611.789C1000.81 624.979 970.536 638.155 926.679 638.155C876.709 638.155 844.929 624.99 825.632 611.789C815.988 605.192 809.47 598.592 805.362 593.636C803.307 591.158 801.855 589.091 800.914 587.641C800.444 586.915 800.101 586.344 799.876 585.952C799.763 585.756 799.679 585.605 799.623 585.502C799.595 585.451 799.574 585.412 799.56 585.385L799.544 585.354L799.54 585.345L799.538 585.343C799.538 585.343 799.538 585.342 800.09 585.135L799.538 585.342L799.168 584.62Z" fill="url(#paint0_linear_973_705)" fill-opacity="0.2"/>
<path fill-rule="evenodd" clip-rule="evenodd" d="M925.13 267.303L1023.35 526.688L1022.21 527.025L935.836 338.089L922.711 539.223L921.506 539.212L912.82 342.007L815.975 551.224L814.84 550.878L925.13 267.303Z" fill="url(#paint1_linear_973_705)" fill-opacity="0.2"/>
<path fill-rule="evenodd" clip-rule="evenodd" d="M1190.92 584.62H1440L1439.52 585.379L1438.99 585.135C1439.52 585.379 1439.52 585.38 1439.52 585.38L1439.51 585.391L1439.49 585.421C1439.48 585.448 1439.45 585.487 1439.42 585.538C1439.35 585.64 1439.25 585.79 1439.12 585.985C1438.85 586.375 1438.45 586.945 1437.9 587.669C1436.82 589.116 1435.17 591.18 1432.92 593.655C1428.42 598.603 1421.51 605.197 1411.86 611.789C1392.56 624.979 1362.29 638.155 1318.43 638.155C1268.46 638.155 1236.68 624.99 1217.38 611.789C1207.74 605.192 1201.22 598.592 1197.11 593.636C1195.06 591.158 1193.6 589.091 1192.66 587.641C1192.19 586.915 1191.85 586.344 1191.63 585.952C1191.51 585.756 1191.43 585.605 1191.37 585.502C1191.35 585.451 1191.32 585.412 1191.31 585.385L1191.29 585.354L1191.29 585.345L1191.29 585.343C1191.29 585.343 1191.29 585.342 1191.84 585.135L1191.29 585.342L1190.92 584.62Z" fill="url(#paint2_linear_973_705)" fill-opacity="0.2"/>
<path fill-rule="evenodd" clip-rule="evenodd" d="M1316.88 267.303L1415.1 526.688L1413.96 527.025L1327.1 342.007L1314.46 539.223L1313.26 539.212L1304.57 346.414L1207.72 551.224L1206.59 550.878L1316.88 267.303Z" fill="url(#paint3_linear_973_705)" fill-opacity="0.2"/>
<path fill-rule="evenodd" clip-rule="evenodd" d="M1121.93 44.0082L1123.13 44.0062L1132.73 159.347H1138.75C1139.03 159.347 1139.28 159.453 1139.46 159.662C1141.77 162.298 1157.75 180.973 1159.76 196.091C1162.35 215.604 1145.56 237.116 1145.56 237.116L1143.37 248.399H1329.89L1329.98 249.424C1329.98 249.424 1306.44 251.969 1291.41 254.055C1270.64 256.939 1258.88 258.176 1238.42 262.796C1216.2 267.814 1203.72 271.068 1182.46 279.24C1158.6 288.411 1123.75 308.184 1123.75 308.184C1123.75 308.184 1077.76 283.834 1046.37 273.081C998.379 256.642 918.652 249.417 918.652 249.417L918.78 248.399H1102.52L1100.24 237.19C1100.24 237.19 1084.67 212.808 1086.32 195.856C1087.85 180.22 1104.78 159.139 1106.23 158.96C1107.68 158.78 1111.64 158.229 1112.92 158.286L1121.93 44.0082Z" fill="url(#paint4_linear_973_705)" fill-opacity="0.2"/>
<path fill-rule="evenodd" clip-rule="evenodd" d="M948.592 23.9619C909.814 40.0359 862.734 82.4299 843.539 120.905C843.539 120.905 858.234 105.519 871.876 92.268C891.606 73.1043 910.983 57.1807 935.937 45.3122C959.376 34.1645 985.266 26.208 1010.18 19.024C1035.85 11.6227 1062.07 6.4402 1088.38 1.91114C1035.81 -3.95607 997.312 3.76707 948.592 23.9619Z" fill="url(#paint5_linear_973_705)" fill-opacity="0.2"/>
<path fill-rule="evenodd" clip-rule="evenodd" d="M807.754 245.463C825.198 221.512 840.234 195.371 869.194 185.835C871.66 197.828 838.11 286.534 833.47 299.098L911.522 134.151C911.522 134.151 922.277 114.524 929.621 102.21C939.147 86.2365 953.074 67.5114 953.074 67.5114C953.074 67.5114 887.353 103.441 864.14 134.133C840.928 164.824 835.68 193.459 820.987 220.038C815.571 229.834 807.754 245.463 807.754 245.463Z" fill="url(#paint6_linear_973_705)" fill-opacity="0.2"/>
<path fill-rule="evenodd" clip-rule="evenodd" d="M797.627 365.886C797.627 365.886 768.529 393.846 749.955 412.013C726.928 434.536 692.604 471.293 692.604 471.293L748.839 410.486L797.627 365.886Z" fill="url(#paint7_linear_973_705)" fill-opacity="0.2"/>
<path fill-rule="evenodd" clip-rule="evenodd" d="M629.613 444.43C612.048 465.455 603.247 477.504 589.617 501.269C579.376 519.126 572.908 528.717 567.092 548.463C564.101 558.617 561.705 572.763 561.705 572.763L785.982 365.626L778.147 363.118L763.946 327.43C763.946 327.43 672.901 392.615 629.613 444.43Z" fill="url(#paint8_linear_973_705)" fill-opacity="0.2"/>
<path fill-rule="evenodd" clip-rule="evenodd" d="M252.383 496.886C273.58 509.333 284.679 519.632 299.198 539.57C301.157 549.363 288.122 552.17 282.634 560.358C262.619 590.216 253.29 630.874 250.412 665.771C260.214 638.928 267.062 604.695 283.865 581.379C295.967 564.586 327.148 545.592 333.278 528.339C334.766 524.153 335.548 517.192 335.548 517.192C335.548 517.192 317.403 516.177 305.966 514.161C284.314 510.344 252.383 496.886 252.383 496.886Z" fill="url(#paint9_linear_973_705)" fill-opacity="0.2"/>
<path fill-rule="evenodd" clip-rule="evenodd" d="M259.636 271.227C274.152 270.913 291.862 281.895 305.023 287.234C317.234 292.187 329.134 290.808 342.1 290.808C355.359 290.808 368.774 283.378 381.156 279.003C387.826 276.646 408.499 267.685 408.499 280.176C408.499 280.176 404.504 278.731 401.829 278.467C398.037 278.093 394.369 279.262 390.68 279.999C390.68 279.999 386.954 281.099 384.641 282.011C381.287 283.334 379.482 284.286 376.344 286.06C358.088 296.381 349.346 308.793 325.185 304.707C303.42 301.026 284.377 285.263 263.598 278.421C257.227 276.324 246.801 274.836 246.801 274.836L246.807 273.835C246.807 273.835 254.525 271.338 259.636 271.227Z" fill="url(#paint10_linear_973_705)" fill-opacity="0.2"/>
<path fill-rule="evenodd" clip-rule="evenodd" d="M335.691 184.103C359.547 194.463 377.54 219.439 397.806 235.535L395.607 236.075C395.094 236.201 394.552 236.116 394.106 235.833C375.662 224.152 359.891 206.728 339.977 197.915C315.111 186.911 282.746 187.516 257.925 197.909C240.867 205.052 236.173 218.622 222.633 229.278C222.461 229.413 222.248 229.487 222.03 229.484C213.281 229.334 204.163 223.392 194.914 222.666C186.502 222.006 177.996 222.375 169.845 224.702C159.03 227.788 149.845 234.374 141.029 241.169C141.029 241.169 142.009 239.21 143.73 236.389C145.926 233.334 149.919 229.52 149.919 229.52C149.919 229.52 155.98 224.431 160.253 221.733C172.851 213.779 185.586 212.102 200.477 213.401C209.844 214.217 216.569 223.854 225.889 217.662C234.559 207.87 238.502 199.192 250.042 191.366C273.346 175.563 309.546 172.749 335.691 184.103Z" fill="url(#paint11_linear_973_705)" fill-opacity="0.2"/>
<path fill-rule="evenodd" clip-rule="evenodd" d="M290.382 197.18C307.377 190.387 323.514 199.98 339.841 205.015C356.168 210.05 361.912 221.443 377.057 230.479C385.518 235.526 392.056 238.367 401.541 240.272C412.353 242.445 421.977 242.872 432.636 246.149C446.149 250.303 448.062 261.811 450.265 273.571C453.289 289.712 434.113 300.557 424.312 310.787L419.415 306.87L422.108 302.952C422.108 302.952 428.427 297.213 431.167 293.159C435.494 286.758 434.157 280.65 432.881 273.571C426.793 239.779 366.393 254.916 343.758 261.819C316.906 270.008 297.442 245.115 272.019 244.19C259.448 243.733 240.924 253.984 240.924 253.984L243.128 250.066C243.128 250.066 257.801 234.545 270.55 230.479C281.342 227.037 291.944 226.965 302.869 228.52C315.75 230.353 329.103 240.761 340.82 246.149C353.94 252.181 371.998 243.129 385.382 240.272C379.223 235.013 371.715 232.232 364.57 228.52C350.069 220.987 335.272 216.411 319.519 212.85C299.878 208.41 281.75 215.267 263.205 220.685C248.264 225.05 239.911 235.916 228.927 246.149L228.192 244.19L227.213 242.231V240.272C227.213 240.272 235.411 230.402 241.414 224.602C255.987 210.521 271.93 204.556 290.382 197.18Z" fill="url(#paint12_linear_973_705)" fill-opacity="0.2"/>
<path d="M397.851 420.004C400.71 429.674 405.503 433.756 410.449 442.544L410.451 442.548C419.66 453.124 424.234 464.132 422.566 478.058C418.255 472.035 414.4 465.075 409.44 459.578C405.338 455.031 401.111 454.652 396.786 450.316C392.525 446.045 390.491 443.179 387.662 437.85C386.07 434.851 384.218 429.867 384.218 429.867C384.218 429.867 382.411 436.414 382.184 440.72C381.846 447.134 381.915 451.143 384.566 456.993C387.013 462.393 390.867 463.829 394.154 468.763L394.239 468.89C398.291 474.97 401.142 479.248 400.262 486.864C395.869 483.793 395.212 480.805 393.078 476.446C391.555 473.334 390.183 471.817 387.742 469.358C385.431 467.029 383.42 466.532 381.106 464.206C378.184 461.269 374.931 455.578 374.931 455.578C374.931 455.578 371.478 459.154 370.122 461.967C367.101 468.233 369.414 472.86 370.122 479.78C370.458 483.068 376.632 502.028 374.419 502.733C374.419 502.733 371.062 497.74 368.989 494.49C366.043 489.872 361.693 482.509 361.693 482.509C361.693 482.509 357.71 493.314 352.539 498.143L352.482 498.196C350.268 500.259 347.346 503.086 343.812 505.935C341.373 507.901 340.2 509.355 337.394 510.751C330.471 514.195 317.317 510.751 317.317 510.751C317.317 510.751 297.692 507.141 285.491 502.958C268.035 496.974 242.885 480.298 242.885 480.298C242.885 480.298 262.923 489.1 279.122 495.987C299.412 504.614 326.271 509.209 334.456 505.935C348.167 498.196 352.692 483.542 355.513 476.446C360.989 462.672 364.113 447.062 368.936 432.854C373.544 419.282 378.038 403.436 378.038 403.436L397.851 389.235C397.851 389.235 394.173 407.564 397.851 420.004Z" fill="url(#paint13_linear_973_705)" fill-opacity="0.2"/>
<path fill-rule="evenodd" clip-rule="evenodd" d="M431.48 820.04C431.48 820.04 447.468 864.782 455.453 894.124C460.182 911.502 462.864 921.268 466.312 938.946C470.629 961.072 472.805 973.633 474.156 996.135C475.218 1013.82 475.586 1023.84 474.156 1041.49C473.183 1053.51 469.978 1072.08 469.978 1072.08L481.993 1078.14C481.993 1078.14 484.344 1029.99 481.993 999.28C480.757 983.15 479.273 974.177 477.175 958.136C477.174 958.132 477.173 958.125 477.173 958.125L472.955 928.796L474.103 928.522C474.103 928.522 486.31 949.016 492.21 963.054C500.551 982.898 507.31 1016.06 507.31 1016.06C507.31 1016.06 508.138 1003.93 507.31 996.223C506.136 985.289 503.056 979.595 500.094 969.005C494.889 950.396 492.266 939.834 485.637 921.683C477.114 898.348 471.773 885.313 459.743 863.577C449.928 845.841 431.48 820.04 431.48 820.04Z" fill="url(#paint14_linear_973_705)" fill-opacity="0.2"/>
<path fill-rule="evenodd" clip-rule="evenodd" d="M419.884 1052.32C419.884 1052.32 422.746 1004.18 417.981 973.928C410.2 924.526 365.577 834.038 365.577 834.038L365.575 834.034C344.497 782.71 310.306 725.348 309.469 668.113C308.795 622.051 328.13 573.804 359.029 539.609C379.677 516.759 405.339 504.454 432.135 490.586L432.937 491.326C415.096 512.592 396.846 533.066 383.565 557.647C372.351 578.403 362.902 601.4 357.692 624.44C353.731 641.956 353.133 652.215 352.878 670.171C352.676 684.424 354.986 706.612 354.986 706.612L358.91 683.995C358.91 683.995 358.911 683.988 358.912 683.983C362.234 663.189 365.34 642.699 370.369 622.194L371.551 622.183C371.551 622.183 378.087 657.223 385.405 678.762C401.115 725 423.977 756.729 457.661 800.618C517.657 878.791 559.853 938.687 578.323 1040.73C580.27 1051.49 582.587 1068.4 582.587 1068.4C582.587 1068.4 584.109 1052.28 583.148 1034.11C582.563 1023.04 582.198 1016.82 580.741 1005.84C578.94 992.265 577.519 984.671 574.12 971.407C569.206 952.228 564.945 941.842 557.263 923.595C548.158 901.966 531.047 893.44 530.101 869.991C528.712 835.524 544.567 802.763 539.748 768.003L539.748 767.997C539.063 751.885 530.556 733.394 531.897 718.028C534.945 683.094 558.316 646.088 575.368 616.405L606.749 569.51L606.763 569.493C682.796 456.969 619.09 565.945 549.125 600.522C549.125 600.522 545.809 625.512 543.359 641.395C537.936 676.544 522.251 729.983 522.251 729.983L522.244 730.005L515.019 757.771L515.017 757.78L498.361 823.066L496.879 823.828C496.879 823.828 460.77 786.826 441.582 760.005C430.337 744.286 423.97 735.377 415.019 718.247C408.285 705.359 399.921 684.209 399.921 684.209C399.921 684.209 391.417 660.392 389.045 644.482C386.105 624.759 389.045 593.419 389.045 593.419C389.045 593.419 391.023 574.361 395.098 562.923C401.086 546.12 407.598 537.649 419.295 524.181C428.838 513.193 435.457 508.096 447.118 499.389C458.054 491.223 476.724 480.815 476.724 480.815L509.864 464.35L559.841 429.386L605.621 391.837L651.407 348.108L691.17 305.408L723.242 266.222L671.005 318.412L611.923 372.983L611.907 372.997L551.593 420.896L500.93 455.403C500.93 455.403 485.723 468.978 473.654 472.484C463.876 475.324 457.717 472.663 447.629 474.034C431.293 476.256 421.494 477.306 406.809 484.799C399.056 488.755 388.217 497.09 388.217 497.09L388.209 497.096C388.209 497.096 366.378 509.517 354.539 520.2C333.509 539.177 311.456 573.243 301.625 600.805C271.026 686.595 317.971 762.226 364.279 852.175L364.284 852.184C398.102 915.382 417.62 980.77 419.884 1052.32ZM518.321 772.025L510.515 837.655L521.573 854.18L527.373 813.569L521.568 766.478L518.321 772.025Z" fill="url(#paint15_linear_973_705)" fill-opacity="0.2"/>
<path fill-rule="evenodd" clip-rule="evenodd" d="M165.281 374.348L164.433 375.651C164.433 375.651 163.549 384.583 164.433 390.192C165.277 395.546 166.374 398.489 168.606 403.427C170.91 408.523 174.146 411.592 177.401 414.678C180.553 417.667 183.723 420.671 186.077 425.549C187.787 429.09 188.625 431.158 189.739 434.93C191.594 441.211 192.562 444.986 192.168 451.524C191.979 454.662 191.491 456.661 190.847 459.297L190.847 459.298C190.687 459.954 190.517 460.648 190.34 461.409C188.361 469.922 186.614 474.585 183.084 482.581C181.787 485.518 180.327 487.727 178.919 489.858C177.038 492.704 175.249 495.412 174.061 499.532C172.834 503.785 172.506 506.304 172.273 510.724C171.926 517.333 172.472 521.153 174.067 527.576C176.379 536.882 179.486 541.724 184.594 549.687L184.856 550.096C187.367 554.012 194.002 559.338 200.658 564.68C208.69 571.128 216.751 577.599 217.629 581.643C219.398 589.794 217.124 598.769 214.871 607.659C213.373 613.571 211.884 619.446 211.601 625.017C210.936 638.067 214.719 650.86 221.777 661.802C221.971 662.102 222.169 662.412 222.373 662.731C222.52 662.961 222.67 663.195 222.822 663.433C228.269 671.956 237.052 685.699 247.006 685.213C253.376 683.169 253.473 679.556 253.597 674.933C253.628 673.767 253.661 672.536 253.797 671.25C257.536 635.876 283.081 605.584 307.276 581.286C306.724 582.191 306.169 583.099 305.611 584.012C293.647 603.581 280.588 624.943 274.881 647.243C253.559 730.564 296.152 811.884 337.142 890.142C357.381 928.782 377.229 966.676 388.8 1003.7L388.806 1003.71L401.786 1053.83L361.632 969.608L332.105 1022.59L332.1 1022.6L332.095 1022.61L331.596 1023.53C320.366 1044.16 308.632 1065.73 291.117 1081.75C296.226 1071.47 303.112 1059.93 310.381 1047.74C328.644 1017.13 349.316 982.478 350.246 953.82C350.732 938.839 339.157 921.962 329.521 907.913L329.52 907.91C326.961 904.18 324.54 900.649 322.517 897.405C320.896 894.806 318.755 890.522 318.755 890.522C318.755 890.522 287.789 926.636 264.488 946.028L264.467 946.046L229.416 974.994L185.344 1006.82C191.423 1000.95 197.552 995.113 203.684 989.274L203.687 989.27L203.692 989.266L203.701 989.258C221.402 972.402 239.127 955.522 255.734 937.639C276.902 914.842 306.844 876.536 306.844 876.536V869.085L282.936 821.108H281.154L228.279 861.642L228.27 861.649C228.27 861.649 213.844 872.448 204.124 878.659C188.663 888.539 162.819 901.052 162.819 901.052C162.819 901.052 185.557 882.534 199.704 870.175L199.728 870.154C199.728 870.154 221.919 850.657 235.252 837.247C249.752 822.664 270.676 798.282 270.676 798.282V793.892L257.55 750.587H255.762L188.96 782.45L152.16 795.844L152.152 795.847C124.702 805.611 110.863 822.644 102.93 852.636C99.4865 865.653 101.365 886.757 101.365 886.757C101.365 886.757 96.1935 875.858 95.2492 868.419C92.3918 845.912 107.898 823.788 121.181 804.834L121.182 804.832C123.491 801.539 125.732 798.341 127.798 795.254C125.406 770.743 128.902 745.804 135.665 722.153C137.168 716.893 138.92 712.698 140.598 708.68C143.068 702.765 145.377 697.235 146.498 689.26C149.218 669.91 145.338 649.303 138.091 631.34C132.263 616.897 117.938 596.923 117.938 596.923C119.087 600.519 120.287 604.151 121.498 607.813C130.991 636.524 141.102 667.106 131.408 696.687C125.531 714.624 114.168 728.969 102.845 743.264C87.4014 762.761 72.0322 782.164 70.7578 810.46C70.0747 825.627 74.89 841.597 79.3719 856.462C80.2705 859.442 81.1558 862.378 81.9806 865.254C81.9806 865.254 68.8541 848.923 64.5371 836.704C57.356 816.379 58.9322 797.118 64.5306 776.723C70.1948 756.089 79.3567 744.893 88.9217 733.206C97.0073 723.326 105.381 713.094 112.173 696.51C119.248 679.236 119.692 641.229 117.565 627.606C117.409 626.607 117.253 625.602 117.097 624.593L117.093 624.567C115.118 611.831 113.034 598.39 108.953 585.694C107.004 580.82 104.061 576.464 101.108 572.094C96.643 565.486 92.1561 558.846 91.0485 550.334C88.9704 534.363 93.1411 523.109 97.4794 511.403C100.156 504.179 102.897 496.784 104.273 488.001C105.093 482.766 101.366 476.339 98.6771 471.703C98.4856 471.373 98.2994 471.052 98.1205 470.741C98.1205 470.741 98.0883 480.164 97.0638 486.081C95.8206 493.261 91.4317 501.516 87.2382 509.403C84.4979 514.557 81.8409 519.555 80.1997 523.993C64.8403 554.909 72.8902 578.095 85.5836 610.408C92.9555 629.175 97.713 651.608 92.2307 671.454C85.7953 694.749 68.0589 706.128 50.2529 717.553C35.4029 727.08 20.5045 736.639 12.0727 753.166C5.59193 765.869 13.2783 800.003 13.2783 800.003L12.1083 800.177C11.2379 798.113 10.3417 796.066 9.44927 794.027L9.44886 794.026C3.31838 780.023 -2.63092 766.433 1.2222 750.479C5.83399 731.384 21.5361 721.028 37.3993 710.567C48.1206 703.496 58.9155 696.377 66.4097 686.479C79.904 668.655 89.6475 635.423 80.1997 614.296C73.173 598.584 65.9434 582.979 58.5002 567.46C56.6873 559.516 56.145 554.885 56.0735 546.738C55.9193 529.174 65.8227 517.418 75.6354 505.768C84.8571 494.821 93.9987 483.968 94.6372 468.481C95.1393 456.303 86.7817 447.573 78.2528 438.663C68.2985 428.265 58.1108 417.623 61.5026 400.971C65.5571 381.066 84.7353 367.14 100.293 356.41L118.64 343.227L125.242 347.632C122.657 348.021 113.702 353.902 107.902 358.601C96.2937 368.005 82.5115 383.129 78.3964 397.698C75.422 408.229 76.0411 414.585 78.3966 425.271C81.1807 437.902 88.7924 446.04 96.4317 454.208C102.026 460.189 107.634 466.186 111.373 473.974C118.902 489.655 114.354 504.665 109.729 519.929C106.403 530.906 103.036 542.015 104.093 553.601C105.599 570.12 116.674 585.12 127.132 599.286C132.013 605.896 136.759 612.325 140.336 618.641C158.102 650.012 157.519 677.038 151.149 713.494C150.113 719.425 147.963 725.011 145.869 730.452C141.21 742.556 136.83 753.938 145.612 766.779C167.244 735.113 201.623 667.895 174.608 633.664C169.772 627.535 164.085 621.384 158.308 615.135C146.777 602.662 134.885 589.798 128.674 575.949C122.906 563.088 117.387 550.336 120.832 535.637C122.866 526.959 125.407 520.216 127.855 515.809C129.298 543.73 142.832 557.878 157.418 573.123C168.047 584.233 179.233 595.926 186.705 613.958C193.321 629.926 190.905 658.019 190.905 658.019L181.878 698.616L178.649 712.954L248.11 697.636C248.11 697.636 219.587 680.849 212.539 670.124C204.228 657.479 205.588 644.926 206.944 632.409C208.163 621.159 209.378 609.937 203.568 598.703C197.749 587.45 187.437 580.795 177.065 574.101C164.425 565.944 151.697 557.73 146.905 541.068C142.471 525.655 147.497 513.733 152.718 501.351C157.142 490.858 161.705 480.034 160.769 466.476C159.778 452.13 153.152 440.767 146.868 429.991C139.807 417.882 133.178 406.515 135.462 392.49C137.169 382.01 143.277 375.116 149.934 367.685C150.693 366.839 150.572 365.527 149.673 364.833L141.137 358.238L165.281 374.348ZM137.803 356.013C137.508 355.98 137.205 356.017 136.917 356.13C133.915 357.311 124.908 361.113 120.461 365.863C112.659 374.198 103.966 390.464 104.212 402.691C104.438 413.906 109.187 423.497 114.061 433.342C116.874 439.025 119.73 444.793 121.781 451.006C111.661 439.407 100.138 426.136 96.269 410.887C92.4693 395.908 95.9202 386.525 104.225 373.638C108.503 367 117.532 360.543 123.445 356.315C126.832 353.893 129.196 352.203 129.06 351.627C128.652 350.564 128.167 349.825 127.532 349.161L137.803 356.013ZM137.803 356.013L141.137 358.238L138.767 356.407C138.481 356.186 138.148 356.052 137.803 356.013ZM127.532 349.161C127.054 348.66 126.489 348.202 125.806 347.681C125.684 347.609 125.493 347.594 125.242 347.632L127.532 349.161ZM127.319 461.219C127.319 461.219 134.835 470.692 136.497 477.588C138.07 484.117 138.12 488.267 136.497 494.783C135.258 499.756 129.867 506.555 129.867 506.555C129.867 506.555 131.248 492.645 130.746 483.745C130.245 474.861 127.319 461.219 127.319 461.219ZM234.104 743.164L234.137 743.135C237.535 740.234 240.137 737.236 242.558 733.485C230.376 735.993 218.329 740.119 206.568 744.147L206.567 744.147C202.254 745.625 197.979 747.089 193.749 748.455C177.988 753.547 160.359 755.195 160.359 755.195L160.233 755.41C158.512 758.349 155.636 761.913 152.55 765.737C146.248 773.547 139.071 782.44 139.071 789.309C139.071 789.309 155.645 785.198 165.848 781.333C180.158 775.911 200.887 763.793 200.887 763.793L234.104 743.164ZM222.571 725.562C235.197 719.11 253.198 706.062 253.198 706.062L204.623 717.924L173.457 724.708L166.493 742.78C166.493 742.78 180.182 741.151 188.715 738.984C202.5 735.483 209.906 732.033 222.571 725.562Z" fill="url(#paint16_linear_973_705)" fill-opacity="0.2"/>
<path fill-rule="evenodd" clip-rule="evenodd" d="M197.906 256.629C203.185 256.54 206.517 256.631 211.617 257.609C218.218 258.874 227.287 262.506 227.287 262.506C229.916 244.458 213.487 234.112 197.906 230.186C187.181 227.484 173.288 227.4 162.648 230.186C143.867 235.105 127.493 249.272 123.474 269.361C122.621 273.621 122.923 278.826 123.227 284.076C123.644 291.285 124.066 298.581 121.515 303.639C119.914 306.813 118.32 309.484 116.894 311.872C111.76 320.473 108.815 325.406 115.639 336.938C128.914 359.373 159.481 374.949 184.195 381.989C187.384 382.898 192.086 384.114 196.998 385.384C203.005 386.937 209.325 388.572 213.576 389.824C225.995 393.483 232.033 394.421 244.916 395.701C250.765 396.281 255.569 396.28 260.439 396.279C264.749 396.279 269.111 396.278 274.297 396.68C276.923 396.884 279.207 397.011 281.317 397.128C287.529 397.475 292.24 397.737 299.761 399.618C303.876 400.647 306.829 401.868 309.811 403.1C312.63 404.265 315.474 405.44 319.348 406.474C325.429 408.096 328.744 408.927 335.018 409.412C335.359 409.438 335.695 409.464 336.029 409.49L336.065 409.493C342.722 410.014 348.088 410.434 354.606 408.432C358.032 407.38 360.019 405.909 362.102 404.366C363.82 403.094 365.605 401.773 368.317 400.597C369.896 399.913 371.513 399.54 373.128 399.167C374.806 398.78 376.482 398.394 378.111 397.659C380.37 396.641 381.651 395.729 383.161 394.655C383.964 394.084 384.832 393.466 385.946 392.762C390.223 390.059 392.248 388.59 395.739 384.927C398.511 382.02 401.616 376.113 401.616 376.113C403.086 373.786 404.644 372.118 406.159 370.496C408.062 368.458 409.897 366.492 411.409 363.381C415.602 354.757 415.998 347.751 416.458 339.59C416.642 336.337 416.836 332.9 417.286 329.103C417.567 326.726 418.151 324.668 418.704 322.721C419.749 319.043 420.681 315.761 419.244 311.474C419.206 311.36 419.168 311.248 419.131 311.136L419.039 310.859C418.176 308.256 417.567 306.419 415.327 304.619C414.168 303.687 412.793 303.406 411.375 303.116C410.737 302.986 410.091 302.854 409.451 302.66C408.607 302.405 408.1 302.381 407.663 302.36C407.056 302.332 406.583 302.31 405.533 301.681C404.199 300.881 401.543 298.743 401.543 298.743L399.657 283.073C399.657 283.073 395.652 293.167 391.822 298.743C388.571 303.474 386.272 305.65 382.028 309.516C375.601 315.37 369.679 317.556 362.903 320.058C359.72 321.234 356.348 322.479 352.647 324.206C352.647 324.206 336.398 333.085 325.224 336.938C310.014 342.183 300.064 343.826 284.091 345.752C274.362 346.926 267.941 346.863 259.477 346.779H259.475C257.385 346.758 255.17 346.737 252.751 346.732C250.058 346.727 247.669 346.751 245.445 346.774C237.964 346.85 232.351 346.907 223.37 345.752C208.385 343.826 184.195 336.938 184.195 336.938V334.979C182.04 310.357 192.163 295.131 213.576 284.052C219.422 281.027 229.246 278.176 229.246 278.176C225.865 276.732 223.289 277.187 220.101 277.75C219.28 277.895 218.419 278.047 217.493 278.176C204.544 279.977 190.702 283.995 182.236 294.825C177.44 300.961 175.704 307.738 176.36 315.392C176.627 318.513 177.474 321.245 178.312 323.95C179.3 327.141 180.277 330.294 180.277 334L170.483 330.082C170.418 326.941 170.118 323.666 169.813 320.346C169.111 312.681 168.386 304.782 170.483 297.763C175.688 280.346 191.427 274.733 207.7 270.341L211.617 269.361V268.382C208.908 268.382 206.016 268.271 203.029 268.156C191.206 267.702 177.889 267.191 168.525 273.279C161.161 278.066 158.338 287.056 160.69 295.804C163.717 307.067 165.626 315.625 164.607 328.124C160.157 328.204 157.135 326.55 153.401 324.505L153.394 324.501C153.292 324.445 153.189 324.389 153.085 324.332C153.009 324.29 152.932 324.248 152.855 324.206C140.582 317.505 139.174 306.375 143.061 293.846C144.087 290.538 145.329 288.076 146.978 285.031C147.655 283.782 148.158 282.733 148.613 281.784C149.715 279.487 150.534 277.779 152.855 275.238C157.232 270.444 160.94 267.704 166.566 264.464C171.606 261.562 175.533 260.464 180.879 258.968C181.321 258.845 181.773 258.718 182.236 258.588C188.141 256.926 191.772 256.734 197.906 256.629ZM314.292 265.761C306.06 260.268 297.773 254.737 288.008 252.712C274.063 249.82 258.941 256.131 246.875 262.506V263.485C260.556 262.795 273.294 262.423 286.05 267.403C291.099 269.374 296.241 271.917 301.449 274.493C311.789 279.608 322.393 284.853 333.059 286.011C345.276 287.337 356.752 283.048 368.257 278.75C377.277 275.379 386.315 272.002 395.739 271.32C399.657 271.037 404.244 270.807 405.533 271.32C405.995 271.504 406.533 271.695 407.111 271.9C409.327 272.686 412.12 273.677 413.368 275.238C417.075 279.873 418.872 290.431 417.286 295.804C416.388 298.845 413.368 302.66 413.368 302.66L421.203 304.619C422.149 303.327 423.26 302.041 424.389 300.733C427.932 296.632 431.654 292.323 430.997 286.99C430.826 285.608 430.722 284.215 430.619 282.836C430.148 276.56 429.7 270.593 423.162 267.403C414.272 263.065 408.184 260.422 397.698 263.485C392.745 264.932 387.901 266.645 383.064 268.355C375.637 270.981 368.23 273.6 360.482 275.238C347.65 277.949 332.724 277.465 321.307 270.341C318.952 268.871 316.624 267.318 314.292 265.761ZM182.236 248.794C182.236 248.794 177.416 250.63 174.401 251.733C172.686 252.36 171.026 252.875 169.392 253.383C166.465 254.292 163.619 255.176 160.69 256.629C157.944 257.991 156.491 259.002 154.35 260.492C153.89 260.812 153.398 261.154 152.855 261.526C149.574 263.776 147.759 265.498 145.02 268.382C144.788 268.626 144.567 268.858 144.357 269.078L144.355 269.08C141.93 271.622 140.871 272.733 139.144 276.217C137.05 280.44 136.346 283.347 135.239 287.915L135.226 287.969C134.956 289.083 134.685 290.034 134.425 290.945C133.987 292.479 133.581 293.901 133.267 295.804C132.241 302.315 133.267 315.392 133.267 315.392C133.267 315.392 129.629 308.754 127.391 305.598C125.728 300.485 126.122 298.138 126.739 294.459C126.955 293.171 127.199 291.719 127.391 289.928C127.661 287.413 127.321 285.402 126.998 283.496C126.557 280.885 126.149 278.474 127.391 275.238C129.69 269.249 131.02 266.37 135.226 261.526C138.93 257.261 142.108 254.595 146.978 251.733C151.759 248.924 155.865 248.137 161.072 247.14C161.586 247.041 162.112 246.94 162.648 246.836C171.249 245.159 184.195 247.815 184.195 247.815L182.236 248.794ZM139.77 340.295C144.696 343.012 153.165 345.596 153.165 345.596C153.165 345.596 144.198 341.554 140.665 336.722C138.552 333.83 136.753 328.427 136.753 328.427L147.859 331.421C147.859 331.421 142.499 326.953 142.009 324.015C142.151 323.673 142.447 323.174 142.447 323.174L173.138 338.077C173.138 338.077 193.745 345.125 207.386 347.825C222.21 350.759 245.862 351.932 245.862 351.932C245.862 351.932 281.533 352.92 304.095 349.968C320.697 347.796 339.898 339.103 356.325 331.666C375.848 322.827 391.453 315.762 394.121 323.525C394.547 324.764 394.121 326.462 394.121 326.462L379.703 335.126L396.965 332.823L398.436 337.217L366.521 356.197C368.84 355.867 371.163 355.245 373.492 354.622C377.759 353.481 382.047 352.334 386.369 352.962C388.22 353.232 391.023 354.098 391.023 354.098L391.749 357.198C391.749 357.198 389.923 359.664 388.533 361.043C384.277 365.265 378.762 368.876 373.364 372.411C370.232 374.461 367.141 376.485 364.357 378.588C359.839 382.001 357.45 383.332 356.257 383.851C357.41 383.492 358.562 383.122 359.714 382.751C363.863 381.419 368.021 380.083 372.284 379.225C377.91 378.094 386.887 377.599 386.887 377.599V379.977C383.277 382.445 379.58 384.76 375.883 387.075C372.499 389.193 369.115 391.313 365.796 393.55C364.798 393.984 363.897 394.39 363.05 394.771C359.788 396.241 357.33 397.349 353.241 398.26C343.608 400.408 337.101 399.741 328.478 398.857C326.549 398.659 324.513 398.451 322.313 398.26C313.599 397.506 305.619 395.154 298.342 393.008C291.199 390.902 284.732 388.995 278.911 388.995C236.481 388.995 201.242 380.635 161.596 364.169C154.681 361.297 144.59 355.49 139.28 350.211C134.111 345.072 129.546 340.319 127.318 335.767C127.319 333.937 127.823 331.491 127.823 331.491C127.823 331.491 134.695 337.496 139.77 340.295Z" fill="url(#paint17_linear_973_705)" fill-opacity="0.2"/>
<defs>
<linearGradient id="paint0_linear_973_705" x1="1297.44" y1="1006.02" x2="728.756" y2="183.439" gradientUnits="userSpaceOnUse">
<stop stop-color="#F7B70B"/>
<stop offset="0.952446" stop-color="#5E6268"/>
</linearGradient>
<linearGradient id="paint1_linear_973_705" x1="1297.44" y1="1006.02" x2="728.756" y2="183.439" gradientUnits="userSpaceOnUse">
<stop stop-color="#F7B70B"/>
<stop offset="0.952446" stop-color="#5E6268"/>
</linearGradient>
<linearGradient id="paint2_linear_973_705" x1="1297.44" y1="1006.02" x2="728.756" y2="183.439" gradientUnits="userSpaceOnUse">
<stop stop-color="#F7B70B"/>
<stop offset="0.952446" stop-color="#5E6268"/>
</linearGradient>
<linearGradient id="paint3_linear_973_705" x1="1297.44" y1="1006.02" x2="728.756" y2="183.439" gradientUnits="userSpaceOnUse">
<stop stop-color="#F7B70B"/>
<stop offset="0.952446" stop-color="#5E6268"/>
</linearGradient>
<linearGradient id="paint4_linear_973_705" x1="1297.44" y1="1006.02" x2="728.756" y2="183.439" gradientUnits="userSpaceOnUse">
<stop stop-color="#F7B70B"/>
<stop offset="0.952446" stop-color="#5E6268"/>
</linearGradient>
<linearGradient id="paint5_linear_973_705" x1="1297.44" y1="1006.02" x2="728.756" y2="183.439" gradientUnits="userSpaceOnUse">
<stop stop-color="#F7B70B"/>
<stop offset="0.952446" stop-color="#5E6268"/>
</linearGradient>
<linearGradient id="paint6_linear_973_705" x1="1297.44" y1="1006.02" x2="728.756" y2="183.439" gradientUnits="userSpaceOnUse">
<stop stop-color="#F7B70B"/>
<stop offset="0.952446" stop-color="#5E6268"/>
</linearGradient>
<linearGradient id="paint7_linear_973_705" x1="1297.44" y1="1006.02" x2="728.756" y2="183.439" gradientUnits="userSpaceOnUse">
<stop stop-color="#F7B70B"/>
<stop offset="0.952446" stop-color="#5E6268"/>
</linearGradient>
<linearGradient id="paint8_linear_973_705" x1="1297.44" y1="1006.02" x2="728.756" y2="183.439" gradientUnits="userSpaceOnUse">
<stop stop-color="#F7B70B"/>
<stop offset="0.952446" stop-color="#5E6268"/>
</linearGradient>
<linearGradient id="paint9_linear_973_705" x1="1297.44" y1="1006.02" x2="728.756" y2="183.439" gradientUnits="userSpaceOnUse">
<stop stop-color="#F7B70B"/>
<stop offset="0.952446" stop-color="#5E6268"/>
</linearGradient>
<linearGradient id="paint10_linear_973_705" x1="1297.44" y1="1006.02" x2="728.756" y2="183.439" gradientUnits="userSpaceOnUse">
<stop stop-color="#F7B70B"/>
<stop offset="0.952446" stop-color="#5E6268"/>
</linearGradient>
<linearGradient id="paint11_linear_973_705" x1="1297.44" y1="1006.02" x2="728.756" y2="183.439" gradientUnits="userSpaceOnUse">
<stop stop-color="#F7B70B"/>
<stop offset="0.952446" stop-color="#5E6268"/>
</linearGradient>
<linearGradient id="paint12_linear_973_705" x1="1297.44" y1="1006.02" x2="728.756" y2="183.439" gradientUnits="userSpaceOnUse">
<stop stop-color="#F7B70B"/>
<stop offset="0.952446" stop-color="#5E6268"/>
</linearGradient>
<linearGradient id="paint13_linear_973_705" x1="1297.44" y1="1006.02" x2="728.756" y2="183.439" gradientUnits="userSpaceOnUse">
<stop stop-color="#F7B70B"/>
<stop offset="0.952446" stop-color="#5E6268"/>
</linearGradient>
<linearGradient id="paint14_linear_973_705" x1="1297.44" y1="1006.02" x2="728.756" y2="183.439" gradientUnits="userSpaceOnUse">
<stop stop-color="#F7B70B"/>
<stop offset="0.952446" stop-color="#5E6268"/>
</linearGradient>
<linearGradient id="paint15_linear_973_705" x1="1297.44" y1="1006.02" x2="728.756" y2="183.439" gradientUnits="userSpaceOnUse">
<stop stop-color="#F7B70B"/>
<stop offset="0.952446" stop-color="#5E6268"/>
</linearGradient>
<linearGradient id="paint16_linear_973_705" x1="1297.44" y1="1006.02" x2="728.756" y2="183.439" gradientUnits="userSpaceOnUse">
<stop stop-color="#F7B70B"/>
<stop offset="0.952446" stop-color="#5E6268"/>
</linearGradient>
<linearGradient id="paint17_linear_973_705" x1="1297.44" y1="1006.02" x2="728.756" y2="183.439" gradientUnits="userSpaceOnUse">
<stop stop-color="#F7B70B"/>
<stop offset="0.952446" stop-color="#5E6268"/>
</linearGradient>
</defs>
</svg>
