<svg width="85" height="101" viewBox="0 0 85 101" fill="none" xmlns="http://www.w3.org/2000/svg">
<path d="M56.4194 0.810314C53.7009 1.09235 51.1547 1.9933 48.9611 3.42699C46.6891 4.91552 44.4485 7.36768 43.0696 9.88251C42.8973 10.1881 42.7249 10.4231 42.6857 10.3996C42.6466 10.3761 42.529 10.1959 42.4272 9.9922C42.106 9.35761 41.0249 7.77507 40.4059 7.03864C39.2543 5.65979 37.9459 4.4768 36.6219 3.61502C34.5693 2.27534 32.2269 1.40572 29.571 0.998337C28.2235 0.786812 24.9017 0.786812 23.4602 0.998337C16.1507 2.04031 10.9957 6.41189 8.90394 13.3453C7.54076 17.8422 7.90897 22.5429 9.99291 27.4158C13.6281 35.924 21.8463 44.9491 37.0137 57.0689C40.9778 60.234 42.6857 61.5423 42.7876 61.4797C43.054 61.3151 45.937 59.1764 47.6057 57.9072C52.04 54.5306 55.918 51.295 59.4591 48.0046C61.261 46.328 64.6846 42.873 65.9695 41.4315C72.6052 33.9889 76.2012 27.5098 77.2196 21.1405C77.4233 19.8948 77.4155 16.6984 77.2196 15.4998C76.0915 8.80137 71.8296 3.9754 65.1469 1.83662C63.0316 1.16286 60.932 0.81815 58.6365 0.771141C57.7747 0.755474 56.7798 0.771141 56.4194 0.810314Z" fill="#F7B70B"/>
<path d="M4.50105 29.3509C4.13283 29.5232 3.74895 29.9463 3.50608 30.4712C3.36506 30.7767 3.11436 31.709 2.80882 33.0565C2.01755 36.6055 1.60233 39.0812 0.897238 44.4869C0.701379 45.9911 0.450679 47.8635 0.348832 48.6391C-0.0898922 51.9609 -0.113395 55.1181 0.270489 59.4897C0.638704 63.6028 1.54749 68.9615 2.23692 71.0767C2.74615 72.6358 3.74111 74.5082 4.86143 75.9889C6.03658 77.5558 7.39193 78.8249 10.651 81.4259C14.4585 84.4578 15.8766 85.8759 17.4278 88.2027C18.8614 90.3493 19.5195 91.9788 20.5615 95.8647C21.2353 98.4187 21.4468 98.9358 22.0344 99.5782C22.2067 99.774 22.4966 100.001 22.6611 100.08C23.0215 100.268 24.4082 100.636 25.458 100.824C26.3668 100.996 28.6857 101.02 29.4535 100.871C31.6393 100.44 33.2845 99.539 35.0237 97.8076C36.05 96.7813 36.622 96.0214 36.7081 95.5513C36.8021 95.0656 36.5906 94.478 35.7288 92.7701C34.8122 90.9682 34.4362 90.0907 34.115 88.9861C33.8016 87.905 33.6997 86.9883 33.6136 84.5205C33.5039 81.3711 33.2767 80.1333 32.5403 78.6604C31.9683 77.5244 31.0361 76.4825 29.9236 75.746C29.6415 75.5658 28.7484 75.0488 27.9258 74.61C23.4837 72.2127 22.0344 71.1394 19.3315 68.2642C17.7176 66.5485 16.5895 65.0208 14.9521 62.3493C13.017 59.1842 12.4451 58.3772 11.3953 57.3353C10.3768 56.309 9.30352 55.6117 8.41823 55.3767C7.50161 55.1416 6.94537 55.2591 6.41263 55.7997C5.95824 56.2698 5.79372 56.732 5.73888 57.6486C5.60569 59.9911 7.16473 63.4617 9.87542 66.807C10.5178 67.5983 11.4736 68.9693 11.3796 68.9693C11.1994 68.9693 10.3612 68.3034 9.62472 67.5669C7.32142 65.2558 5.37066 62.0751 4.6499 59.4505C4.38353 58.4947 4.31302 57.0846 4.49321 56.3246C4.64207 55.69 4.97111 55.0476 5.40983 54.507C5.83289 54.0056 6.16193 53.3397 6.29512 52.7365C6.36563 52.4309 6.42047 51.5065 6.45181 50.2843C6.49881 48.1926 6.632 46.7589 7.08639 43.7035C7.71314 39.4807 7.86983 37.4986 7.80715 34.3806C7.76798 31.9832 7.72097 31.6855 7.27441 30.8081C7.00021 30.2518 6.43614 29.6643 5.98958 29.4449C5.59786 29.2569 4.81442 29.2099 4.50105 29.3509Z" fill="#F7B70B"/>
<path d="M78.9824 29.4919C78.434 29.7661 78.0422 30.1813 77.7054 30.8394C77.2275 31.7795 77.204 31.9754 77.204 35.2032C77.204 38.5328 77.2431 39.0028 77.8699 43.4684C78.4026 47.2289 78.4966 48.1612 78.5671 50.5585C78.6455 53.1439 78.7238 53.4416 79.6875 54.6637C80.1027 55.1886 80.3534 55.6979 80.5022 56.3325C80.6824 57.0846 80.6119 58.5026 80.3456 59.4505C79.6248 62.0751 77.674 65.2558 75.3707 67.5669C74.6343 68.3034 73.796 68.9693 73.6158 68.9693C73.5218 68.9693 74.4776 67.5983 75.12 66.807C76.2952 65.3498 77.298 63.8064 78.0187 62.3493C79.7815 58.769 79.6796 55.8389 77.768 55.3297C76.7339 55.0476 75.1279 55.8076 73.6393 57.2883C72.5895 58.3381 72.0411 59.098 70.3881 61.8008C68.2493 65.3028 67.1211 66.807 65.0372 68.9223C62.5302 71.4606 61.4569 72.2206 56.7954 74.7667C54.6645 75.9262 53.9202 76.4981 53.1211 77.5793C51.9068 79.2323 51.5151 80.7757 51.3819 84.5205C51.2957 86.9883 51.1939 87.905 50.8805 88.9861C50.5593 90.0829 50.1911 90.9604 49.2666 92.7858C48.3343 94.6269 48.162 95.1439 48.3186 95.661C48.4597 96.1311 48.8357 96.6403 49.7288 97.5726C51.5856 99.5077 53.505 100.55 55.871 100.902C57.3987 101.129 59.3494 100.957 61.3237 100.424C62.2403 100.181 62.5615 100.017 62.9611 99.5782C63.5487 98.9358 63.7602 98.4187 64.4339 95.8647C65.4759 91.9788 66.134 90.3493 67.5677 88.2027C69.1111 85.8915 70.4272 84.5675 74.1799 81.5591C76.8749 79.3968 77.6975 78.6839 78.7003 77.6419C80.1419 76.1534 81.0898 74.7902 81.9908 72.9257C82.8369 71.1864 83.2599 69.6039 83.9024 65.812C84.7955 60.4847 85.1794 55.0006 84.9208 51.2636C84.8111 49.7673 83.7535 41.6509 83.2756 38.6503C82.7664 35.5087 81.8262 31.192 81.4894 30.4712C80.941 29.3039 80.0478 28.9592 78.9824 29.4919Z" fill="#F7B70B"/>
<path d="M9.80484 35.4147C9.51497 35.4695 9.03707 36.0023 8.89606 36.4332C8.7002 37.0129 7.92459 44.1343 7.55638 48.6783C7.48587 49.5166 7.37619 50.5037 7.31351 50.8641C7.18033 51.6318 7.17249 52.5563 7.28218 52.8853C7.45453 53.3711 8.12045 53.3711 8.48867 52.8853C8.59051 52.7443 9.04491 51.5613 9.4993 50.2452C9.9537 48.929 10.8546 46.3358 11.4971 44.4869C12.1395 42.6301 12.7036 40.9301 12.7584 40.7029C12.8994 40.0448 12.8681 38.8383 12.6879 38.1489C12.2492 36.4332 10.9408 35.1875 9.80484 35.4147Z" fill="#F7B70B"/>
<path d="M74.415 35.4695C73.4357 35.8143 72.613 36.8719 72.2683 38.2194C72.1195 38.7835 72.1038 40.037 72.2292 40.6637C72.3075 41.0476 73.1928 43.6408 75.9505 51.5613C76.397 52.8462 76.5537 53.0969 77.0003 53.2222C77.3293 53.3084 77.5957 53.1752 77.7132 52.8618C77.8229 52.572 77.8072 51.7259 77.6741 50.9111C77.6192 50.5194 77.4939 49.3207 77.3998 48.2474C77.0395 43.9072 76.2952 37.1069 76.115 36.5194C75.9662 36.0101 75.7076 35.6811 75.3316 35.5087C74.9555 35.3364 74.7988 35.3285 74.415 35.4695Z" fill="#F7B70B"/>
<path d="M14.4507 41.1886C14.1922 41.2983 13.7769 41.7371 13.5968 42.0896C13.1032 43.0297 11.5442 47.1741 10.4473 50.4332C9.77359 52.4466 9.63257 52.9324 9.63257 53.3241C9.63257 53.9195 9.82843 54.3504 10.2985 54.7813C11.1446 55.5647 11.6303 55.032 13.3931 51.389C14.8659 48.3493 16.0411 45.6621 16.2526 44.8708C16.6443 43.3588 16.1116 41.596 15.1401 41.1886C14.8346 41.0555 14.7484 41.0555 14.4507 41.1886Z" fill="#F7B70B"/>
<path d="M69.7457 41.2434C69.3931 41.4158 69.1189 41.7605 68.8525 42.3716C68.6332 42.8651 68.5548 44.0951 68.7037 44.7454C68.9466 45.8579 72.143 52.7678 73.0831 54.2171C73.4513 54.7969 73.8195 55.1024 74.1172 55.1024C74.4149 55.1024 74.979 54.5932 75.1984 54.1231C75.4804 53.5199 75.4256 53.089 74.8458 51.3106C73.8117 48.1847 72.284 44.0716 71.5241 42.3716C71.2655 41.7918 70.8738 41.3296 70.5291 41.1886C70.1922 41.0476 70.1295 41.0476 69.7457 41.2434Z" fill="#F7B70B"/>
<path d="M16.7541 47.2994C16.3859 47.5501 16.002 48.0672 15.0619 49.5792C13.1346 52.6738 12.3198 54.5227 12.2415 56.0191C12.2023 56.6458 12.218 56.779 12.3668 57.0845C12.4843 57.3274 12.6254 57.4763 12.8134 57.5703C13.2286 57.7661 13.4166 57.6799 13.7378 57.1472C13.8945 56.8887 14.4508 56.0896 14.9757 55.361C17.608 51.7102 18.4855 50.0649 18.4855 48.7566C18.4855 47.5109 17.5767 46.7432 16.7541 47.2994Z" fill="#F7B70B"/>
<path d="M67.0584 47.3543C66.7216 47.699 66.5805 48.0124 66.5335 48.5216C66.416 49.8221 67.2073 51.4281 69.7064 54.9223C70.435 55.9486 71.148 56.9749 71.289 57.2021C71.5789 57.6721 71.7826 57.7583 72.1821 57.5703C73.0596 57.1551 72.9655 55.4785 71.9314 53.183C71.3203 51.8277 69.6516 48.9838 68.8447 47.9262C68.2101 47.0879 67.5442 46.8764 67.0584 47.3543Z" fill="#F7B70B"/>
</svg>
