<svg width="123" height="106" viewBox="0 0 123 106" fill="none" xmlns="http://www.w3.org/2000/svg">
<path d="M93.4535 1.06285L93.3093 1.3415L93.9819 1.8988C94.9044 2.6675 95.6538 3.5611 96.6916 5.11771C98.5172 7.86579 100.545 10.6523 101.477 11.6996C101.765 12.0167 102.341 12.5644 102.764 12.9007C105.339 14.9954 107.194 16.4559 107.29 16.4559C107.338 16.4559 107.463 16.3983 107.569 16.331C107.732 16.1965 107.732 16.1677 107.53 15.3125C106.896 12.7086 105.647 9.60495 104.571 7.98109C103.081 5.73266 100.083 3.40736 96.8645 1.98528C96.0862 1.64898 93.7802 0.793808 93.6264 0.793808C93.6072 0.793808 93.5303 0.91872 93.4535 1.06285Z" fill="#F7B70B"/>
<path d="M27.126 1.9858C23.0423 3.47514 19.343 6.0983 17.5558 8.77912C16.5276 10.3261 15.4611 12.9973 14.8077 15.6397C14.3561 17.4942 14.3561 17.3885 14.6732 17.5422C14.9422 17.6767 14.9422 17.6767 16.912 16.0048C19.785 13.5546 20.2846 13.0934 20.9668 12.2094C21.7836 11.1621 23.6477 8.45243 24.5701 7.00152C26.0883 4.58014 26.3765 4.19579 27.4143 3.15806C28.3751 2.19719 28.452 2.0915 28.3559 1.88972C28.231 1.60146 28.1926 1.60146 27.126 1.9858Z" fill="#F7B70B"/>
<path d="M105.849 6.99244C105.695 7.22305 105.705 7.26148 106.569 8.67396C107.934 10.932 108.155 11.5566 109.212 16.1687C109.827 18.8591 110.451 21.0883 110.874 22.1165C111.037 22.5104 111.172 22.8467 111.172 22.8756C111.172 22.914 110.98 22.6257 110.749 22.2414C109.452 20.1371 108.27 18.9937 105.32 16.9374C102.697 15.1118 100.564 13.19 99.8337 12.0082C99.5263 11.5085 99.4782 11.4605 99.2188 11.5085C99.065 11.5373 98.9209 11.5758 98.9017 11.595C98.8344 11.6526 99.2572 13.5455 99.4878 14.2085C99.9875 15.6883 100.497 16.5242 102.101 18.5324C103.418 20.1755 104.148 20.877 107.905 24.0959C111.076 26.8247 111.316 27.0553 112.508 28.5351L113.305 29.5151L113.545 29.3614C113.718 29.2461 113.766 29.15 113.728 28.9963C113.545 28.2756 113.478 26.3058 113.574 24.4994C113.776 20.5791 113.785 19.8488 113.68 18.6285C113.43 15.7267 112.661 13.4206 111.258 11.3163C110.451 10.1056 108.751 8.47218 107.338 7.54014C106.685 7.10775 106.118 6.75223 106.079 6.75223C106.041 6.75223 105.935 6.85792 105.849 6.99244Z" fill="#F7B70B"/>
<path d="M14.9222 8.50044C11.0499 11.1428 9.02252 14.5347 8.5613 19.1372C8.41717 20.5401 8.43639 21.549 8.64778 24.2394C8.85917 26.7857 8.8976 29.0438 8.74387 29.947C8.65739 30.4658 8.667 30.5235 8.86878 30.6772C8.98408 30.7733 9.10899 30.831 9.14743 30.8117C9.17626 30.7925 9.59904 30.2641 10.0699 29.6395C11.0788 28.3231 11.9916 27.4199 15.1336 24.5949C18.1219 21.9237 19.054 20.9533 20.3896 19.1757C21.8789 17.1963 22.5419 15.8126 22.907 13.9582C23.1953 12.4304 23.2049 12.5457 22.8494 12.4688C22.6572 12.4208 22.5227 12.44 22.5035 12.4976C22.4843 12.5553 22.2633 12.9012 21.9942 13.2759C20.9757 14.7365 19.5152 16.0721 16.4884 18.3205C13.971 20.1942 12.6065 21.6067 11.5592 23.4323C11.367 23.7686 11.1941 24.028 11.1749 24.0184C11.1652 23.9992 11.2806 23.6629 11.4343 23.269C11.8282 22.2504 12.4048 19.954 13.0197 16.9272C13.308 15.4763 13.6635 13.8813 13.798 13.3816C14.0767 12.3247 14.682 10.9987 15.6044 9.4517L16.2578 8.35632L16.0272 8.12571L15.7966 7.90471L14.9222 8.50044Z" fill="#F7B70B"/>
<path d="M114.699 15.9287C114.526 16.0536 114.526 16.0921 114.805 16.8127C115.429 18.4558 115.631 19.9259 115.487 21.8573C115.429 22.5587 115.266 25.1146 115.122 27.5264L114.862 31.9176L115.112 34.6849C115.256 36.203 115.352 37.4714 115.343 37.4906C115.324 37.5098 115.285 37.3945 115.256 37.2504C114.834 35.2902 113.95 32.9745 113.075 31.5524C112.547 30.6876 111.538 29.6307 107.656 25.8545C106.695 24.9224 105.734 23.9328 105.513 23.6349C105.177 23.1929 105.081 23.1256 104.869 23.1641C104.533 23.2217 104.504 23.3466 104.629 24.1634C104.869 25.7296 105.657 27.9972 106.551 29.6691C106.974 30.4666 108.713 33.0129 111.49 36.9045C113.354 39.518 114.315 41.286 115.266 43.89C115.458 44.4184 115.545 44.5145 115.852 44.5145C116.015 44.5145 116.083 44.4377 116.131 44.2455C116.659 41.9202 117.505 38.8838 118.235 36.6354C119.321 33.2916 119.609 31.8407 119.696 29.1887C119.811 25.7872 119.205 22.9527 117.716 19.9644C116.842 18.1868 115.256 15.775 114.978 15.7846C114.92 15.7846 114.795 15.8519 114.699 15.9287Z" fill="#F7B70B"/>
<path d="M6.51446 17.869C4.58312 20.5883 3.52617 23.1346 2.86317 26.6898C2.69982 27.593 2.69982 31.4269 2.86317 32.455C3.15143 34.1941 3.52617 35.5874 4.51586 38.5565C5.09238 40.2764 5.80342 42.5633 6.10129 43.6491C6.39916 44.7348 6.65859 45.6765 6.68742 45.7437C6.70663 45.8206 6.84116 45.859 7.01411 45.8398C7.29276 45.811 7.3312 45.763 7.58102 45.0423C8.5515 42.275 9.35862 40.8241 12.5679 36.0102C16.0078 30.8792 16.6612 29.6204 17.3915 26.757C17.5548 26.1037 17.795 24.4414 17.7278 24.3645C17.7182 24.3453 17.5836 24.3164 17.4299 24.2876C17.1801 24.2396 17.1224 24.278 16.8149 24.7392C16.6324 25.0179 15.095 26.6514 13.3943 28.3713C10.0024 31.8016 9.57962 32.3397 8.73406 34.2326C8.26324 35.2895 7.74437 36.875 7.40807 38.2682C7.27354 38.8159 7.2255 38.9408 7.25433 38.6526C7.27354 38.4123 7.36002 37.0767 7.45611 35.6739L7.61946 33.1276L7.26394 28.8037C7.06215 26.4207 6.85076 23.8744 6.79311 23.1346C6.62016 21.1072 6.77389 19.7427 7.39846 17.9555C7.50415 17.6384 7.58102 17.379 7.57141 17.3694C7.51376 17.3213 7.11981 17.1292 7.08137 17.1292C7.06215 17.1292 6.80272 17.4655 6.51446 17.869Z" fill="#F7B70B"/>
<path d="M38.4931 18.9747C38.4162 19.0996 34.6496 25.941 30.1239 34.1852L21.8893 49.1748L22.7637 50.0107C24.1281 51.3175 26.2708 52.9606 27.6833 53.7773L28.1253 54.0271H38.6276H49.1299L50.2253 53.2969C50.8306 52.9029 51.7434 52.2399 52.2527 51.8267C53.1847 51.0773 55.2506 49.242 55.2506 49.1651C55.2506 49.1363 55.1929 49.021 55.1161 48.9057C54.799 48.4061 39.2041 19.9836 39.2041 19.9067C39.2041 19.8587 43.5184 19.8203 49.8217 19.8203H60.4393V20.1854C60.4393 20.3872 59.9684 26.4791 59.3823 33.7144C58.8058 40.9497 58.1812 48.8384 57.9891 51.2406C57.8065 53.6428 57.6047 55.9969 57.5471 56.4773C57.2492 58.8891 56.2307 60.6283 54.6645 61.397L54.0303 61.7141H45.248H36.4656L35.9852 61.9447C35.351 62.2329 34.8322 62.8191 34.6496 63.4532C34.4574 64.0778 34.4574 64.0586 34.6496 64.6831C34.8226 65.2693 35.3126 65.865 35.8795 66.1629L36.2735 66.3743L61.5923 66.4031C89.6496 66.4223 87.3916 66.48 88.1891 65.7977C88.708 65.3461 88.9866 64.7408 88.9866 64.0874C88.9866 63.2034 88.5735 62.5116 87.7375 62.0215L87.2955 61.7621L78.1192 61.7141L68.9429 61.666L68.3664 61.3778C66.8771 60.6283 65.8489 58.8603 65.5415 56.5254C65.4838 56.0738 65.2436 53.1816 65.0034 50.0876C64.7536 46.9936 64.1194 38.9415 63.5813 32.1866C63.0336 25.4317 62.6108 19.8875 62.6397 19.8587C62.6589 19.8395 67.4344 19.8203 73.2476 19.8203C83.2695 19.8203 83.8076 19.8299 83.7403 19.9836C83.7115 20.0797 80.089 26.6809 75.6882 34.6561L67.7034 49.1651L68.5202 49.9242C72.6903 53.8253 77.1584 56.1603 81.7513 56.8233C82.9428 56.9962 83.4328 57.025 84.8933 56.977C86.7478 56.9193 87.7183 56.7752 89.4286 56.3332C93.176 55.3435 97.3173 52.9414 100.344 50.0011L101.19 49.1748L99.6234 46.3402C98.7586 44.7836 94.9824 37.9422 91.2351 31.1297L84.4225 18.7633H61.525H38.6276L38.4931 18.9747ZM46.0647 34.56C50.1676 42.0067 53.521 48.1178 53.521 48.137C53.521 48.1562 46.795 48.1658 38.5699 48.1658C30.3449 48.1658 23.6381 48.1274 23.6573 48.089C23.7534 47.8488 38.5603 20.9733 38.5795 20.9925C38.5988 21.0117 41.9618 27.1132 46.0647 34.56ZM92.0518 34.7425L99.4313 48.1178L84.4802 48.1466C76.2647 48.1562 69.5195 48.1466 69.5002 48.1274C69.481 48.1082 72.8248 41.9779 76.9277 34.5215C83.9325 21.7997 84.4129 20.9637 84.5378 21.1559C84.6147 21.2616 87.9969 27.3823 92.0518 34.7425Z" fill="#F7B70B"/>
<path d="M120.781 33.4844C120.781 34.8489 120.637 36.4247 120.406 37.5585C120.224 38.4617 119.868 39.4418 118.552 42.7376C117.61 45.0821 116.649 47.686 116.37 48.6181C116.255 49.0024 116.015 50.1939 115.832 51.2605C115.506 53.2494 115.304 54.2584 115.256 54.2007C115.246 54.1815 115.265 53.7587 115.304 53.2591C115.429 51.5583 115.198 49.3003 114.718 47.4939C114.151 45.3703 113.488 43.9675 111.393 40.4795C109.606 37.4913 109.385 37.0781 109.058 36.1749C108.866 35.6368 108.818 35.5791 108.568 35.5791C108.424 35.5791 108.28 35.608 108.261 35.6464C108.174 35.7905 108.386 38.5194 108.578 39.9511C109.116 43.7945 109.76 46.5906 110.951 50.2323C112.191 54.047 112.661 55.9303 112.911 58.0346C113.017 58.9089 112.979 60.7634 112.854 61.1862C112.806 61.3399 112.854 61.4072 113.084 61.4841L113.363 61.5994L114.016 60.5808C114.823 59.3317 115.967 57.7559 117.072 56.3723C120.646 51.9331 122.433 47.1095 122.578 41.4885C122.654 38.5866 122.414 36.4055 121.722 33.6286L121.415 32.4083H121.098H120.781V33.4844Z" fill="#F7B70B"/>
<path d="M1.0946 33.9833C0.998512 34.2812 0.671818 35.7225 0.537297 36.4431C0.08569 38.8933 -0.0392225 42.487 0.239428 44.7066C0.863991 49.6935 2.70885 53.8733 6.06227 57.8705C7.33062 59.3886 9.24274 61.9541 9.77121 62.8574C9.78082 62.8766 9.92495 62.8381 10.0883 62.7709C10.2805 62.694 10.3669 62.5979 10.3381 62.5114C10.2997 62.4346 10.2324 61.9638 10.1748 61.4737C9.93456 59.3982 10.4726 56.4292 12.0581 51.1924C12.8556 48.5212 13.2015 47.0511 13.6339 44.4183C14.0471 41.9201 14.22 40.2962 14.2873 38.4513L14.3449 36.8563L14.1143 36.7987C13.7588 36.7026 13.7588 36.7026 13.6147 37.183C13.3841 37.9709 12.9517 38.8069 11.5392 41.2955C9.92495 44.1109 9.27156 45.3792 8.81035 46.6283C7.80144 49.3476 7.39788 52.5377 7.73418 55.2281C7.84948 56.1505 7.57083 55.0071 7.10962 52.7106C6.59075 50.0682 6.25445 49.0593 4.80354 45.6194C2.52629 40.229 2.41098 39.9311 2.17077 38.778C1.91133 37.5481 1.72877 35.857 1.72877 34.704V33.9641L1.4309 33.9257C1.26755 33.8968 1.12342 33.9257 1.0946 33.9833Z" fill="#F7B70B"/>
<path d="M108.53 50.905C107.579 54.0182 107.021 58.1019 106.704 64.4051C106.493 68.4888 106.262 70.6796 105.878 72.2266C105.772 72.6398 105.388 73.7351 105.013 74.6576C104.379 76.2622 104.35 76.3487 104.504 76.5217C104.59 76.6274 104.725 76.7042 104.792 76.7042C104.965 76.7042 109.991 73.3316 111.48 72.217C117.322 67.8258 120.522 63.9535 122.03 59.4375C122.818 57.0737 123.154 54.3737 122.933 52.2118C122.866 51.6352 122.866 51.6256 122.568 51.6256C122.29 51.6256 122.251 51.6641 122.088 52.1253C121.771 53.0381 120.925 54.8253 120.378 55.7573C119.446 57.3332 118.667 58.3421 117.178 59.8795C115.775 61.3304 114.862 62.4161 113.757 63.9247C112.95 65.0297 111.172 67.6048 110.442 68.729C109.625 69.9878 109.049 70.7661 108.982 70.6988C108.953 70.67 109.068 70.4586 109.241 70.2184C109.943 69.2383 110.538 67.5856 110.836 65.7504C111.028 64.5589 111.057 61.4265 110.894 59.9852C110.836 59.4855 110.481 57.41 110.106 55.373C109.731 53.336 109.404 51.3566 109.366 50.9626C109.299 50.2804 109.28 50.242 109.039 50.1747C108.77 50.1075 108.77 50.1171 108.53 50.905Z" fill="#F7B70B"/>
<path d="M13.7212 51.4029C13.577 51.4413 13.5482 51.5566 13.5482 52.0851C13.5482 52.4406 13.2888 54.3527 12.9813 56.3321C12.2414 61.0019 12.1742 61.7418 12.2318 64.2304C12.2799 66.3828 12.3856 67.2091 12.8372 68.7273C13.0966 69.5824 13.7308 70.9469 14.019 71.2736C14.1151 71.3793 14.2689 71.5906 14.365 71.754C14.7109 72.3497 13.8461 71.312 13.0005 70.0917C9.73358 65.4411 8.41719 63.7884 6.23602 61.5688C4.36233 59.6759 3.97799 59.2147 3.08438 57.8887C2.42138 56.9086 1.31639 54.8235 0.912823 53.805C0.691824 53.2669 0.614955 53.1612 0.422781 53.1612C0.0768693 53.1612 0 53.4399 0 54.6506C0 57.5716 0.586129 60.0795 1.87369 62.7315C4.24703 67.5934 8.45562 71.5138 16.9593 76.7505C17.7952 77.2694 18.5639 77.7114 18.66 77.7402C18.7561 77.7594 18.9195 77.7114 19.0155 77.6249C19.1885 77.4615 19.1693 77.4039 18.4775 75.8088C18.0835 74.896 17.6799 73.8487 17.5839 73.4835C17.1419 71.8885 16.8248 69.4671 16.5269 65.3642C16.0849 59.503 15.5276 55.8805 14.5571 52.5559C14.1824 51.2972 14.1728 51.2876 13.7212 51.4029Z" fill="#F7B70B"/>
<path d="M103.936 63.8363C103.033 64.7491 102.226 65.979 101.274 67.9104C100.611 69.246 100.285 70.1299 98.7376 74.7517C97.7575 77.6727 96.7582 80.5265 96.518 81.0934C95.5379 83.3611 94.1062 85.8593 93.2895 86.7145C92.8859 87.1469 92.8475 87.243 93.0397 87.4928C93.1454 87.6465 93.2415 87.6273 94.3561 87.3198C96.3835 86.7433 98.065 86.3398 100.121 85.9266C105.358 84.8792 109.413 82.7269 112.949 79.0948C115.524 76.4524 117.321 73.4642 118.628 69.6687L118.849 69.0153L118.637 68.8712C118.522 68.7943 118.407 68.7271 118.368 68.7271C118.33 68.7271 117.695 69.4285 116.956 70.2837C114.717 72.8972 113.497 73.9734 111.7 74.9343C107.53 77.1539 100.592 81.5546 98.9202 83.0344C98.7664 83.1689 98.8721 83.0056 99.1604 82.6789C101.755 79.6617 103.148 76.4621 103.628 72.4072C104.157 67.9392 104.416 66.3057 104.878 64.4993L105.108 63.5865L104.878 63.3558L104.647 63.1252L103.936 63.8363Z" fill="#F7B70B"/>
<path d="M18.3145 64.4904C18.1512 64.6729 18.1512 64.7306 18.4298 65.8164C18.9295 67.7381 19.4387 70.5534 19.6982 72.7634C20.2074 77.1738 21.9178 80.998 24.5601 83.6693C24.8676 83.9863 25.031 84.1785 24.9253 84.1016C24.81 84.0248 24.2815 83.6404 23.753 83.2657C21.2355 81.4497 17.0269 78.9418 12.4916 76.5588C9.49374 74.983 8.79231 74.3969 5.32358 70.4766C5.05453 70.1691 5.0161 70.1499 4.7951 70.2652C4.67019 70.3324 4.55488 70.3997 4.54527 70.4093C4.48762 70.4477 5.03532 71.9083 5.48692 72.946C7.74496 78.029 11.3866 81.9493 16.1718 84.4379C18.6412 85.7255 20.7455 86.4173 23.5897 86.8978C25.5018 87.2148 27.2506 87.5896 29.2011 88.0892C29.9122 88.2718 30.5463 88.4255 30.604 88.4255C30.6713 88.4255 30.7673 88.3198 30.825 88.1949C30.9115 87.9931 30.8923 87.9355 30.6328 87.6953C30.1908 87.2725 29.2876 86.033 28.663 84.9856C27.4908 82.987 26.674 81.0941 25.079 76.6549C24.2334 74.272 23.3591 71.8506 23.1477 71.2741C22.6672 69.9673 21.716 68.1224 20.8704 66.8541C20.2651 65.9413 18.7949 64.3078 18.5835 64.3078C18.5259 64.3078 18.401 64.3943 18.3145 64.4904Z" fill="#F7B70B"/>
<path d="M95.7502 76.4335C94.6644 77.0004 93.2807 78.336 90.4366 81.5549C88.1497 84.1396 85.565 86.7243 84.4408 87.5603C82.8842 88.7229 79.7614 90.2795 78.1471 90.6927C77.4745 90.8657 77.4457 90.8753 77.4457 91.1635V91.4518L81.7023 92.2974C84.0372 92.7586 86.8814 93.3543 88.0152 93.6234C90.0426 94.1038 90.1099 94.1134 91.9548 94.1614C93.3864 94.1999 94.0975 94.171 94.9623 94.0557C98.6808 93.5369 102.303 91.9995 105.023 89.7991C106.464 88.6269 108.136 86.782 109.058 85.3503L109.375 84.8603L109.173 84.6489L108.972 84.4471L108.414 84.8891C106.022 86.7628 102.899 88.0119 99.4495 88.4731C98.8442 88.55 97.3068 88.6557 96.0384 88.7133C93.3384 88.819 90.7633 89.1361 87.3042 89.7799C86.7373 89.8856 86.2472 89.9529 86.228 89.9336C86.2088 89.9144 86.5643 89.7607 87.0351 89.5781C88.8223 88.9055 89.764 88.3002 90.9074 87.1087C92.3871 85.5617 93.7324 83.2268 95.3754 79.3545C95.8751 78.1822 96.3651 77.1157 96.4708 76.9716C96.6246 76.7698 96.6438 76.6641 96.5669 76.4623C96.4516 76.174 96.2594 76.1644 95.7502 76.4335Z" fill="#F7B70B"/>
<path d="M26.9512 77.3853C26.9032 77.6063 26.932 77.7312 27.0761 77.885C27.1818 78.0003 27.643 78.9323 28.0946 79.9412C29.8434 83.8712 31.0445 85.9274 32.5723 87.5897C33.6965 88.8196 34.7919 89.5114 36.6175 90.1648C37.6649 90.5396 38.0684 90.7221 37.5688 90.6068C37.1652 90.5107 34.004 90.0591 32.2552 89.8573C31.2367 89.7324 29.4879 89.6267 27.7199 89.5787C24.7316 89.4922 23.8668 89.4153 22.243 89.0887C19.9369 88.6178 17.3714 87.5321 15.613 86.2637L14.7482 85.6488L14.5368 85.8505C14.2774 86.0908 14.2774 86.0811 15.1614 87.2534C18.3419 91.4428 23.175 94.1428 28.7961 94.8731C29.8818 95.0076 32.5434 95.0076 33.3986 94.8539C33.7637 94.7962 35.1474 94.4695 36.4638 94.1428C38.4816 93.6239 46.1301 91.8848 46.3511 91.8848C46.3895 91.8848 46.4087 91.7503 46.3895 91.5773C46.3607 91.289 46.3415 91.2698 45.544 91.068C44.3813 90.7702 43.603 90.4531 41.7581 89.521C40.0094 88.6467 39.6346 88.4064 38.5296 87.5224C37.7417 86.8883 34.9264 84.1018 31.7267 80.7579C29.7377 78.6921 28.527 77.6351 27.7199 77.27C27.1722 77.0202 27.0281 77.0394 26.9512 77.3853Z" fill="#F7B70B"/>
<path d="M67.4528 91.1258C66.2614 91.2507 64.5126 91.6062 63.0617 92.0194L61.899 92.3557L61.236 92.1635C60.3617 91.9137 58.6705 91.5486 57.604 91.3852C56.3068 91.1931 52.963 91.2219 51.6466 91.4429C49.8113 91.7407 49.2348 91.9329 45.1031 93.6721C36.4649 97.2946 36.3208 97.3426 33.2556 97.5732C30.3538 97.7846 27.5673 97.333 25.7609 96.3433C25.1843 96.0262 25.1459 96.0166 24.9729 96.1703C24.7519 96.3625 24.7423 96.4874 24.9249 96.6316C24.9922 96.6892 25.463 97.0639 25.953 97.4675C29.8734 100.658 34.1396 102.108 38.598 101.772C40.0585 101.666 40.9618 101.484 42.2301 101.061C44.5266 100.302 47.1209 98.7743 49.648 96.6988C51.7715 94.9693 52.079 94.7386 52.9438 94.2966C53.9335 93.7874 54.7886 93.4895 55.6726 93.3358C56.6239 93.1628 59.2951 93.2205 59.2855 93.4127C59.2759 93.4415 58.9492 93.624 58.536 93.8066C56.1146 94.9116 52.6747 97.2561 49.869 99.7255C48.6679 100.782 45.9967 103.492 46.0447 103.598C46.064 103.646 46.6405 104.194 47.3323 104.837L48.6006 106L49.3693 105.106C51.4832 102.656 54.7502 99.4085 56.9794 97.554C58.4784 96.2953 60.1983 95.0846 61.409 94.412L61.9471 94.1141L62.8119 94.5657C63.888 95.1422 65.6368 96.3241 67.0205 97.4195C69.2593 99.1971 72.4686 102.214 74.4864 104.443C75.0821 105.097 75.5914 105.616 75.6298 105.606C75.6586 105.587 76.2448 105.049 76.9174 104.405L78.1377 103.233L77.5515 102.57C76.8885 101.82 74.8419 99.9465 73.6024 98.9376C70.9696 96.8045 67.8948 94.8443 65.435 93.749C64.9834 93.5472 64.5991 93.3742 64.5799 93.355C64.4742 93.2781 64.7048 93.2301 65.7137 93.1244C68.5771 92.8073 71.0849 93.6721 73.6024 95.8244C74.9572 96.9871 77.4555 98.6205 79.2427 99.5142C81.5103 100.648 83.2207 101.09 85.6613 101.176C90.2734 101.349 94.261 99.812 98.3255 96.3145C98.7867 95.9205 99.1614 95.565 99.1614 95.5266C99.1614 95.4881 99.0846 95.3632 98.9789 95.2383L98.8059 95.0269L98.508 95.2383C96.8457 96.4202 93.3194 97.0639 89.9563 96.7949C87.362 96.5931 87.4677 96.6219 78.1665 92.9899C74.7554 91.6639 74.2366 91.4909 72.6896 91.2507C71.5846 91.0777 68.6347 91.0009 67.4528 91.1258Z" fill="#F7B70B"/>
</svg>
