<svg width="76" height="100" viewBox="0 0 76 100" fill="none" xmlns="http://www.w3.org/2000/svg">
<path d="M34.6488 0.0545082C34.3187 0.10453 32.2278 0.504696 29.9969 0.944879C20.583 2.81565 4.32623 5.91694 0.314562 6.62723C-0.0755996 6.68726 -0.0956079 6.75729 0.214521 7.0274C0.724732 7.49759 0.174504 7.33753 10.5888 10.0386C13.1499 10.7089 19.0723 12.2496 23.7443 13.4701C33.9185 16.1212 34.0485 16.1512 35.8093 16.2312C37.8901 16.3213 37.65 16.3713 48.5045 13.5701C51.2857 12.8498 55.5875 11.7394 58.0585 11.0991C69.9134 8.03782 72.5745 7.34753 72.7046 7.30752C72.9047 7.22748 72.6446 6.95737 72.1644 6.74728C71.7142 6.5572 71.7142 6.55721 60.6596 4.41632C45.2132 1.42508 40.6413 0.554716 39.1807 0.304613C37.54 0.0345001 35.5692 -0.0755444 34.6488 0.0545082Z" fill="#F7B70B"/>
<path d="M64.2411 10.3088C64.131 10.3888 63.951 10.6489 63.8509 10.879C63.6709 11.2792 63.6608 11.6393 63.6608 16.2212V21.1333L63.0806 22.2637C62.7405 22.934 62.5104 23.5142 62.5104 23.7043C62.5104 23.8744 62.6104 24.2946 62.7305 24.6147C62.9205 25.1249 62.9506 25.405 62.9506 26.4655C62.9406 27.5659 62.8905 27.8761 62.5804 29.0665C61.56 32.9081 61.3999 33.7285 61.55 34.2987C61.66 34.7489 61.9902 34.7989 64.6613 34.7489C66.0018 34.7289 67.1223 34.6889 67.1523 34.6589C67.1823 34.6389 66.7721 32.8881 66.2519 30.7773C65.6417 28.2962 65.3115 26.7456 65.3115 26.3954C65.3115 25.9853 65.4116 25.5851 65.7217 24.8348C66.2719 23.4742 66.2719 23.1241 65.7317 22.5138C64.9714 21.6535 64.9714 21.6535 64.9614 16.0612C64.9514 13.34 64.9114 10.899 64.8613 10.6289C64.7813 10.1187 64.6313 10.0387 64.2411 10.3088Z" fill="#F7B70B"/>
<path d="M17.4116 13.8803C17.4517 14.3405 17.6217 16.1713 17.7918 17.962C18.1019 21.2834 18.222 21.9236 18.6622 22.804C19.5225 24.5047 22.8839 26.6156 26.8856 27.9862C34.3487 30.5272 42.8022 29.8969 49.605 26.3055C52.056 25.0049 53.5866 23.7944 54.1369 22.704C54.6971 21.5935 54.8272 20.6831 55.0072 16.3613C55.0673 14.9608 55.1373 13.7102 55.1673 13.5802C55.1973 13.4401 55.1673 13.3601 55.0773 13.3601C54.9072 13.3601 51.996 14.0304 49.8551 14.5706C46.6038 15.3809 42.8822 16.4114 39.1707 17.5218C37.8101 17.922 37.59 17.962 36.6196 17.962C35.9593 17.962 35.209 17.882 34.6488 17.7719C33.9185 17.6119 24.8347 15.1208 18.7922 13.4101C18.1019 13.22 17.4917 13.06 17.4417 13.06C17.3616 13.06 17.3616 13.3301 17.4116 13.8803Z" fill="#F7B70B"/>
<path d="M53.2565 25.4351C52.1461 26.3455 49.485 27.8961 47.8043 28.6164C38.9106 32.418 28.4762 31.5276 20.683 26.3055C18.8322 25.0649 18.7322 25.115 18.4321 27.2759C18.192 28.9666 18.182 32.1679 18.4221 33.4184C19.1524 37.31 20.773 40.4813 23.4442 43.2525C25.0748 44.9432 26.3554 45.9036 28.2962 46.874C33.5483 49.5051 40.5012 49.2049 45.6834 46.1237C52.3461 42.162 55.7275 33.9486 53.9068 26.1854C53.7867 25.6852 53.6567 25.245 53.6267 25.225C53.5867 25.205 53.4166 25.295 53.2565 25.4351Z" fill="#F7B70B"/>
<path d="M34.3987 50.0853C33.7384 50.1854 33.4583 50.3254 32.9981 50.7356C32.3879 51.2858 32.1578 51.796 32.1578 52.5763C32.1578 53.6668 32.778 54.5472 33.8485 54.9773C34.8189 55.3675 35.099 56.2979 34.7589 57.9786C34.4887 59.2891 34.2586 59.8794 33.1882 62.0303C32.0677 64.2812 31.8476 64.9915 31.9277 66.0019C31.9977 66.7922 32.2478 67.4325 33.9285 70.934C35.9694 75.2257 35.7893 74.8856 36.0894 74.8856C36.4396 74.8856 36.8797 74.5755 37.1899 74.1153C37.55 73.5751 40.021 68.2929 40.3112 67.4325C40.5112 66.8523 40.5513 66.5321 40.5513 65.5817C40.5513 64.2412 40.4312 63.881 39.3408 61.8802C38.2003 59.7993 37.8601 58.5388 37.9202 56.628C37.9502 55.3275 38.0002 55.2375 38.8005 54.9473C40.5713 54.2971 41.0615 52.1462 39.7409 50.8356C39.1107 50.2054 38.6905 50.0953 36.5996 50.0553C35.6392 50.0253 34.6488 50.0453 34.3987 50.0853Z" fill="#F7B70B"/>
<path d="M52.1761 100C50.2453 98.8495 41.4696 93.2742 40.5513 85.3309C39.936 80.0067 41.1885 75.2047 44.5029 70.1676C47.0009 66.371 51.0196 64.3382 54.316 63.904C57.3892 63.4998 59.7232 63.7129 61.2258 64.1501C62.2763 64.4562 63.1836 64.6363 63.1836 64.6363C63.1836 64.6363 62.0362 62.0162 59.3821 58.3117C59.3791 58.3077 59.3761 58.3047 59.3731 58.3017C57.4313 56.624 57.4293 56.623 55.0663 55.3875C52.8754 54.287 51.1647 53.9569 49.8841 54.3771C49.2038 54.5972 48.5136 55.1474 48.0334 55.8477C47.8633 56.0878 46.6628 58.3287 45.3722 60.8097C41.8308 67.6326 41.6307 68.0027 39.2397 72.5846C38.0192 74.9256 36.9488 76.8964 36.8587 76.9564C36.6286 77.1465 36.1884 77.1165 35.7583 76.8964C34.998 76.5062 34.6078 75.936 33.2372 73.2849C32.5069 71.8843 31.6366 70.1936 31.2864 69.5334C30.9463 68.8731 29.1855 65.4717 27.3848 61.9802C23.7733 55.0073 23.7733 54.9973 22.6628 54.5771C21.4423 54.107 19.3815 54.3471 17.5907 55.1574C9.75748 58.6889 3.775 66.9623 2.66454 75.7759C2.41443 77.7968 2.60751 98.8835 3.86804 99.0536C4.94848 99.2037 12.4616 99.4748 16.4733 99.6849C23.4562 100.045 23.8053 99.998 34.0896 99.998" fill="#F7B70B"/>
<path d="M57.3932 65.3536C55.3504 65.5317 53.9038 65.8488 52.3061 66.4791C48.6116 67.9337 45.2262 71.071 43.4044 74.7305C42.5571 76.4362 42.0659 78.1309 41.8148 80.2428C41.7177 81.0712 41.7177 83.3221 41.8148 84.1504C42.0118 85.7941 42.333 87.1027 42.8752 88.4832C44.3298 92.1778 47.4671 95.5632 51.1266 97.3849C52.8323 98.2323 54.527 98.7235 56.6389 98.9746C57.4672 99.0716 59.7182 99.0716 60.5465 98.9746C63.0616 98.6725 65.1544 97.9802 67.1423 96.7927C69.3362 95.4771 71.413 93.4693 72.8366 91.2834C74.2992 89.0435 75.0766 86.8115 75.3897 83.9564C75.4667 83.2371 75.4557 80.9771 75.3707 80.2428C75.1776 78.6061 74.8525 77.2916 74.3102 75.91C72.8556 72.2155 69.7183 68.8301 66.0588 67.0083C64.3641 66.165 62.6464 65.6698 60.5845 65.4257C60.0703 65.3656 57.8464 65.3146 57.3932 65.3536ZM57.2812 70.0306C56.875 70.8589 56.5419 71.5702 56.5419 71.6162C56.5419 71.7823 56.786 72.8928 56.828 72.9198C56.851 72.9348 57.0411 72.9508 57.2502 72.9508H57.6253V77.4967V82.0466L57.0841 83.006C56.786 83.5322 56.5429 83.9964 56.5429 84.0384C56.5429 84.0924 56.7089 84.2165 57.1421 84.4876L57.7384 84.8667H58.6047C59.224 84.8667 59.4791 84.8547 59.5141 84.8207C59.5491 84.7857 59.5601 84.4646 59.5601 83.6102V82.4417L60.7976 80.2988C61.4789 79.1193 62.0552 78.1519 62.0742 78.1439C62.0932 78.1359 62.2522 78.21 62.4263 78.306C62.6004 78.4021 62.7624 78.4841 62.7864 78.4841C62.8525 78.4841 63.4677 77.9459 63.4677 77.8918C63.4677 77.8418 63.5298 76.7894 63.5648 76.2592C63.6458 74.9356 63.7038 73.7911 63.6928 73.6281C63.6848 73.485 63.6658 73.431 63.6158 73.423C63.5808 73.415 62.7184 73.9612 61.697 74.6295L59.8442 75.852L59.7632 76.2662C59.7052 76.5483 59.6902 76.6913 59.7172 76.7224C59.7402 76.7494 59.8953 76.8504 60.0653 76.9504C60.2354 77.0475 60.3745 77.1435 60.3745 77.1635C60.3745 77.1905 59.6241 78.5021 59.5771 78.5561C59.5691 78.5641 59.5621 77.3066 59.5621 75.763V72.9508H59.9413C60.1464 72.9508 60.3354 72.9358 60.3594 72.9198C60.4025 72.8928 60.6456 71.7823 60.6456 71.6162C60.6456 71.5702 60.3164 70.8579 59.9103 70.0376C59.5081 69.2132 59.175 68.537 59.175 68.533C59.175 68.518 59.4461 68.533 60.0263 68.583C61.4999 68.707 63.2566 69.1822 64.4361 69.7785C64.6642 69.8945 64.6722 69.9025 64.6182 69.9836C64.2971 70.4828 63.4998 72.0724 63.5308 72.1505C63.5578 72.2165 64.7072 72.8898 64.7993 72.8898C64.8883 72.8938 65.4496 72.0924 65.9138 71.3071C66.0648 71.052 66.1959 70.8349 66.1999 70.8269C66.2229 70.8039 66.591 71.059 66.9662 71.3611C67.8486 72.0654 68.6759 72.8858 69.3682 73.7441C69.6623 74.1113 69.9674 74.5334 69.9674 74.5755C69.9674 74.5875 69.8514 74.6645 69.7083 74.7455C69.3212 74.9656 67.9206 75.902 67.9016 75.952C67.8786 76.0101 68.5749 77.2366 68.6439 77.2636C68.6709 77.2716 69.035 77.1085 69.4562 76.9004C70.1445 76.5563 70.3886 76.4282 70.7678 76.1921L70.8918 76.1191L71.0119 76.3552C71.4641 77.2526 71.9132 78.6882 72.0913 79.8176C72.1683 80.3048 72.2504 81.0281 72.2504 81.2142V81.3073H71.7202C71.1549 81.3113 69.8054 81.4003 69.7353 81.4423C69.6813 81.4733 69.6813 82.9199 69.7353 82.9509C69.8054 82.994 71.1549 83.082 71.7202 83.086H72.2504V83.179C72.2504 83.3651 72.1693 84.0884 72.0913 84.5756C71.9132 85.7011 71.4651 87.1407 71.0119 88.034L70.8958 88.2661L70.5597 88.0691C70.0565 87.7749 68.6869 87.1057 68.6219 87.1177C68.5488 87.1327 67.8245 88.3672 67.8596 88.4212C67.9026 88.4912 69.1671 89.3346 69.5733 89.5627C69.7904 89.6867 69.9674 89.7988 69.9674 89.8138C69.9674 89.8598 69.6733 90.27 69.3682 90.6491C68.6869 91.4925 67.8676 92.3128 67.0082 93.0011C66.6641 93.2762 66.2539 93.5693 66.2149 93.5693C66.1999 93.5693 66.0758 93.3723 65.9368 93.1322C65.6737 92.68 64.8883 91.4995 64.8183 91.4605C64.7723 91.4295 63.5568 92.1337 63.5258 92.2068C63.5068 92.2608 64.149 93.5723 64.4702 94.1216C64.5782 94.3106 64.6672 94.4697 64.6672 94.4817C64.6672 94.5087 64.203 94.7288 63.7849 94.9029C62.6514 95.3671 61.3559 95.6802 60.0673 95.8123C59.8472 95.8313 59.6261 95.8513 59.5761 95.8513H59.4831V95.3171C59.4831 94.7488 59.3901 93.4063 59.348 93.3402C59.313 93.2822 57.8744 93.2822 57.8394 93.3402C57.7964 93.4063 57.7043 94.7488 57.7043 95.3171V95.8513H57.6113C57.4252 95.8513 56.7019 95.7703 56.2147 95.6922C55.0893 95.5141 53.6497 95.066 52.7563 94.6128L52.5242 94.4967L52.7833 94.0405C53.1395 93.4333 53.6967 92.2728 53.6697 92.2068C53.6427 92.1337 52.4162 91.4295 52.3661 91.4605C52.3001 91.4995 51.5148 92.683 51.2517 93.1322C51.1126 93.3723 50.9886 93.5693 50.9736 93.5693C50.9345 93.5693 50.5244 93.2752 50.1802 93.0011C49.3219 92.3128 48.5015 91.4925 47.8202 90.6491C47.5151 90.27 47.221 89.8598 47.221 89.8138C47.221 89.7988 47.3991 89.6857 47.6192 89.5627C48.0213 89.3346 49.2869 88.4912 49.3289 88.4212C49.3639 88.3672 48.6406 87.1327 48.5666 87.1177C48.5005 87.1057 47.131 87.7749 46.6288 88.0691L46.2926 88.2661L46.1766 88.034C45.7244 87.1407 45.2752 85.7011 45.0971 84.5756C45.0201 84.0884 44.9381 83.3651 44.9381 83.179V83.086H45.4523C46.0055 83.086 47.3441 82.993 47.4101 82.9509C47.4681 82.9159 47.4681 81.4773 47.4101 81.4423C47.3441 81.3993 46.0055 81.3073 45.4523 81.3073H44.9381V81.2142C44.9381 81.0281 45.0191 80.3048 45.0971 79.8176C45.2752 78.6882 45.7234 77.2526 46.1766 76.3552C46.3116 76.0881 46.2426 76.0801 46.7958 76.4092C46.9779 76.5133 47.4461 76.7574 47.8403 76.9474C48.5445 77.2876 48.5556 77.2916 48.6176 77.2106C48.7566 77.0405 49.3179 76.0041 49.2989 75.953C49.2718 75.887 48.1534 75.1327 47.6272 74.8276C47.4141 74.7035 47.233 74.5955 47.225 74.5915C47.202 74.5685 47.4571 74.2003 47.7592 73.8252C48.4635 72.9428 49.2839 72.1154 50.1422 71.4232C50.5094 71.129 50.9315 70.8239 50.9736 70.8239C50.9856 70.8239 51.0626 70.94 51.1436 71.083C51.3637 71.4702 52.3001 72.8708 52.3501 72.8898C52.4081 72.9128 53.6347 72.2165 53.6577 72.1505C53.6887 72.0694 52.8913 70.4828 52.5702 69.9836C52.5162 69.9025 52.5242 69.8945 52.7523 69.7785C53.9318 69.1822 55.6765 68.711 57.1621 68.579C57.6573 68.536 57.9865 68.517 58.0055 68.525C58.0125 68.53 57.6833 69.2072 57.2812 70.0306Z" fill="#F7B70B"/>
</svg>
