<svg width="1920" height="1302" viewBox="0 0 1920 1302" fill="none" xmlns="http://www.w3.org/2000/svg">
<path d="M-377.154 1208.61C129.28 1364.9 336.392 713.264 636.701 605.375C1069.5 449.903 1339.42 930.124 1486.35 637.316C1633.28 344.508 1776.24 84.8023 2092.64 392.886C2409.03 700.969 2532.94 452.87 2532.94 452.87" stroke="#F7B70B" stroke-opacity="0.1" stroke-width="0.6482" stroke-miterlimit="10"/>
<path d="M2529.73 443.554C2525.57 443.188 2397.12 699.996 2082.87 400.14C1768.62 100.285 1625.73 338.779 1476.92 627.496C1327.53 916.478 1065.63 464.64 629.456 619.873C327.507 727.447 116.901 1347.44 -381.052 1191.82" stroke="#F7B70B" stroke-opacity="0.1" stroke-width="0.6553" stroke-miterlimit="10"/>
<path d="M2526.5 434.298C2518.17 433.566 2385.14 699.081 2073.07 407.455C1761 115.828 1618.17 333.11 1467.45 617.736C1315.6 902.89 1061.75 479.407 622.18 634.43C318.623 741.661 104.493 1329.95 -384.919 1175.04" stroke="#F7B70B" stroke-opacity="0.1" stroke-width="0.6623" stroke-miterlimit="10"/>
<path d="M2523.3 425.012C2510.81 423.913 2373.22 698.138 2063.3 414.739C1753.38 131.341 1610.62 327.411 1457.99 607.975C1303.65 889.303 1057.88 494.204 614.904 648.987C309.737 755.844 92.1136 1312.5 -388.818 1158.23" stroke="#F7B70B" stroke-opacity="0.1" stroke-width="0.6694" stroke-miterlimit="10"/>
<path d="M2520.06 415.725C2503.44 414.261 2361.25 697.194 2053.51 422.024C1745.77 146.854 1603.7 322.077 1448.52 598.185C1292.36 876.021 1054.04 508.941 607.629 663.544C300.854 770.058 79.7065 1295.04 -392.684 1141.45" stroke="#F7B70B" stroke-opacity="0.1" stroke-width="0.6764" stroke-miterlimit="10"/>
<path d="M2516.83 406.469C2496.04 404.608 2349.3 696.28 2043.71 429.338C1738.15 162.367 1596.27 316.469 1439.06 588.424C1280.58 862.525 1050.17 523.737 600.353 678.071C291.969 784.241 67.3276 1277.56 -396.552 1124.66" stroke="#F7B70B" stroke-opacity="0.1" stroke-width="0.6835" stroke-miterlimit="10"/>
<path d="M2513.63 397.183C2488.67 394.956 2337.36 695.336 2033.94 436.623C1730.53 177.88 1588.87 310.861 1429.59 578.633C1268.78 848.998 1046.3 538.474 593.077 692.598C283.084 798.455 54.9187 1260.1 -400.45 1107.85" stroke="#F7B70B" stroke-opacity="0.1" stroke-width="0.6905" stroke-miterlimit="10"/>
<path d="M2510.39 387.896C2481.28 385.304 2325.41 694.392 2024.15 443.877C1722.88 193.362 1581.43 305.253 1420.13 568.843C1256.97 835.472 1042.43 553.241 585.802 707.125C274.199 812.668 42.5412 1242.61 -404.317 1091.07" stroke="#F7B70B" stroke-opacity="0.1" stroke-width="0.6976" stroke-miterlimit="10"/>
<path d="M2507.16 378.61C2473.88 375.651 2313.44 693.448 2014.35 451.162C1715.26 208.905 1573.97 299.645 1410.66 559.082C1245.17 821.976 1038.56 568.008 578.525 721.683C265.283 826.851 30.1312 1225.16 -408.217 1074.29" stroke="#F7B70B" stroke-opacity="0.1" stroke-width="0.7046" stroke-miterlimit="10"/>
<path d="M2503.95 369.354C2466.51 366.029 2301.52 692.534 2004.58 458.476C1707.64 224.418 1566.54 294.067 1401.2 549.292C1233.36 808.449 1034.69 582.745 571.251 736.21C256.399 841.065 17.7539 1207.67 -412.083 1057.47" stroke="#F7B70B" stroke-opacity="0.1" stroke-width="0.7117" stroke-miterlimit="10"/>
<path d="M2500.72 360.067C2459.11 356.376 2289.54 691.59 1994.78 465.761C1700.02 239.931 1559.07 288.458 1391.73 539.501C1221.53 794.923 1030.82 597.511 564.004 750.767C247.544 855.248 5.37484 1190.21 -415.951 1040.69" stroke="#F7B70B" stroke-opacity="0.1" stroke-width="0.7187" stroke-miterlimit="10"/>
<path d="M2497.49 350.781C2451.74 346.724 2277.6 690.646 1984.99 473.045C1692.4 255.444 1551.61 282.85 1382.27 529.74C1209.69 781.396 1026.98 612.279 556.729 765.294C238.629 869.462 -7.03402 1172.76 -419.85 1023.91" stroke="#F7B70B" stroke-opacity="0.1" stroke-width="0.7257" stroke-miterlimit="10"/>
<path d="M2494.28 341.495C2444.38 337.072 2265.65 689.703 1975.22 480.33C1684.79 270.957 1544.11 277.241 1372.8 519.95C1197.83 767.87 1023.08 627.045 549.424 779.821C229.745 883.645 -19.4114 1155.27 -423.716 1007.1" stroke="#F7B70B" stroke-opacity="0.1" stroke-width="0.7328" stroke-miterlimit="10"/>
<path d="M2491.05 332.238C2436.98 327.419 2253.71 688.789 1965.42 487.644C1677.14 286.499 1536.62 271.633 1363.34 510.189C1185.99 754.373 1019.2 641.812 542.148 794.378C220.86 897.858 -31.8204 1137.81 -427.614 990.315" stroke="#F7B70B" stroke-opacity="0.1" stroke-width="0.7398" stroke-miterlimit="10"/>
<path d="M2487.85 322.952C2429.61 317.767 2241.76 687.845 1955.66 494.929C1669.52 301.982 1529.13 266.024 1353.9 500.399C1174.16 740.816 1015.39 656.579 534.903 808.906C211.976 912.042 -44.1981 1120.33 -431.482 973.533" stroke="#F7B70B" stroke-opacity="0.1" stroke-width="0.7469" stroke-miterlimit="10"/>
<path d="M2484.61 313.666C2422.22 308.114 2229.82 686.931 1945.86 502.213C1661.9 317.495 1521.63 260.385 1344.44 490.608C1162.26 727.289 1011.49 671.346 527.627 823.463C203.091 926.255 -56.6065 1102.87 -435.349 956.721" stroke="#F7B70B" stroke-opacity="0.1" stroke-width="0.7539" stroke-miterlimit="10"/>
<path d="M2481.38 304.409C2414.82 298.492 2217.84 686.017 1936.06 509.497C1654.28 332.978 1514.11 254.776 1334.98 480.848C1150.4 713.763 1007.65 686.113 520.383 837.99C194.207 940.439 -68.9536 1085.39 -439.216 939.938" stroke="#F7B70B" stroke-opacity="0.1" stroke-width="0.761" stroke-miterlimit="10"/>
<path d="M2478.17 295.123C2407.45 288.84 2205.9 685.073 1926.29 516.782C1646.66 348.521 1506.61 249.138 1325.51 471.057C1138.5 700.236 1003.78 700.85 513.106 852.518C185.291 954.652 -81.3938 1067.93 -443.115 923.156" stroke="#F7B70B" stroke-opacity="0.1" stroke-width="0.768" stroke-miterlimit="10"/>
<path d="M2474.94 285.837C2400.05 279.187 2193.95 684.129 1916.5 524.066C1639.04 364.034 1499.06 243.529 1316.05 461.267C1126.61 686.678 999.911 715.617 505.831 867.045C176.437 968.836 -93.7714 1050.44 -446.982 906.344" stroke="#F7B70B" stroke-opacity="0.1" stroke-width="0.7751" stroke-miterlimit="10"/>
<path d="M2471.71 276.551C2392.68 269.535 2181.97 683.185 1906.7 531.351C1631.39 379.516 1491.5 237.89 1306.58 451.476C1114.68 673.121 996.04 730.354 498.555 881.572C167.521 983.019 -106.15 1032.96 -450.88 889.531" stroke="#F7B70B" stroke-opacity="0.1" stroke-width="0.7821" stroke-miterlimit="10"/>
<path d="M2468.5 267.294C2385.32 259.912 2170.06 682.271 1896.93 538.665C1623.77 395.059 1483.95 232.25 1297.12 441.716C1102.76 659.594 992.169 745.15 491.279 896.159C158.637 997.262 -118.559 1015.53 -454.748 872.779" stroke="#F7B70B" stroke-opacity="0.1" stroke-width="0.7892" stroke-miterlimit="10"/>
<path d="M2465.27 258.008C2377.92 250.23 2158.08 681.327 1887.14 545.95C1616.16 410.572 1476.4 226.611 1287.65 431.955C1090.83 646.037 988.299 759.917 484.005 910.686C149.753 1011.45 -130.966 998.044 -458.644 855.996" stroke="#F7B70B" stroke-opacity="0.1" stroke-width="0.7962" stroke-miterlimit="10"/>
<path d="M2462.03 248.722C2370.55 240.608 2146.14 680.384 1877.34 553.234C1608.54 426.085 1468.84 220.972 1278.18 422.165C1078.9 632.479 984.427 774.654 476.728 925.213C140.867 1025.63 -143.346 980.588 -462.513 839.184" stroke="#F7B70B" stroke-opacity="0.1" stroke-width="0.8033" stroke-miterlimit="10"/>
<path d="M2458.83 239.465C2363.16 230.955 2134.19 679.47 1867.54 560.549C1600.89 441.598 1461.26 215.303 1268.72 412.374C1066.95 618.892 980.557 789.421 469.453 939.741C131.953 1039.81 -155.754 963.102 -466.41 822.372" stroke="#F7B70B" stroke-opacity="0.1" stroke-width="0.8103" stroke-miterlimit="10"/>
<path d="M2455.6 230.179C2355.76 221.302 2122.25 678.526 1857.74 567.833C1593.27 457.11 1453.67 209.663 1259.26 402.613C1054.99 605.334 976.717 804.188 462.178 954.298C123.068 1054.06 -168.132 945.645 -470.277 805.589" stroke="#F7B70B" stroke-opacity="0.1" stroke-width="0.8173" stroke-miterlimit="10"/>
<path d="M2452.39 220.893C2348.39 211.65 2110.3 677.582 1847.97 575.088C1585.65 472.623 1446.08 203.994 1249.79 392.823C1043.03 591.747 972.844 818.955 454.901 968.825C114.182 1068.24 -180.512 928.189 -474.146 788.807" stroke="#F7B70B" stroke-opacity="0.1" stroke-width="0.8244" stroke-miterlimit="10"/>
<path d="M2449.16 211.606C2340.99 201.998 2098.36 676.638 1838.18 582.402C1578.03 488.136 1438.47 198.294 1240.33 383.062C1031.08 578.189 968.974 833.721 447.626 983.382C105.298 1082.45 -192.919 910.732 -478.043 772.025" stroke="#F7B70B" stroke-opacity="0.1" stroke-width="0.8314" stroke-miterlimit="10"/>
<path d="M2445.93 202.35C2333.62 192.375 2086.38 675.724 1828.38 589.686C1570.41 503.649 1430.86 192.625 1230.86 373.272C1019.09 564.571 965.103 848.488 440.35 997.909C96.3825 1096.64 -205.328 893.246 -481.942 755.212" stroke="#F7B70B" stroke-opacity="0.1" stroke-width="0.8385" stroke-miterlimit="10"/>
<path d="M2442.72 193.064C2326.26 182.693 2074.43 674.78 1818.61 596.971C1562.79 519.162 1423.24 186.925 1221.43 363.481C1007.14 550.954 961.262 863.225 433.104 1012.44C87.5279 1110.85 -217.707 875.79 -485.779 738.43" stroke="#F7B70B" stroke-opacity="0.1" stroke-width="0.8455" stroke-miterlimit="10"/>
<path d="M2439.49 183.777C2318.86 173.07 2062.49 673.836 1808.82 604.255C1555.15 534.675 1415.63 181.226 1211.96 353.721C995.151 537.336 957.392 878.022 425.83 1026.99C78.6442 1125.03 -230.084 858.304 -489.676 721.648" stroke="#F7B70B" stroke-opacity="0.1" stroke-width="0.8526" stroke-miterlimit="10"/>
<path d="M2436.26 174.491C2311.46 163.388 2050.54 672.892 1799.02 611.54C1547.53 550.187 1407.98 175.496 1202.47 343.93C983.104 523.718 953.491 892.759 418.524 1041.52C69.7597 1139.25 -242.493 840.847 -493.544 704.865" stroke="#F7B70B" stroke-opacity="0.1" stroke-width="0.8596" stroke-miterlimit="10"/>
<path d="M2433.05 165.235C2304.09 153.766 2038.6 671.979 1789.25 618.824C1539.91 565.7 1400.37 169.766 1193.03 334.14C971.117 510.07 949.65 907.526 411.278 1056.08C60.8745 1153.43 -254.871 823.361 -497.442 688.053" stroke="#F7B70B" stroke-opacity="0.1" stroke-width="0.8667" stroke-miterlimit="10"/>
<path d="M2429.82 155.948C2296.7 144.113 2026.62 671.035 1779.46 626.139C1532.29 581.213 1392.72 164.066 1183.57 324.379C959.101 496.422 945.779 922.293 404.003 1070.61C51.9595 1167.64 -267.28 805.904 -501.309 671.271" stroke="#F7B70B" stroke-opacity="0.1" stroke-width="0.8737" stroke-miterlimit="10"/>
<path d="M2426.58 146.662C2289.33 134.461 2014.68 670.091 1769.66 633.423C1524.67 596.726 1385.08 158.307 1174.1 314.589C947.085 482.774 941.909 937.059 396.727 1085.16C43.075 1181.86 -279.657 788.418 -505.177 654.488" stroke="#F7B70B" stroke-opacity="0.1" stroke-width="0.8808" stroke-miterlimit="10"/>
<path d="M2423.38 137.406C2281.96 124.839 2002.73 669.177 1759.89 640.708C1517.02 612.239 1377.43 152.547 1164.64 304.828C935.068 469.096 938.037 951.826 389.451 1099.69C34.1896 1196.04 -292.067 770.962 -509.075 637.676" stroke="#F7B70B" stroke-opacity="0.1" stroke-width="0.8878" stroke-miterlimit="10"/>
<path d="M2420.15 128.119C2274.56 115.186 1990.79 668.233 1750.09 647.992C1509.4 627.752 1369.76 146.787 1155.17 295.037C923.022 455.388 934.197 966.563 382.206 1114.22C25.3052 1210.25 -304.445 753.505 -512.942 620.894" stroke="#F7B70B" stroke-opacity="0.1" stroke-width="0.8949" stroke-miterlimit="10"/>
<path d="M2416.91 118.833C2267.17 105.533 1978.81 667.289 1740.3 655.277C1501.78 643.265 1362.11 141.027 1145.71 285.247C911.006 441.68 930.325 981.33 374.93 1128.74C16.4197 1224.44 -316.854 736.019 -516.841 604.111" stroke="#F7B70B" stroke-opacity="0.1" stroke-width="0.9019" stroke-miterlimit="10"/>
<path d="M2413.71 109.547C2259.8 95.881 1966.89 666.345 1730.53 662.561C1494.16 658.777 1354.44 135.207 1136.24 275.456C898.96 427.972 926.455 996.067 367.655 1143.27C7.53511 1238.65 -329.232 718.563 -520.708 587.299" stroke="#F7B70B" stroke-opacity="0.1" stroke-width="0.9089" stroke-miterlimit="10"/>
<path d="M2410.48 100.291C2252.4 86.2285 1954.92 665.431 1720.73 669.876C1486.55 674.32 1346.79 129.447 1126.78 265.696C886.914 414.263 922.584 1010.86 360.38 1157.83C-1.34879 1252.83 -341.61 701.077 -524.575 570.517" stroke="#F7B70B" stroke-opacity="0.1" stroke-width="0.916" stroke-miterlimit="10"/>
<path d="M2407.27 91.0045C2245.03 76.5763 1942.97 664.487 1710.93 677.16C1478.9 689.833 1339.12 123.628 1117.31 255.935C874.867 400.555 918.712 1025.63 353.103 1172.39C-10.2347 1267.05 -354.02 683.62 -528.474 553.734" stroke="#F7B70B" stroke-opacity="0.1" stroke-width="0.923" stroke-miterlimit="10"/>
<path d="M2404.04 81.718C2237.67 66.9239 1931.03 663.543 1701.17 684.445C1471.31 705.346 1331.47 117.808 1107.88 246.145C862.852 386.787 914.872 1040.4 345.858 1186.91C-19.1494 1281.23 -366.398 666.164 -532.341 536.922" stroke="#F7B70B" stroke-opacity="0.1" stroke-width="0.9301" stroke-miterlimit="10"/>
<path d="M2400.8 72.4315C2230.27 57.2713 1919.08 662.6 1691.37 691.729C1463.66 720.859 1323.8 111.958 1098.38 236.354C850.777 372.989 910.972 1055.13 338.553 1201.44C-28.0332 1295.44 -378.805 648.677 -536.238 520.139" stroke="#F7B70B" stroke-opacity="0.1" stroke-width="0.9371" stroke-miterlimit="10"/>
<path d="M2397.6 63.1754C2222.9 47.649 1907.14 661.686 1681.6 699.044C1456.04 736.371 1316.12 106.108 1088.92 226.593C838.73 359.251 907.099 1069.9 331.276 1216C-36.9193 1309.63 -391.185 631.221 -540.107 503.357" stroke="#F7B70B" stroke-opacity="0.1" stroke-width="0.9442" stroke-miterlimit="10"/>
<path d="M2394.37 53.889C2215.5 37.9965 1895.19 660.742 1671.81 706.298C1448.42 751.884 1308.45 100.258 1079.48 216.803C826.715 345.453 903.259 1084.67 324.031 1230.52C-45.8037 1323.84 -403.593 613.735 -543.974 486.545" stroke="#F7B70B" stroke-opacity="0.1" stroke-width="0.9512" stroke-miterlimit="10"/>
<path d="M2391.13 44.6025C2208.14 28.3441 1883.25 659.798 1662.01 713.612C1440.8 767.397 1300.6 94.017 1070.02 207.042C814.461 331.234 899.389 1099.43 316.756 1245.08C-54.6875 1338.05 -415.97 596.278 -547.871 469.762" stroke="#F7B70B" stroke-opacity="0.1" stroke-width="0.9583" stroke-miterlimit="10"/>
<path d="M2387.93 35.3464C2200.74 18.6916 1871.3 658.884 1652.24 720.897C1433.18 782.91 1293.04 88.318 1060.55 197.252C802.537 317.587 895.55 1114.2 309.481 1259.61C-63.5715 1352.24 -428.378 578.822 -551.738 452.98" stroke="#F7B70B" stroke-opacity="0.1" stroke-width="0.9653" stroke-miterlimit="10"/>
<path d="M2384.69 26.06C2193.34 9.03912 1859.32 657.94 1642.44 728.181C1425.56 798.423 1285.49 82.619 1051.09 187.461C790.61 303.969 891.678 1128.94 302.205 1274.14C-72.4574 1366.45 -440.758 561.336 -555.637 436.168" stroke="#F7B70B" stroke-opacity="0.1" stroke-width="0.9724" stroke-miterlimit="10"/>
</svg>
