<svg width="119" height="94" viewBox="0 0 119 94" fill="none" xmlns="http://www.w3.org/2000/svg">
<path d="M45.9185 0C50.2301 1.0842 53.0326 4.55363 54.3261 10.4083C48.0743 13.8777 41.7147 19.0819 35.2473 26.0208C28.7799 32.9596 24.2527 40.549 21.6658 48.7889H22.6359C30.8279 48.7889 37.1875 50.9573 41.7147 55.2941C46.4574 59.4141 48.8288 64.8351 48.8288 71.5571C48.8288 77.8454 46.4574 83.158 41.7147 87.4948C37.1875 91.8316 31.6902 94 25.2228 94C17.462 94 11.3179 91.2895 6.79076 85.8685C2.26359 80.2307 0 73.5086 0 65.7024C0 52.4752 4.20381 40.6574 12.6114 30.2491C21.019 19.8408 32.1214 9.75778 45.9185 0ZM110.592 0C114.904 1.0842 117.707 4.55363 119 10.4083C112.748 13.8777 106.389 19.0819 99.9212 26.0208C93.4538 32.9596 88.9266 40.549 86.3397 48.7889H87.3098C95.5018 48.7889 101.861 50.9573 106.389 55.2941C111.131 59.4141 113.503 64.8351 113.503 71.5571C113.503 77.8454 111.131 83.158 106.389 87.4948C101.861 91.8316 96.3641 94 89.8967 94C82.1359 94 75.9919 91.2895 71.4647 85.8685C66.9375 80.2307 64.6739 73.5086 64.6739 65.7024C64.6739 52.4752 68.8777 40.6574 77.2853 30.2491C85.6929 19.8408 96.7953 9.75778 110.592 0Z" fill="#F7B70B" fill-opacity="0.4"/>
</svg>
