<svg width="66" height="53" viewBox="0 0 66 53" fill="none" xmlns="http://www.w3.org/2000/svg">
<path d="M25.4674 0C27.8587 0.60132 29.413 2.52555 30.1304 5.77267C26.663 7.6969 23.1359 10.5832 19.5489 14.4317C15.962 18.2801 13.4511 22.4894 12.0163 27.0594H12.5543C17.0978 27.0594 20.625 28.262 23.1359 30.6673C25.7663 32.9523 27.0815 35.9589 27.0815 39.6871C27.0815 43.1748 25.7663 46.1213 23.1359 48.5265C20.625 50.9318 17.5761 52.1345 13.9891 52.1345C9.68478 52.1345 6.27717 50.6312 3.7663 47.6246C1.25544 44.4977 0 40.7695 0 36.44C0 29.1039 2.33152 22.5495 6.99457 16.7768C11.6576 11.0042 17.8152 5.41188 25.4674 0ZM61.337 0C63.7283 0.60132 65.2826 2.52555 66 5.77267C62.5326 7.6969 59.0054 10.5832 55.4185 14.4317C51.8315 18.2801 49.3207 22.4894 47.8859 27.0594H48.4239C52.9674 27.0594 56.4946 28.262 59.0054 30.6673C61.6359 32.9523 62.9511 35.9589 62.9511 39.6871C62.9511 43.1748 61.6359 46.1213 59.0054 48.5265C56.4946 50.9318 53.4456 52.1345 49.8587 52.1345C45.5543 52.1345 42.1467 50.6312 39.6359 47.6246C37.125 44.4977 35.8696 40.7695 35.8696 36.44C35.8696 29.1039 38.2011 22.5495 42.8641 16.7768C47.5272 11.0042 53.6848 5.41188 61.337 0Z" fill="#F7B70B" fill-opacity="0.4"/>
</svg>
