<svg width="1920" height="1253" viewBox="0 0 1920 1253" fill="none" xmlns="http://www.w3.org/2000/svg">
<mask id="mask0_481_390" style="mask-type:alpha" maskUnits="userSpaceOnUse" x="0" y="0" width="1921" height="1253">
<rect x="0.00488281" width="1920" height="1253" fill="#D9D9D9"/>
</mask>
<g mask="url(#mask0_481_390)">
<path d="M-417.212 465.647C-12.2403 807.553 433.226 288.821 751.81 306.974C1210.94 333.149 1271.55 880.688 1521.3 668.665C1771.04 456.642 2004.18 273.532 2174.88 680.817C2345.59 1088.1 2556.66 908.223 2556.66 908.223" stroke="white" stroke-opacity="0.1" stroke-width="0.6482" stroke-miterlimit="10"/>
<path d="M2557.35 898.396C2553.66 896.431 2335 1082.55 2163.06 683.674C1991.11 284.802 1766.33 448.415 1516.45 655.938C1265.94 863.477 1201.61 345.199 739.471 317.484C419.501 298.401 -16.8061 786.646 -414.237 448.676" stroke="white" stroke-opacity="0.1" stroke-width="0.6553" stroke-miterlimit="10"/>
<path d="M2558 888.612C2550.62 884.681 2324.34 1077.02 2151.18 686.574C1978.02 296.127 1761.59 440.243 1511.56 643.253C1260.28 846.307 1192.27 357.275 727.082 328.036C405.765 308.007 -21.3873 765.699 -411.233 431.718" stroke="white" stroke-opacity="0.1" stroke-width="0.6623" stroke-miterlimit="10"/>
<path d="M2558.68 878.812C2547.61 872.916 2313.74 1071.49 2139.34 689.458C1964.94 307.424 1756.87 432.043 1506.66 630.567C1254.59 829.126 1182.92 369.379 714.692 338.588C392.041 317.586 -25.9535 744.792 -408.245 414.72" stroke="white" stroke-opacity="0.1" stroke-width="0.6694" stroke-miterlimit="10"/>
<path d="M2559.34 869.002C2544.61 861.152 2303.09 1065.94 2127.48 692.331C1951.86 318.723 1752.59 424.429 1501.78 617.856C1249.4 812.487 1173.63 381.441 702.304 349.141C378.306 327.193 -30.5453 723.873 -405.24 397.763" stroke="white" stroke-opacity="0.1" stroke-width="0.6764" stroke-miterlimit="10"/>
<path d="M2559.98 859.217C2541.57 849.375 2292.45 1060.43 2115.6 695.231C1938.78 330.02 1747.94 416.36 1496.89 605.171C1243.84 795.461 1164.28 393.545 689.926 359.665C364.581 336.772 -35.0994 702.939 -402.237 380.804" stroke="white" stroke-opacity="0.1" stroke-width="0.6835" stroke-miterlimit="10"/>
<path d="M2560.66 849.418C2538.57 837.61 2281.83 1054.89 2103.76 698.116C1925.71 341.318 1743.32 408.304 1492.01 592.458C1238.26 778.395 1154.95 405.595 677.548 370.19C350.845 346.378 -39.6929 682.02 -399.249 363.806" stroke="white" stroke-opacity="0.1" stroke-width="0.6905" stroke-miterlimit="10"/>
<path d="M2561.32 839.607C2535.53 825.833 2271.2 1049.35 2091.91 700.961C1912.61 352.576 1738.67 400.236 1487.13 579.746C1232.69 761.33 1145.61 417.672 665.171 380.715C337.11 355.985 -44.2458 661.086 -396.245 346.849" stroke="white" stroke-opacity="0.1" stroke-width="0.6976" stroke-miterlimit="10"/>
<path d="M2561.97 829.795C2532.5 814.056 2260.55 1043.79 2080.04 703.833C1899.52 363.901 1733.99 392.155 1482.23 567.061C1227.1 744.291 1136.27 429.748 652.78 391.267C323.357 365.552 -48.8402 640.166 -393.27 329.878" stroke="white" stroke-opacity="0.1" stroke-width="0.7046" stroke-miterlimit="10"/>
<path d="M2562.64 820.023C2529.48 802.319 2249.94 1038.29 2068.19 706.746C1886.44 375.199 1729.33 384.114 1477.35 554.349C1221.53 727.226 1126.95 441.797 640.403 401.791C309.622 375.158 -53.3929 619.232 -390.253 312.893" stroke="white" stroke-opacity="0.1" stroke-width="0.7117" stroke-miterlimit="10"/>
<path d="M2563.3 810.211C2526.45 790.542 2239.29 1032.74 2056.32 709.618C1873.36 386.496 1724.66 376.033 1472.47 541.636C1215.93 710.148 1117.61 453.874 628.041 412.355C295.925 384.749 -57.959 598.325 -387.25 295.934" stroke="white" stroke-opacity="0.1" stroke-width="0.7187" stroke-miterlimit="10"/>
<path d="M2563.95 800.4C2523.44 778.777 2228.66 1027.2 2044.46 712.49C1860.28 397.793 1719.98 367.952 1467.57 528.951C1210.32 693.07 1108.3 465.963 615.664 422.88C282.161 394.344 -62.5524 577.405 -384.274 278.964" stroke="white" stroke-opacity="0.1" stroke-width="0.7257" stroke-miterlimit="10"/>
<path d="M2564.64 790.6C2520.44 767.012 2218.04 1021.66 2032.62 715.375C1847.2 409.091 1715.28 359.859 1462.69 516.239C1204.69 675.98 1098.93 478.027 603.259 433.393C268.437 403.923 -67.1052 556.471 -381.258 261.978" stroke="white" stroke-opacity="0.1" stroke-width="0.7328" stroke-miterlimit="10"/>
<path d="M2565.28 780.816C2517.4 755.235 2207.4 1016.15 2020.74 718.275C1834.08 420.404 1710.57 351.767 1457.8 503.554C1199.08 658.93 1089.6 490.104 590.869 443.945C254.701 413.529 -71.6987 535.552 -378.282 245.008" stroke="white" stroke-opacity="0.1" stroke-width="0.7398" stroke-miterlimit="10"/>
<path d="M2565.97 771.017C2514.4 743.47 2196.78 1010.61 2008.91 721.16C1821.02 431.674 1705.87 343.674 1452.94 490.853C1193.49 641.825 1080.31 502.205 578.52 454.482C240.978 423.108 -76.2518 514.617 -375.278 228.05" stroke="white" stroke-opacity="0.1" stroke-width="0.7469" stroke-miterlimit="10"/>
<path d="M2566.62 761.206C2511.37 731.694 2186.14 1005.09 1997.04 724.032C1807.94 442.972 1701.18 335.554 1448.06 478.141C1187.83 624.723 1070.95 514.27 566.131 465.034C227.242 432.715 -80.8447 493.699 -372.261 211.064" stroke="white" stroke-opacity="0.1" stroke-width="0.7539" stroke-miterlimit="10"/>
<path d="M2567.27 751.422C2508.32 719.944 2175.48 999.568 1985.17 726.905C1794.87 454.243 1696.45 327.449 1443.17 465.457C1182.2 607.633 1061.64 526.359 553.782 475.571C213.519 442.295 -85.3697 472.777 -369.257 194.106" stroke="white" stroke-opacity="0.1" stroke-width="0.761" stroke-miterlimit="10"/>
<path d="M2567.95 741.622C2505.31 708.179 2164.85 994.027 1973.34 729.789C1781.78 465.567 1691.76 319.329 1438.29 452.744C1176.54 590.531 1052.31 538.408 541.403 486.095C199.754 451.888 -89.9918 451.845 -366.282 177.136" stroke="white" stroke-opacity="0.1" stroke-width="0.768" stroke-miterlimit="10"/>
<path d="M2568.6 731.811C2502.28 696.403 2154.23 988.487 1961.47 732.662C1768.7 476.865 1687 311.212 1433.4 440.032C1170.9 573.402 1042.98 550.485 529.026 496.62C186.058 461.48 -94.5449 430.911 -363.266 160.15" stroke="white" stroke-opacity="0.1" stroke-width="0.7751" stroke-miterlimit="10"/>
<path d="M2569.26 722C2499.28 684.638 2143.57 982.934 1949.6 735.534C1755.61 488.123 1682.25 303.067 1428.52 427.319C1165.22 556.26 1033.65 562.534 516.648 507.145C172.305 471.047 -99.0992 409.976 -360.279 143.152" stroke="white" stroke-opacity="0.1" stroke-width="0.7821" stroke-miterlimit="10"/>
<path d="M2569.93 712.228C2496.26 672.9 2132.96 977.433 1937.75 738.447C1742.52 499.448 1677.5 294.922 1423.63 414.634C1159.54 539.146 1024.3 574.638 504.247 517.724C158.558 480.681 -103.704 389.084 -357.286 126.222" stroke="white" stroke-opacity="0.1" stroke-width="0.7892" stroke-miterlimit="10"/>
<path d="M2570.59 702.417C2493.24 661.096 2122.31 971.881 1925.89 741.32C1729.44 510.747 1672.76 286.779 1418.74 401.95C1153.87 522.005 1014.96 586.716 491.87 528.25C144.835 490.26 -108.284 368.139 -354.309 109.252" stroke="white" stroke-opacity="0.1" stroke-width="0.7962" stroke-miterlimit="10"/>
<path d="M2571.24 692.604C2490.22 649.358 2111.69 966.34 1914.02 744.191C1716.36 522.043 1668.01 278.633 1413.85 389.237C1148.19 504.862 1005.64 598.764 479.491 538.774C131.109 499.839 -112.851 347.231 -351.295 92.2655" stroke="white" stroke-opacity="0.1" stroke-width="0.8033" stroke-miterlimit="10"/>
<path d="M2571.91 682.833C2487.19 637.582 2101.05 960.827 1902.15 747.092C1703.25 533.329 1663.24 270.449 1408.97 376.525C1142.5 487.681 996.299 610.841 467.115 549.299C117.359 509.406 -117.431 326.285 -348.306 75.2681" stroke="white" stroke-opacity="0.1" stroke-width="0.8103" stroke-miterlimit="10"/>
<path d="M2572.57 673.022C2484.15 625.805 2090.43 955.287 1890.28 749.965C1690.17 544.627 1658.47 262.293 1404.08 363.84C1136.8 470.528 986.989 622.93 454.726 559.851C103.611 519.04 -121.996 305.378 -345.302 58.3104" stroke="white" stroke-opacity="0.1" stroke-width="0.8173" stroke-miterlimit="10"/>
<path d="M2573.25 663.222C2481.15 614.039 2079.8 949.746 1878.45 752.821C1677.09 555.924 1653.7 254.108 1399.19 351.127C1131.11 453.346 977.65 635.006 442.346 570.375C89.8854 528.618 -126.563 284.47 -342.299 41.3513" stroke="white" stroke-opacity="0.1" stroke-width="0.8244" stroke-miterlimit="10"/>
<path d="M2573.91 653.411C2478.11 602.263 2069.17 944.206 1866.58 755.722C1664.02 567.222 1648.93 245.885 1394.3 338.443C1125.41 436.193 968.313 647.083 429.958 580.928C76.1504 538.225 -131.156 263.552 -339.322 24.3816" stroke="white" stroke-opacity="0.1" stroke-width="0.8314" stroke-miterlimit="10"/>
<path d="M2574.55 643.626C2475.1 590.525 2058.51 938.68 1854.71 758.594C1650.94 578.519 1644.13 237.688 1389.42 325.73C1119.7 418.971 958.974 659.16 417.58 591.452C62.3979 547.792 -135.738 242.605 -336.335 7.38338" stroke="white" stroke-opacity="0.1" stroke-width="0.8385" stroke-miterlimit="10"/>
<path d="M2575.23 633.827C2472.1 578.733 2047.88 933.14 1842.87 761.479C1637.86 589.817 1639.35 229.464 1384.56 313.03C1114.02 401.763 949.676 671.221 405.23 601.989C48.6896 557.411 -140.303 221.698 -333.303 -9.5625" stroke="white" stroke-opacity="0.1" stroke-width="0.8455" stroke-miterlimit="10"/>
<path d="M2575.89 624.016C2469.06 566.984 2037.26 927.6 1831.01 764.351C1624.75 601.103 1634.58 221.241 1379.67 300.345C1108.32 384.542 940.327 683.326 392.841 612.541C34.9665 566.99 -144.856 200.764 -330.326 -26.5328" stroke="white" stroke-opacity="0.1" stroke-width="0.8526" stroke-miterlimit="10"/>
<path d="M2576.55 614.204C2466.04 555.18 2026.64 922.059 1819.14 767.224C1611.67 612.401 1629.78 212.978 1374.76 287.621C1102.56 367.297 930.974 695.363 380.436 623.054C21.2308 576.597 -149.449 179.845 -327.322 -43.4906" stroke="white" stroke-opacity="0.1" stroke-width="0.8596" stroke-miterlimit="10"/>
<path d="M2577.22 604.432C2463.02 543.442 2016 916.546 1807.3 770.108C1598.59 623.698 1625.01 204.726 1369.91 274.92C1096.86 350.049 921.663 707.452 368.074 633.618C7.50617 586.176 -154.003 158.91 -324.335 -60.4886" stroke="white" stroke-opacity="0.1" stroke-width="0.8667" stroke-miterlimit="10"/>
<path d="M2577.87 594.621C2459.98 531.665 2005.35 910.994 1795.42 773.008C1585.51 634.996 1620.21 196.49 1365.01 262.235C1091.14 332.788 912.326 719.529 355.697 644.143C-6.25736 595.77 -158.596 137.991 -321.331 -77.4466" stroke="white" stroke-opacity="0.1" stroke-width="0.8737" stroke-miterlimit="10"/>
<path d="M2578.53 584.81C2456.98 519.901 1994.72 905.453 1783.56 775.881C1572.44 646.294 1615.42 188.2 1360.13 249.523C1085.42 315.528 902.988 731.606 343.308 654.695C-19.993 605.377 -163.149 117.057 -318.327 -94.4046" stroke="white" stroke-opacity="0.1" stroke-width="0.8808" stroke-miterlimit="10"/>
<path d="M2579.2 575.038C2453.96 508.163 1984.08 899.94 1771.72 778.766C1559.33 657.579 1610.64 179.909 1355.24 236.838C1079.71 298.24 893.649 743.682 330.929 665.22C-33.7178 614.956 -167.743 96.1377 -315.339 -111.402" stroke="white" stroke-opacity="0.1" stroke-width="0.8878" stroke-miterlimit="10"/>
<path d="M2579.86 565.226C2450.93 496.386 1973.46 894.4 1759.85 781.638C1546.25 668.877 1605.83 171.606 1350.36 224.126C1073.98 280.912 884.352 755.743 318.58 675.757C-47.4533 624.562 -172.308 75.2306 -312.335 -128.361" stroke="white" stroke-opacity="0.1" stroke-width="0.8949" stroke-miterlimit="10"/>
<path d="M2580.51 555.414C2447.89 484.609 1962.81 888.847 1747.99 784.51C1533.17 680.174 1601.04 163.315 1345.47 211.413C1068.29 263.597 875.013 767.82 306.202 686.281C-61.1782 634.141 -176.89 54.2838 -309.36 -145.331" stroke="white" stroke-opacity="0.1" stroke-width="0.9019" stroke-miterlimit="10"/>
<path d="M2581.2 545.615C2444.89 472.844 1952.21 883.318 1736.15 787.395C1520.09 691.472 1596.26 154.956 1340.59 198.701C1062.56 246.269 865.688 779.869 293.825 696.806C-74.9139 643.747 -181.455 33.3767 -306.344 -162.317" stroke="white" stroke-opacity="0.1" stroke-width="0.9089" stroke-miterlimit="10"/>
<path d="M2581.84 535.831C2441.86 461.067 1941.54 877.794 1724.27 790.295C1507 702.797 1591.47 146.666 1335.7 186.016C1056.84 228.942 856.338 791.973 281.436 707.358C-88.6372 653.327 -186.008 12.4425 -303.339 -179.275" stroke="white" stroke-opacity="0.1" stroke-width="0.916" stroke-miterlimit="10"/>
<path d="M2582.52 526.032C2438.85 449.303 1930.92 872.253 1712.41 793.168C1493.89 714.082 1586.69 138.308 1330.8 173.331C1051.11 211.614 846.999 804.05 269.045 717.91C-102.374 662.933 -190.602 -8.47677 -300.364 -196.245" stroke="white" stroke-opacity="0.1" stroke-width="0.923" stroke-miterlimit="10"/>
<path d="M2583.18 516.22C2435.84 437.538 1920.29 866.713 1700.57 796.052C1480.84 725.392 1581.93 129.962 1325.95 160.631C1045.44 194.244 837.69 816.139 256.696 728.447C-116.126 672.5 -195.167 -29.3837 -297.348 -213.231" stroke="white" stroke-opacity="0.1" stroke-width="0.9301" stroke-miterlimit="10"/>
<path d="M2583.83 506.409C2432.81 425.761 1909.67 861.172 1688.7 798.925C1467.74 736.678 1577.15 121.577 1321.04 147.907C1039.72 176.822 828.337 828.177 244.291 738.96C-129.861 682.107 -199.748 -50.3298 -294.371 -230.201" stroke="white" stroke-opacity="0.1" stroke-width="0.9371" stroke-miterlimit="10"/>
<path d="M2584.5 496.637C2429.79 414.023 1899.03 855.659 1676.85 801.837C1454.66 747.975 1572.38 113.191 1316.15 135.221C1034 159.466 818.998 840.253 231.901 749.512C-143.586 691.686 -204.315 -71.2372 -291.369 -247.16" stroke="white" stroke-opacity="0.1" stroke-width="0.9442" stroke-miterlimit="10"/>
<path d="M2585.16 486.825C2426.76 402.246 1888.41 850.118 1665 804.682C1441.58 759.273 1567.6 104.806 1311.29 122.521C1028.34 142.069 809.688 852.342 219.551 760.048C-157.322 701.292 -208.896 -92.1838 -288.352 -264.145" stroke="white" stroke-opacity="0.1" stroke-width="0.9512" stroke-miterlimit="10"/>
<path d="M2585.82 477.014C2423.76 390.482 1877.78 844.578 1653.12 807.582C1428.5 770.571 1562.81 95.9906 1306.4 109.836C1022.63 124.189 800.351 864.419 207.163 770.601C-171.057 710.899 -213.46 -113.091 -285.375 -281.115" stroke="white" stroke-opacity="0.1" stroke-width="0.9583" stroke-miterlimit="10"/>
<path d="M2586.49 467.243C2420.72 378.706 1867.15 839.066 1641.28 810.467C1415.42 781.869 1558.09 87.7916 1301.52 97.1244C1016.99 106.966 791.042 876.508 194.786 781.126C-184.78 720.478 -218.053 -134.009 -282.371 -298.073" stroke="white" stroke-opacity="0.1" stroke-width="0.9653" stroke-miterlimit="10"/>
<path d="M2587.14 457.431C2417.69 366.928 1856.49 833.513 1629.42 813.339C1402.34 793.166 1553.37 79.5918 1296.63 84.4116C1011.34 89.7688 781.715 888.557 182.408 791.65C-198.517 730.085 -222.607 -154.944 -279.384 -315.071" stroke="white" stroke-opacity="0.1" stroke-width="0.9724" stroke-miterlimit="10"/>
</g>
</svg>
