<svg width="103" height="89" viewBox="0 0 103 89" fill="none" xmlns="http://www.w3.org/2000/svg">
<path d="M59.01 14L90.92 22.572C91.348 22.686 91.648 23.035 91.66 23.448C91.792 27.953 92.482 53.306 91.409 56.933C90.973 58.996 88.949 65.793 85.235 70.378C82.391 73.888 80.701 75.848 76.576 79.46C70.83 84.494 62.431 89 59.01 89C55.587 89 47.184 84.494 41.434 79.46C37.307 75.848 35.615 73.888 32.77 70.378C29.053 65.794 27.028 58.996 26.592 56.933C25.519 53.306 26.209 27.953 26.342 23.448C26.353 23.035 26.652 22.686 27.082 22.572L59.01 14Z" fill="white"/>
<path d="M58.996 17.2202L88.008 24.6002C88.408 24.7052 88.687 25.0302 88.698 25.4152C88.821 29.6172 89.4 53.3122 88.399 56.6952C87.993 58.6182 85.885 63.8622 82.549 69.0852C80.086 72.3612 75.621 77.7472 71.773 81.1152C66.495 85.3672 62.543 87.2482 59.527 88.2212C59.1801 88.3335 58.8082 88.3433 58.456 88.2492C55.134 87.3582 52.53 85.8132 46.783 81.7302C42.933 78.3622 38.045 72.3572 35.391 69.0842C31.923 64.8092 30.05 58.6182 29.643 56.6942C28.642 53.3122 28.965 29.6172 29.088 25.4152C29.099 25.0312 29.379 24.7052 29.779 24.5992L58.996 17.2202Z" fill="#2C2C2C"/>
<path d="M32.584 43.8971C34.908 44.0671 35.844 43.4231 35.844 43.4231L36.856 42.8831L36.364 53.5831C36.364 53.5831 32.894 49.8881 31.951 49.9331C29.108 50.0721 28.366 52.9731 26.069 54.6911C23.282 56.7761 21.409 58.0351 17.953 58.3561C14.837 58.6461 10.203 56.7391 10.203 56.7391C10.203 56.7391 21.838 53.3901 22.013 47.4991C22.152 42.8241 15.153 37.0971 15.153 37.0971L17.158 36.2541L14.121 36.3201L13.186 35.5751L15.868 34.9581L10.733 34.2151L0.421997 28.8291C0.421997 28.8291 15.033 31.0361 22.554 35.5721C26.912 38.2001 30.448 43.4721 32.584 43.8971Z" fill="#F7B70B"/>
<path d="M25.486 40.4431C23.72 38.5211 20.666 36.4031 20.666 36.4031C20.666 36.4031 24.504 39.8921 26.266 42.4631C27.069 43.6321 27.647 44.8191 28.7 45.7681C30.547 47.4331 35.218 47.4201 35.218 47.4201L35.081 45.4921C35.081 45.4921 31.321 45.9231 29.526 44.7581C28.068 43.8111 26.663 41.7231 25.486 40.4431Z" fill="#2C2C2C"/>
<path d="M80.907 60.825L102.024 72.282L84.084 57.257C82.734 56.127 82.028 54.431 82.201 52.724C82.514 49.654 82.81 47.201 82.997 45.206C83.95 35.044 82.082 36.795 65.292 29.453C65.2086 29.4176 65.135 29.3624 65.0777 29.2922C65.0204 29.222 64.981 29.1388 64.963 29.05C64.963 29.05 62.857 24.64 62.9 18.913C62.94 13.263 64.736 0 64.736 0C64.736 0 60.333 8.534 58.034 14.23C55.745 19.899 52.998 29.05 52.998 29.05C52.9801 29.1387 52.9409 29.2218 52.8838 29.292C52.8267 29.3622 52.7533 29.4175 52.67 29.453C35.88 36.795 34.012 35.044 34.965 45.206C35.152 47.2 35.447 49.654 35.76 52.724C35.934 54.431 35.228 56.127 33.879 57.257L15.939 72.282L37.055 60.825L41.508 58.208L49.633 62.798L58.958 64.542L68.328 62.799L76.454 58.209L80.907 60.825Z" fill="#F7B70B"/>
<path d="M101.886 72.125C98.902 70.151 98.718 70.013 98.718 70.013L81.638 57.696L79.046 49.303C79.046 49.303 76.668 54.787 76.248 55.42C75.504 56.54 75.454 56.71 74.413 57.26C71.316 58.892 70.008 59.283 66.98 60.686C63.952 62.089 62.966 62.618 61.498 63.193C60.062 63.755 59.044 63.807 59 63.809C59 63.809 57.964 63.798 56.493 63.222C55.023 62.645 54.035 62.115 51.003 60.71C47.97 59.304 46.661 58.912 43.559 57.276C42.516 56.726 42.466 56.556 41.721 55.432C41.301 54.798 38.918 49.302 38.918 49.302L36.322 57.714L19.216 70.057C19.216 70.057 19.032 70.195 16.044 72.173C8.87201 78.935 38.621 64.788 38.621 64.788C39.615 64.4638 40.677 64.4078 41.6996 64.6255C42.7222 64.8433 43.6693 65.327 44.445 66.028C49.601 70.702 55.928 75.744 58.998 75.744C62.062 75.744 68.38 70.657 73.528 65.992C74.303 65.2925 75.2488 64.8099 76.27 64.5929C77.2912 64.3758 78.3515 64.4321 79.344 64.756C79.344 64.756 109.047 78.873 101.886 72.125Z" fill="white"/>
<path fill-rule="evenodd" clip-rule="evenodd" d="M40.64 48.062L51.379 57.562C41.369 55.43 43.646 57.663 40.64 48.062ZM77.277 48.062L66.545 57.562C76.548 55.43 74.272 57.663 77.277 48.062Z" fill="#2C2C2C"/>
<path d="M58.998 68.1961H65.992C65.992 68.1961 66.232 67.9791 64.572 67.5371C63.266 67.1891 60.302 67.0351 58.998 67.0221V68.1961ZM58.998 68.1961H51.932C51.932 68.1961 51.692 67.9791 53.352 67.5371C54.659 67.1891 57.692 67.0351 58.998 67.0221V68.1961ZM61.293 18.0401C61.35 17.1231 62.578 8.08008 62.578 8.08008C62.578 8.08008 61.035 12.3231 60.328 15.5161C59.916 17.0761 59.548 18.6841 59.548 22.6311C59.548 24.9511 59.748 28.8561 59.775 29.3691C59.7758 29.3862 59.7815 29.4028 59.7915 29.4168C59.8014 29.4307 59.8151 29.4416 59.831 29.4481L64.415 31.3541C64.415 31.3541 63.499 30.6191 63.129 30.1141C62.257 28.8741 61.936 27.0841 61.706 25.1101C61.476 23.1371 61.176 19.9231 61.293 18.0401Z" fill="#2C2C2C"/>
</svg>
