<svg width="308" height="89" viewBox="0 0 308 89" fill="none" xmlns="http://www.w3.org/2000/svg">
<path d="M66.0094 14L97.9198 22.5723C98.3485 22.6862 98.648 23.0348 98.6601 23.4475C98.7921 27.9531 99.482 53.3058 98.409 56.9333C97.9735 58.9962 95.9496 65.7939 92.235 70.3782C89.3914 73.8877 87.7006 75.8477 83.5761 79.4601C77.8289 84.4936 69.4306 89 66.0094 89C62.5862 89 54.1832 84.4936 48.4327 79.4601C44.3059 75.8477 42.6141 73.8877 39.7688 70.3782C36.0522 65.7939 34.0271 58.9962 33.5914 56.9333C32.5177 53.3058 33.208 27.9531 33.3401 23.4475C33.3522 23.0348 33.6519 22.6862 34.0808 22.5723L66.0094 14Z" fill="white"/>
<path d="M65.9957 17.22L95.0076 24.5993C95.4075 24.7055 95.6869 25.0306 95.6981 25.4154C95.8213 29.6169 96.4004 53.3116 95.3994 56.6941C94.9932 58.6179 92.885 63.8619 89.5495 69.0842C87.0863 72.3609 82.6208 77.7474 78.7732 81.1159C73.4954 85.3672 69.5425 87.2481 66.5266 88.221C66.1797 88.3329 65.808 88.3429 65.4559 88.2485C62.1341 87.3577 59.5304 85.8126 53.7826 81.7303C49.9328 78.3617 45.0448 72.3568 42.3906 69.0842C38.9234 64.8094 37.0497 58.6179 36.6432 56.6941C35.6417 53.3116 35.9649 29.6169 36.0881 25.4154C36.0994 25.0306 36.379 24.7055 36.7791 24.5993L65.9957 17.22Z" fill="#2C2C2C"/>
<path d="M39.5844 43.8971C41.908 44.0677 42.8437 43.4226 42.8437 43.4226L43.8562 42.8822L43.3645 53.5827C43.3645 53.5827 39.8941 49.888 38.9513 49.9338C36.1084 50.072 35.3662 52.9729 33.069 54.6914C30.2818 56.7764 28.4097 58.0349 24.9528 58.3564C21.8373 58.6461 17.2027 56.7387 17.2027 56.7387C17.2027 56.7387 28.8382 53.3903 29.0131 47.4981C29.1517 42.8241 22.153 37.0975 22.153 37.0975L24.1577 36.2541L21.1208 36.32L20.1855 35.575L22.8681 34.9583L17.733 34.2147L7.42194 28.8287C7.42194 28.8287 22.0335 31.0359 29.5542 35.5717C33.9119 38.1998 37.4479 43.4716 39.5844 43.8971Z" fill="#F7B70B"/>
<path d="M32.4865 40.4428C30.7204 38.5214 27.6664 36.4031 27.6664 36.4031C27.6664 36.4031 31.504 39.892 33.2669 42.4627C34.0687 43.6318 34.647 44.8187 35.6999 45.7679C37.5473 47.4333 42.2185 47.4205 42.2185 47.4205L42.0808 45.4925C42.0808 45.4925 38.3211 45.9231 36.5262 44.758C35.0676 43.8111 33.6634 41.7232 32.4865 40.4428Z" fill="#2C2C2C"/>
<path d="M87.907 60.8249L109.024 72.282L91.0831 57.2566C89.7337 56.127 89.0276 54.4314 89.2014 52.7243C89.5142 49.6536 89.8098 47.2005 89.9968 45.2062C90.9495 35.0443 89.0821 36.7947 72.2919 29.4534C72.1225 29.3794 71.994 29.2258 71.9632 29.0501C71.9632 29.0501 69.8572 24.639 69.8996 18.9131C69.9414 13.2634 71.7358 0 71.7358 0C71.7358 0 67.3332 8.53449 65.0336 14.2308C62.7455 19.8986 59.9985 29.0501 59.9985 29.0501C59.9677 29.2258 59.8391 29.3794 59.6697 29.4534C42.8796 36.7947 41.0122 35.0444 41.9649 45.2062C42.1519 47.2005 42.4475 49.6536 42.7602 52.7243C42.9341 54.4314 42.2279 56.1271 40.8785 57.2566L22.9381 72.282L44.0547 60.825L48.5076 58.2083L56.6329 62.7989L65.9581 64.5422L75.3288 62.7989L83.4541 58.2083L87.907 60.8249Z" fill="#F7B70B"/>
<path d="M108.886 72.125C105.902 70.151 105.718 70.0133 105.718 70.0133L88.6385 57.6964L86.0464 49.3027C86.0464 49.3027 83.6676 54.7868 83.2478 55.4198C82.5044 56.5408 82.4544 56.7103 81.4127 57.2595C78.3159 58.8922 77.0084 59.2832 73.9804 60.686C70.9525 62.0887 69.9661 62.6177 68.498 63.1926C67.062 63.7549 66.0439 63.8069 66.0001 63.8089C66.0001 63.8089 64.9638 63.7977 63.4935 63.2216C62.0231 62.6455 61.0352 62.1154 58.0027 60.7097C54.9701 59.304 53.6606 58.9123 50.5591 57.2761C49.5158 56.7257 49.4657 56.5559 48.7212 55.4325C48.3007 54.7982 45.9183 49.3027 45.9183 49.3027L43.3223 57.7139L26.2163 70.0565C26.2163 70.0565 26.0324 70.1945 23.044 72.1726C15.8718 78.9348 45.6208 64.7879 45.6208 64.7879C47.6475 64.1182 49.888 64.6155 51.4449 66.0271C56.6009 70.7019 62.9283 75.7444 65.9976 75.7444C69.0623 75.7444 75.3801 70.6573 80.5282 65.9922C82.0828 64.5836 84.3199 64.0874 86.3435 64.7557C86.3435 64.7557 116.047 78.8731 108.886 72.125Z" fill="white"/>
<path fill-rule="evenodd" clip-rule="evenodd" d="M47.6405 48.0615L58.3785 57.5627C48.3696 55.4299 50.6469 57.6633 47.6405 48.0615Z" fill="#2C2C2C"/>
<path fill-rule="evenodd" clip-rule="evenodd" d="M84.2771 48.0615L73.5453 57.5627C83.5484 55.4299 81.2724 57.6633 84.2771 48.0615Z" fill="#2C2C2C"/>
<path d="M65.9976 68.196H72.9917C72.9917 68.196 73.2313 67.979 71.5724 67.5371C70.2662 67.1892 67.3024 67.0354 65.9976 67.0223V68.196Z" fill="#2C2C2C"/>
<path d="M65.9976 68.196L58.9324 68.1961C58.9324 68.1961 58.6926 67.979 60.3524 67.5372C61.6594 67.1892 64.6921 67.0354 65.9976 67.0223V68.196Z" fill="#2C2C2C"/>
<path d="M68.2929 18.0409C68.3503 17.1228 69.5783 8.0794 69.5783 8.0794C69.5783 8.0794 68.0353 12.3234 67.3289 15.5161C66.9157 17.0769 66.5485 18.6836 66.5485 22.6315C66.5485 24.9519 66.7483 28.8559 66.7751 29.3693C66.7769 29.4045 66.7988 29.4342 66.8314 29.4477L71.4145 31.3536C71.4145 31.3536 70.4995 30.6191 70.1291 30.1141C69.2569 28.8747 68.9356 27.0844 68.7061 25.1104C68.4765 23.1365 68.1753 19.9231 68.2929 18.0409Z" fill="#2C2C2C"/>
<path d="M124.846 23.3594L127.972 28.9346L131.108 23.3594H134.503L129.862 31.1152L134.621 39H131.194L127.972 33.3174L124.76 39H121.322L126.081 31.1152L121.44 23.3594H124.846ZM151.462 30.7822V31.5879C151.462 32.7695 151.305 33.833 150.99 34.7783C150.675 35.7165 150.227 36.515 149.647 37.1738C149.067 37.8327 148.376 38.3376 147.574 38.6885C146.772 39.0394 145.88 39.2148 144.899 39.2148C143.932 39.2148 143.044 39.0394 142.235 38.6885C141.433 38.3376 140.738 37.8327 140.151 37.1738C139.564 36.515 139.109 35.7165 138.786 34.7783C138.464 33.833 138.303 32.7695 138.303 31.5879V30.7822C138.303 29.5934 138.464 28.5299 138.786 27.5918C139.109 26.6536 139.56 25.8551 140.14 25.1963C140.72 24.5303 141.411 24.0218 142.213 23.6709C143.022 23.32 143.911 23.1445 144.877 23.1445C145.858 23.1445 146.75 23.32 147.552 23.6709C148.354 24.0218 149.045 24.5303 149.625 25.1963C150.213 25.8551 150.664 26.6536 150.979 27.5918C151.301 28.5299 151.462 29.5934 151.462 30.7822ZM148.476 31.5879V30.7607C148.476 29.9085 148.397 29.1602 148.24 28.5156C148.082 27.8639 147.849 27.3161 147.541 26.8721C147.233 26.4281 146.854 26.0951 146.403 25.873C145.952 25.6439 145.443 25.5293 144.877 25.5293C144.304 25.5293 143.796 25.6439 143.352 25.873C142.915 26.0951 142.543 26.4281 142.235 26.8721C141.927 27.3161 141.69 27.8639 141.526 28.5156C141.368 29.1602 141.289 29.9085 141.289 30.7607V31.5879C141.289 32.4329 141.368 33.1813 141.526 33.833C141.69 34.4847 141.927 35.0361 142.235 35.4873C142.55 35.9313 142.929 36.2679 143.373 36.4971C143.817 36.7262 144.326 36.8408 144.899 36.8408C145.472 36.8408 145.98 36.7262 146.424 36.4971C146.868 36.2679 147.241 35.9313 147.541 35.4873C147.849 35.0361 148.082 34.4847 148.24 33.833C148.397 33.1813 148.476 32.4329 148.476 31.5879ZM157.894 23.3594H160.451L164.726 35.1328L168.991 23.3594H171.558L165.747 39H163.695L157.894 23.3594ZM156.605 23.3594H159.108L159.559 34.1768V39H156.605V23.3594ZM170.334 23.3594H172.847V39H169.893V34.1768L170.334 23.3594ZM183.394 33.4463L187.304 23.3594H190.516L185.123 36.0674C184.944 36.4756 184.74 36.8695 184.511 37.249C184.282 37.6286 184.006 37.9688 183.684 38.2695C183.369 38.5632 182.985 38.7959 182.534 38.9678C182.09 39.1396 181.553 39.2256 180.923 39.2256C180.758 39.2256 180.561 39.2184 180.332 39.2041C180.103 39.1969 179.927 39.1862 179.806 39.1719V36.8516C179.892 36.873 180.031 36.8874 180.225 36.8945C180.425 36.9017 180.568 36.9053 180.654 36.9053C181.07 36.9053 181.399 36.8408 181.643 36.7119C181.893 36.5758 182.09 36.3932 182.233 36.1641C182.384 35.9277 182.516 35.6592 182.631 35.3584L183.394 33.4463ZM180.622 23.3594L184.371 31.5557L185.252 34.7461L183.007 34.8105L177.421 23.3594H180.622ZM198 23.3594V39H195.046V23.3594H198ZM207.314 23.3594L201.137 32.4043H197.259L196.872 29.8047H199.537L203.715 23.3594H207.314ZM204.274 39L199.558 31.9316L201.545 29.751L207.808 39H204.274ZM224.177 30.7822V31.5879C224.177 32.7695 224.019 33.833 223.704 34.7783C223.389 35.7165 222.941 36.515 222.361 37.1738C221.781 37.8327 221.09 38.3376 220.288 38.6885C219.486 39.0394 218.594 39.2148 217.613 39.2148C216.646 39.2148 215.758 39.0394 214.949 38.6885C214.147 38.3376 213.452 37.8327 212.865 37.1738C212.278 36.515 211.823 35.7165 211.501 34.7783C211.179 33.833 211.017 32.7695 211.017 31.5879V30.7822C211.017 29.5934 211.179 28.5299 211.501 27.5918C211.823 26.6536 212.274 25.8551 212.854 25.1963C213.434 24.5303 214.125 24.0218 214.928 23.6709C215.737 23.32 216.625 23.1445 217.592 23.1445C218.573 23.1445 219.464 23.32 220.266 23.6709C221.068 24.0218 221.76 24.5303 222.34 25.1963C222.927 25.8551 223.378 26.6536 223.693 27.5918C224.015 28.5299 224.177 29.5934 224.177 30.7822ZM221.19 31.5879V30.7607C221.19 29.9085 221.111 29.1602 220.954 28.5156C220.796 27.8639 220.564 27.3161 220.256 26.8721C219.948 26.4281 219.568 26.0951 219.117 25.873C218.666 25.6439 218.157 25.5293 217.592 25.5293C217.019 25.5293 216.51 25.6439 216.066 25.873C215.629 26.0951 215.257 26.4281 214.949 26.8721C214.641 27.3161 214.405 27.8639 214.24 28.5156C214.082 29.1602 214.004 29.9085 214.004 30.7607V31.5879C214.004 32.4329 214.082 33.1813 214.24 33.833C214.405 34.4847 214.641 35.0361 214.949 35.4873C215.264 35.9313 215.644 36.2679 216.088 36.4971C216.532 36.7262 217.04 36.8408 217.613 36.8408C218.186 36.8408 218.694 36.7262 219.138 36.4971C219.582 36.2679 219.955 35.9313 220.256 35.4873C220.564 35.0361 220.796 34.4847 220.954 33.833C221.111 33.1813 221.19 32.4329 221.19 31.5879ZM235.314 32.0283H231.318L231.296 29.9443H234.723C235.31 29.9443 235.801 29.862 236.194 29.6973C236.588 29.5326 236.886 29.2926 237.086 28.9775C237.294 28.6624 237.398 28.2793 237.398 27.8281C237.398 27.3268 237.301 26.9186 237.108 26.6035C236.921 26.2884 236.628 26.0592 236.227 25.916C235.826 25.7656 235.317 25.6904 234.701 25.6904H232.274V39H229.319V23.3594H234.701C235.589 23.3594 236.381 23.4453 237.075 23.6172C237.777 23.7819 238.372 24.0397 238.859 24.3906C239.346 24.7415 239.714 25.182 239.965 25.7119C240.223 26.2419 240.352 26.8721 240.352 27.6025C240.352 28.2471 240.201 28.8415 239.901 29.3857C239.607 29.9229 239.152 30.3597 238.536 30.6963C237.928 31.0329 237.154 31.2262 236.216 31.2764L235.314 32.0283ZM235.185 39H230.447L231.683 36.6797H235.185C235.772 36.6797 236.255 36.583 236.635 36.3896C237.022 36.1963 237.308 35.9313 237.494 35.5947C237.688 35.251 237.784 34.8571 237.784 34.4131C237.784 33.9261 237.698 33.5036 237.527 33.1455C237.362 32.7874 237.097 32.5117 236.732 32.3184C236.374 32.125 235.901 32.0283 235.314 32.0283H232.241L232.263 29.9443H236.173L236.85 30.75C237.752 30.7572 238.486 30.9362 239.052 31.2871C239.625 31.638 240.047 32.0892 240.319 32.6406C240.592 33.1921 240.728 33.7865 240.728 34.4238C240.728 35.4264 240.509 36.2679 240.072 36.9482C239.643 37.6286 239.013 38.1406 238.182 38.4844C237.358 38.8281 236.359 39 235.185 39ZM260.263 25.7334L255.805 39H252.679L258.522 23.3594H260.52L260.263 25.7334ZM263.99 39L259.511 25.7334L259.242 23.3594H261.251L267.127 39H263.99ZM263.786 33.1885V35.5195H255.396V33.1885H263.786ZM271.281 37.6143C271.281 37.1846 271.428 36.8229 271.722 36.5293C272.016 36.2357 272.413 36.0889 272.914 36.0889C273.416 36.0889 273.813 36.2357 274.107 36.5293C274.4 36.8229 274.547 37.1846 274.547 37.6143C274.547 38.0368 274.4 38.3949 274.107 38.6885C273.813 38.9749 273.416 39.1182 272.914 39.1182C272.413 39.1182 272.016 38.9749 271.722 38.6885C271.428 38.3949 271.281 38.0368 271.281 37.6143ZM286.264 32.0283H282.268L282.247 29.9443H285.673C286.261 29.9443 286.751 29.862 287.145 29.6973C287.539 29.5326 287.836 29.2926 288.037 28.9775C288.244 28.6624 288.348 28.2793 288.348 27.8281C288.348 27.3268 288.252 26.9186 288.058 26.6035C287.872 26.2884 287.578 26.0592 287.177 25.916C286.776 25.7656 286.268 25.6904 285.652 25.6904H283.224V39H280.27V23.3594H285.652C286.54 23.3594 287.331 23.4453 288.026 23.6172C288.728 23.7819 289.322 24.0397 289.809 24.3906C290.296 24.7415 290.665 25.182 290.916 25.7119C291.173 26.2419 291.302 26.8721 291.302 27.6025C291.302 28.2471 291.152 28.8415 290.851 29.3857C290.558 29.9229 290.103 30.3597 289.487 30.6963C288.878 31.0329 288.105 31.2262 287.167 31.2764L286.264 32.0283ZM286.135 39H281.398L282.633 36.6797H286.135C286.723 36.6797 287.206 36.583 287.586 36.3896C287.972 36.1963 288.259 35.9313 288.445 35.5947C288.638 35.251 288.735 34.8571 288.735 34.4131C288.735 33.9261 288.649 33.5036 288.477 33.1455C288.312 32.7874 288.047 32.5117 287.682 32.3184C287.324 32.125 286.851 32.0283 286.264 32.0283H283.192L283.213 29.9443H287.124L287.8 30.75C288.703 30.7572 289.437 30.9362 290.003 31.2871C290.575 31.638 290.998 32.0892 291.27 32.6406C291.542 33.1921 291.678 33.7865 291.678 34.4238C291.678 35.4264 291.46 36.2679 291.023 36.9482C290.593 37.6286 289.963 38.1406 289.132 38.4844C288.309 38.8281 287.31 39 286.135 39ZM296.778 37.6143C296.778 37.1846 296.925 36.8229 297.219 36.5293C297.512 36.2357 297.91 36.0889 298.411 36.0889C298.912 36.0889 299.31 36.2357 299.603 36.5293C299.897 36.8229 300.044 37.1846 300.044 37.6143C300.044 38.0368 299.897 38.3949 299.603 38.6885C299.31 38.9749 298.912 39.1182 298.411 39.1182C297.91 39.1182 297.512 38.9749 297.219 38.6885C296.925 38.3949 296.778 38.0368 296.778 37.6143Z" fill="white"/>
<path d="M126.186 54.2808L122.655 64H121.212L125.277 53.3359H126.208L126.186 54.2808ZM129.145 64L125.607 54.2808L125.585 53.3359H126.515L130.595 64H129.145ZM128.961 60.0522V61.2095H122.97V60.0522H128.961ZM140.556 62.8501V64H132.484V62.8501H140.556ZM132.711 62.8501V66.6221H131.312L131.305 62.8501H132.711ZM141.786 62.8501L141.771 66.6147H140.373V62.8501H141.786ZM139.171 53.3359V54.4932H134.499V53.3359H139.171ZM140.387 53.3359V64H138.981V53.3359H140.387ZM134.015 53.3359H135.429L135.209 57.6279C135.18 58.2725 135.119 58.8682 135.026 59.415C134.933 59.957 134.818 60.4526 134.682 60.9019C134.545 61.3511 134.389 61.7539 134.213 62.1104C134.037 62.4619 133.849 62.7671 133.649 63.0259C133.449 63.2798 133.239 63.4897 133.019 63.6558C132.804 63.8169 132.587 63.9316 132.367 64H131.723V62.8501H132.177C132.304 62.7134 132.448 62.5156 132.609 62.2568C132.775 61.998 132.938 61.6636 133.1 61.2534C133.266 60.8384 133.41 60.333 133.532 59.7373C133.659 59.1416 133.744 58.4385 133.788 57.6279L134.015 53.3359ZM147.25 59.0122H144.547L144.533 57.877H146.986C147.392 57.877 147.746 57.8086 148.048 57.6719C148.351 57.5352 148.585 57.3398 148.751 57.0859C148.922 56.8271 149.008 56.5195 149.008 56.1631C149.008 55.7725 148.932 55.4551 148.781 55.2109C148.634 54.9619 148.407 54.7812 148.1 54.6689C147.797 54.5518 147.411 54.4932 146.942 54.4932H144.862V64H143.449V53.3359H146.942C147.489 53.3359 147.978 53.3921 148.407 53.5044C148.837 53.6118 149.201 53.7827 149.499 54.0171C149.801 54.2466 150.031 54.5396 150.187 54.896C150.343 55.2524 150.421 55.6797 150.421 56.1777C150.421 56.6172 150.309 57.0151 150.084 57.3716C149.86 57.7231 149.547 58.0112 149.147 58.2358C148.751 58.4604 148.288 58.6045 147.755 58.668L147.25 59.0122ZM147.184 64H143.991L144.789 62.8501H147.184C147.633 62.8501 148.014 62.772 148.327 62.6157C148.644 62.4595 148.886 62.2397 149.052 61.9565C149.218 61.6685 149.301 61.3291 149.301 60.9385C149.301 60.543 149.23 60.2012 149.088 59.9131C148.947 59.625 148.725 59.4028 148.422 59.2466C148.119 59.0903 147.729 59.0122 147.25 59.0122H145.236L145.25 57.877H148.004L148.305 58.2871C148.817 58.3311 149.252 58.4775 149.608 58.7266C149.965 58.9707 150.236 59.2832 150.421 59.6641C150.612 60.0449 150.707 60.4648 150.707 60.9238C150.707 61.5879 150.561 62.1494 150.268 62.6084C149.979 63.0625 149.572 63.4092 149.044 63.6484C148.517 63.8828 147.897 64 147.184 64ZM161.005 58.3311V59.0049C161.005 59.8057 160.905 60.5234 160.705 61.1582C160.504 61.793 160.216 62.3325 159.84 62.7769C159.464 63.2212 159.013 63.5605 158.485 63.7949C157.963 64.0293 157.377 64.1465 156.728 64.1465C156.098 64.1465 155.519 64.0293 154.992 63.7949C154.469 63.5605 154.015 63.2212 153.629 62.7769C153.249 62.3325 152.953 61.793 152.743 61.1582C152.533 60.5234 152.428 59.8057 152.428 59.0049V58.3311C152.428 57.5303 152.531 56.8149 152.736 56.1851C152.946 55.5503 153.241 55.0107 153.622 54.5664C154.003 54.1172 154.455 53.7754 154.977 53.541C155.504 53.3066 156.083 53.1895 156.713 53.1895C157.362 53.1895 157.948 53.3066 158.471 53.541C158.998 53.7754 159.45 54.1172 159.826 54.5664C160.207 55.0107 160.497 55.5503 160.697 56.1851C160.902 56.8149 161.005 57.5303 161.005 58.3311ZM159.606 59.0049V58.3164C159.606 57.6816 159.54 57.1201 159.408 56.6318C159.281 56.1436 159.093 55.7334 158.844 55.4014C158.595 55.0693 158.29 54.8179 157.929 54.647C157.572 54.4761 157.167 54.3906 156.713 54.3906C156.273 54.3906 155.875 54.4761 155.519 54.647C155.167 54.8179 154.865 55.0693 154.611 55.4014C154.362 55.7334 154.169 56.1436 154.032 56.6318C153.896 57.1201 153.827 57.6816 153.827 58.3164V59.0049C153.827 59.6445 153.896 60.2109 154.032 60.7041C154.169 61.1924 154.364 61.605 154.618 61.9419C154.877 62.2739 155.182 62.5254 155.534 62.6963C155.89 62.8672 156.288 62.9526 156.728 62.9526C157.187 62.9526 157.594 62.8672 157.951 62.6963C158.307 62.5254 158.607 62.2739 158.852 61.9419C159.101 61.605 159.289 61.1924 159.416 60.7041C159.542 60.2109 159.606 59.6445 159.606 59.0049ZM164.601 53.3359V64H163.188V53.3359H164.601ZM171.171 53.3359L166.542 59.2026H164.037L163.817 58.0308H165.7L169.42 53.3359H171.171ZM169.75 64L165.744 59.0195L166.535 57.7817L171.479 64H169.75ZM176.708 54.2808L173.178 64H171.735L175.8 53.3359H176.73L176.708 54.2808ZM179.667 64L176.129 54.2808L176.107 53.3359H177.038L181.117 64H179.667ZM179.484 60.0522V61.2095H173.493V60.0522H179.484ZM185.534 53.3359V64H184.142V53.3359H185.534ZM188.961 53.3359V54.4932H180.722V53.3359H188.961ZM196.776 60.6089H198.183C198.109 61.2827 197.917 61.8857 197.604 62.418C197.292 62.9502 196.85 63.3726 196.278 63.6851C195.707 63.9927 194.994 64.1465 194.14 64.1465C193.515 64.1465 192.946 64.0293 192.433 63.7949C191.925 63.5605 191.488 63.2285 191.122 62.7988C190.756 62.3643 190.473 61.8442 190.272 61.2388C190.077 60.6284 189.979 59.9497 189.979 59.2026V58.1406C189.979 57.3936 190.077 56.7173 190.272 56.1118C190.473 55.5015 190.758 54.979 191.129 54.5444C191.505 54.1099 191.957 53.7754 192.484 53.541C193.012 53.3066 193.605 53.1895 194.264 53.1895C195.07 53.1895 195.751 53.3408 196.308 53.6436C196.864 53.9463 197.296 54.3662 197.604 54.9033C197.917 55.4355 198.109 56.0532 198.183 56.7563H196.776C196.708 56.2583 196.581 55.8311 196.396 55.4746C196.21 55.1133 195.946 54.835 195.604 54.6396C195.263 54.4443 194.816 54.3467 194.264 54.3467C193.791 54.3467 193.373 54.437 193.012 54.6177C192.655 54.7983 192.355 55.0547 192.111 55.3867C191.872 55.7188 191.691 56.1167 191.569 56.5806C191.447 57.0444 191.386 57.5596 191.386 58.126V59.2026C191.386 59.7251 191.439 60.2158 191.547 60.6748C191.659 61.1338 191.828 61.5366 192.052 61.8833C192.277 62.23 192.562 62.5034 192.909 62.7036C193.256 62.8989 193.666 62.9966 194.14 62.9966C194.74 62.9966 195.219 62.9014 195.575 62.7109C195.932 62.5205 196.2 62.2471 196.381 61.8906C196.566 61.5342 196.698 61.1069 196.776 60.6089ZM201.588 53.3359V64H200.175V53.3359H201.588ZM208.158 53.3359L203.529 59.2026H201.024L200.805 58.0308H202.687L206.408 53.3359H208.158ZM206.737 64L202.731 59.0195L203.522 57.7817L208.466 64H206.737ZM211.22 61.5537L216.471 53.3359H217.885V64H216.471V55.7749L211.22 64H209.813V53.3359H211.22V61.5537ZM221.928 61.5537L227.179 53.3359H228.593V64H227.179V55.7749L221.928 64H220.521V53.3359H221.928V61.5537ZM225.678 50.6919H226.776C226.776 51.0728 226.688 51.4121 226.513 51.71C226.337 52.0029 226.085 52.2324 225.758 52.3984C225.431 52.5645 225.043 52.6475 224.594 52.6475C223.915 52.6475 223.378 52.4668 222.982 52.1055C222.592 51.7393 222.396 51.2681 222.396 50.6919H223.495C223.495 50.98 223.578 51.2339 223.744 51.4536C223.91 51.6733 224.193 51.7832 224.594 51.7832C224.984 51.7832 225.263 51.6733 225.429 51.4536C225.595 51.2339 225.678 50.98 225.678 50.6919ZM236.364 53.3359V64H234.95V53.3359H236.364ZM242.934 53.3359L238.305 59.2026H235.8L235.58 58.0308H237.462L241.183 53.3359H242.934ZM241.513 64L237.506 59.0195L238.297 57.7817L243.241 64H241.513ZM248.471 54.2808L244.94 64H243.498L247.562 53.3359H248.493L248.471 54.2808ZM251.43 64L247.892 54.2808L247.87 53.3359H248.8L252.88 64H251.43ZM251.247 60.0522V61.2095H245.255V60.0522H251.247ZM260.812 53.3359V54.4932H255.67V64H254.264V53.3359H260.812ZM255.341 57.6792H258.249C259.03 57.6792 259.689 57.811 260.226 58.0747C260.763 58.3335 261.171 58.6973 261.449 59.166C261.728 59.6348 261.867 60.1841 261.867 60.814C261.867 61.2827 261.789 61.7124 261.632 62.103C261.476 62.4888 261.244 62.8257 260.937 63.1138C260.629 63.397 260.25 63.6167 259.801 63.7729C259.352 63.9243 258.834 64 258.249 64H254.264V53.3359H255.678V62.8501H258.249C258.771 62.8501 259.193 62.7549 259.516 62.5645C259.843 62.3691 260.082 62.1152 260.233 61.8027C260.385 61.4902 260.46 61.1558 260.46 60.7993C260.46 60.4429 260.385 60.1157 260.233 59.8179C260.082 59.52 259.843 59.2832 259.516 59.1074C259.193 58.9268 258.771 58.8364 258.249 58.8364H255.341V57.6792ZM265.243 61.5537L270.495 53.3359H271.908V64H270.495V55.7749L265.243 64H263.837V53.3359H265.243V61.5537ZM281.444 57.9209V59.0708H275.673V57.9209H281.444ZM275.893 53.3359V64H274.479V53.3359H275.893ZM282.675 53.3359V64H281.269V53.3359H282.675ZM291.962 62.8501V64H286.315V62.8501H291.962ZM286.601 53.3359V64H285.187V53.3359H286.601ZM291.215 57.9209V59.0708H286.315V57.9209H291.215ZM291.889 53.3359V54.4932H286.315V53.3359H291.889ZM297.799 53.3359V64H296.408V53.3359H297.799ZM301.227 53.3359V54.4932H292.987V53.3359H301.227Z" fill="white"/>
</svg>
