<svg width="147" height="119" viewBox="0 0 147 119" fill="none" xmlns="http://www.w3.org/2000/svg">
<g style="mix-blend-mode:luminosity">
<path d="M88.3251 19.0342L131.271 30.4556C131.848 30.6074 132.251 31.0719 132.267 31.6217C132.445 37.6248 133.373 71.404 131.929 76.2371C131.343 78.9857 128.619 88.0428 123.62 94.1507C119.793 98.8266 117.518 101.438 111.967 106.251C104.232 112.958 92.9294 118.962 88.3251 118.962C83.7181 118.962 72.409 112.958 64.6699 106.251C59.1159 101.438 56.839 98.8266 53.0098 94.1507C48.0078 88.0428 45.2825 78.9857 44.696 76.2371C43.251 71.404 44.1801 37.6248 44.3579 31.6217C44.3741 31.0719 44.7775 30.6074 45.3547 30.4556L88.3251 19.0342Z" fill="white"/>
<path d="M88.3066 23.3244L127.352 33.1563C127.89 33.2979 128.266 33.731 128.281 34.2437C128.447 39.8416 129.226 71.4117 127.879 75.9185C127.332 78.4816 124.495 85.4686 120.006 92.4266C116.691 96.7924 110.681 103.969 105.503 108.457C98.3999 114.122 93.08 116.628 89.0211 117.924C88.5543 118.073 88.054 118.086 87.5801 117.96C83.1095 116.774 79.6054 114.715 71.8699 109.276C66.6888 104.788 60.1103 96.7868 56.5382 92.4266C51.8721 86.7309 49.3504 78.4816 48.8033 75.9185C47.4554 71.4117 47.8904 39.8416 48.0562 34.2437C48.0714 33.731 48.4476 33.2979 48.9862 33.1563L88.3066 23.3244Z" fill="#2C2C2C"/>
<path d="M52.5759 58.1767C55.6576 58.3879 56.9041 57.5144 56.9041 57.5144L58.2517 56.781L57.5169 71.1542C57.5169 71.1542 52.9407 66.2193 51.6894 66.2881C47.9164 66.4955 46.9093 70.3968 43.8481 72.7221C40.1341 75.5433 37.6404 77.2478 33.0512 77.706C28.9153 78.119 22.7808 75.5931 22.7808 75.5931C22.7808 75.5931 38.2448 71.0073 38.5221 63.0936C38.7421 56.8158 29.5002 49.1793 29.5002 49.1793L32.1665 48.0315L28.1366 48.1433L26.9013 47.1499L30.4654 46.3012L23.6578 45.342L10.0185 38.1884C10.0185 38.1884 29.3882 41.0404 39.3318 47.0736C45.0935 50.5695 49.7446 57.6217 52.5759 58.1767Z" fill="#F7B70B"/>
<path d="M42.274 54.4052C39.964 51.9155 35.9694 49.1709 35.9694 49.1709C35.9694 49.1709 40.9889 53.6914 43.2947 57.0223C44.3434 58.5372 45.0998 60.0751 46.4771 61.305C48.8934 63.4628 55.0032 63.4463 55.0032 63.4463L54.8231 60.9481C54.8231 60.9481 49.9055 61.5061 47.5578 59.9964C45.6499 58.7695 43.8133 56.0642 42.274 54.4052Z" fill="#2C2C2C"/>
<path d="M117.011 81.419L145.414 96.7552L121.283 76.6425C119.468 75.1305 118.518 72.8608 118.752 70.5757C119.173 66.4653 119.57 63.1816 119.822 60.5121C121.103 46.9097 118.592 49.2526 96.0081 39.4257C95.7803 39.3266 95.6073 39.121 95.5659 38.8859C95.5659 38.8859 92.7333 32.9812 92.7903 25.3168C92.8465 17.7542 95.2601 0 95.2601 0C95.2601 0 89.3384 11.4241 86.2453 19.049C83.1676 26.6358 79.4728 38.8859 79.4728 38.8859C79.4314 39.1211 79.2585 39.3266 79.0307 39.4258C56.4471 49.2527 53.9353 46.9097 55.2168 60.5121C55.4683 63.1817 55.8659 66.4653 56.2865 70.5757C56.5204 72.8608 55.5706 75.1305 53.7556 76.6425L29.6248 96.7553L58.0277 81.4191L64.017 77.9165L74.9459 84.0613L87.4888 86.3949L100.093 84.0613L111.022 77.9165L117.011 81.419Z" fill="#F7B70B"/>
<path d="M145.515 96.7369C141.539 94.1319 141.294 93.9501 141.294 93.9501L118.531 77.6954L115.077 66.6182C115.077 66.6182 111.906 73.8555 111.347 74.6909C110.356 76.1703 110.289 76.394 108.901 77.1188C104.774 79.2735 103.031 79.7895 98.996 81.6407C94.9606 83.492 93.646 84.19 91.6894 84.9487C89.7756 85.6909 88.4188 85.7594 88.3604 85.7621C88.3604 85.7621 86.9793 85.7473 85.0198 84.987C83.0602 84.2267 81.7437 83.5272 77.7021 81.6721C73.6605 79.8169 71.9153 79.2999 67.7819 77.1407C66.3915 76.4144 66.3247 76.1903 65.3324 74.7077C64.7721 73.8706 61.597 66.6182 61.597 66.6182L58.1372 77.7185L35.3398 94.0071C35.3398 94.0071 35.0947 94.1893 31.1119 96.7997C21.5534 105.724 61.2005 87.0541 61.2005 87.0541C63.9015 86.1703 66.8875 86.8265 68.9624 88.6894C75.8339 94.8588 84.2666 101.514 88.3571 101.514C92.4415 101.514 100.861 94.8 107.722 88.6435C109.794 86.7845 112.776 86.1296 115.473 87.0115C115.473 87.0115 155.059 105.642 145.515 96.7369Z" fill="white"/>
<path fill-rule="evenodd" clip-rule="evenodd" d="M62.934 65.0322L77.2094 77.7214C63.9033 74.8731 66.9308 77.8558 62.934 65.0322Z" fill="#2C2C2C"/>
<path fill-rule="evenodd" clip-rule="evenodd" d="M112.105 65.0322L97.8293 77.7214C111.135 74.8731 108.108 77.8558 112.105 65.0322Z" fill="#2C2C2C"/>
<path d="M88.3606 90.4103H97.8131C97.8131 90.4103 98.1369 90.1171 95.8949 89.5199C94.1296 89.0497 90.124 88.8419 88.3606 88.8242V90.4103Z" fill="#2C2C2C"/>
<path d="M88.3606 90.4103L78.8118 90.4104C78.8118 90.4104 78.4878 90.1171 80.7311 89.52C82.4974 89.0498 86.5961 88.8419 88.3606 88.8242V90.4103Z" fill="#2C2C2C"/>
<path d="M91.2552 24.7379C91.3378 23.4815 93.0709 11.1035 93.0709 11.1035C93.0709 11.1035 90.9156 16.9154 89.925 21.2862C89.3465 23.4232 88.8317 25.6227 88.8193 31.0246C88.812 34.1996 89.077 39.5409 89.1126 40.2432C89.115 40.2914 89.1453 40.3319 89.1905 40.3504L95.5467 42.9438C95.5467 42.9438 94.2787 41.9417 93.7663 41.2519C92.5594 39.5587 92.119 37.11 91.8065 34.4098C91.4941 31.7095 91.086 27.3136 91.2552 24.7379Z" fill="#2C2C2C"/>
</g>
</svg>
