<svg width="187" height="55" viewBox="0 0 187 55" fill="none" xmlns="http://www.w3.org/2000/svg">
<path d="M3.8457 33.3594L6.97168 38.9346L10.1084 33.3594H13.5029L8.8623 41.1152L13.6211 49H10.1943L6.97168 43.3174L3.75977 49H0.322266L5.08105 41.1152L0.44043 33.3594H3.8457ZM30.9023 40.7822V41.5879C30.9023 42.7695 30.7447 43.833 30.4296 44.7783C30.1145 45.7165 29.6669 46.515 29.0868 47.1738C28.5068 47.8327 27.8157 48.3376 27.0136 48.6885C26.2115 49.0394 25.3199 49.2148 24.3388 49.2148C23.372 49.2148 22.484 49.0394 21.6747 48.6885C20.8726 48.3376 20.178 47.8327 19.5907 47.1738C19.0035 46.515 18.5487 45.7165 18.2265 44.7783C17.9042 43.833 17.7431 42.7695 17.7431 41.5879V40.7822C17.7431 39.5934 17.9042 38.5299 18.2265 37.5918C18.5487 36.6536 18.9999 35.8551 19.58 35.1963C20.1601 34.5303 20.8512 34.0218 21.6532 33.6709C22.4625 33.32 23.3505 33.1445 24.3173 33.1445C25.2984 33.1445 26.19 33.32 26.9921 33.6709C27.7942 34.0218 28.4853 34.5303 29.0654 35.1963C29.6526 35.8551 30.1038 36.6536 30.4189 37.5918C30.7411 38.5299 30.9023 39.5934 30.9023 40.7822ZM27.9159 41.5879V40.7607C27.9159 39.9085 27.8372 39.1602 27.6796 38.5156C27.5221 37.8639 27.2893 37.3161 26.9814 36.8721C26.6734 36.4281 26.2939 36.0951 25.8427 35.873C25.3915 35.6439 24.8831 35.5293 24.3173 35.5293C23.7444 35.5293 23.2359 35.6439 22.7919 35.873C22.3551 36.0951 21.9827 36.4281 21.6747 36.8721C21.3668 37.3161 21.1305 37.8639 20.9657 38.5156C20.8082 39.1602 20.7294 39.9085 20.7294 40.7607V41.5879C20.7294 42.4329 20.8082 43.1813 20.9657 43.833C21.1305 44.4847 21.3668 45.0361 21.6747 45.4873C21.9898 45.9313 22.3694 46.2679 22.8134 46.4971C23.2574 46.7262 23.7659 46.8408 24.3388 46.8408C24.9117 46.8408 25.4202 46.7262 25.8642 46.4971C26.3082 46.2679 26.6806 45.9313 26.9814 45.4873C27.2893 45.0361 27.5221 44.4847 27.6796 43.833C27.8372 43.1813 27.9159 42.4329 27.9159 41.5879ZM37.7743 33.3594H40.3309L44.6063 45.1328L48.8709 33.3594H51.4383L45.6268 49H43.575L37.7743 33.3594ZM36.4852 33.3594H38.9881L39.4393 44.1768V49H36.4852V33.3594ZM50.2137 33.3594H52.7274V49H49.7733V44.1768L50.2137 33.3594ZM63.7136 43.4463L67.6238 33.3594H70.8357L65.4431 46.0674C65.2641 46.4756 65.06 46.8695 64.8308 47.249C64.6017 47.6286 64.3259 47.9688 64.0037 48.2695C63.6886 48.5632 63.3054 48.7959 62.8543 48.9678C62.4102 49.1396 61.8731 49.2256 61.2429 49.2256C61.0782 49.2256 60.8813 49.2184 60.6521 49.2041C60.4229 49.1969 60.2475 49.1862 60.1257 49.1719V46.8516C60.2117 46.873 60.3513 46.8874 60.5447 46.8945C60.7452 46.9017 60.8884 46.9053 60.9744 46.9053C61.3897 46.9053 61.7192 46.8408 61.9627 46.7119C62.2133 46.5758 62.4102 46.3932 62.5535 46.1641C62.7039 45.9277 62.8364 45.6592 62.9509 45.3584L63.7136 43.4463ZM60.9421 33.3594L64.6912 41.5557L65.572 44.7461L63.3269 44.8105L57.741 33.3594H60.9421ZM78.7604 33.3594V49H75.8063V33.3594H78.7604ZM88.0739 33.3594L81.8971 42.4043H78.0192L77.6325 39.8047H80.2966L84.4753 33.3594H88.0739ZM85.0339 49L80.318 41.9316L82.3054 39.751L88.568 49H85.0339ZM105.377 40.7822V41.5879C105.377 42.7695 105.219 43.833 104.904 44.7783C104.589 45.7165 104.141 46.515 103.561 47.1738C102.981 47.8327 102.29 48.3376 101.488 48.6885C100.686 49.0394 99.7942 49.2148 98.8131 49.2148C97.8463 49.2148 96.9583 49.0394 96.149 48.6885C95.3469 48.3376 94.6523 47.8327 94.065 47.1738C93.4778 46.515 93.023 45.7165 92.7008 44.7783C92.3785 43.833 92.2174 42.7695 92.2174 41.5879V40.7822C92.2174 39.5934 92.3785 38.5299 92.7008 37.5918C93.023 36.6536 93.4742 35.8551 94.0543 35.1963C94.6344 34.5303 95.3255 34.0218 96.1275 33.6709C96.9368 33.32 97.8248 33.1445 98.7916 33.1445C99.7727 33.1445 100.664 33.32 101.466 33.6709C102.268 34.0218 102.96 34.5303 103.54 35.1963C104.127 35.8551 104.578 36.6536 104.893 37.5918C105.215 38.5299 105.377 39.5934 105.377 40.7822ZM102.39 41.5879V40.7607C102.39 39.9085 102.311 39.1602 102.154 38.5156C101.996 37.8639 101.764 37.3161 101.456 36.8721C101.148 36.4281 100.768 36.0951 100.317 35.873C99.8658 35.6439 99.3574 35.5293 98.7916 35.5293C98.2187 35.5293 97.7102 35.6439 97.2662 35.873C96.8294 36.0951 96.457 36.4281 96.149 36.8721C95.8411 37.3161 95.6048 37.8639 95.44 38.5156C95.2825 39.1602 95.2037 39.9085 95.2037 40.7607V41.5879C95.2037 42.4329 95.2825 43.1813 95.44 43.833C95.6048 44.4847 95.8411 45.0361 96.149 45.4873C96.4641 45.9313 96.8437 46.2679 97.2877 46.4971C97.7317 46.7262 98.2402 46.8408 98.8131 46.8408C99.386 46.8408 99.8945 46.7262 100.338 46.4971C100.782 46.2679 101.155 45.9313 101.456 45.4873C101.764 45.0361 101.996 44.4847 102.154 43.833C102.311 43.1813 102.39 42.4329 102.39 41.5879ZM116.954 42.0283H112.958L112.936 39.9443H116.363C116.95 39.9443 117.441 39.862 117.834 39.6973C118.228 39.5326 118.526 39.2926 118.726 38.9775C118.934 38.6624 119.038 38.2793 119.038 37.8281C119.038 37.3268 118.941 36.9186 118.748 36.6035C118.561 36.2884 118.268 36.0592 117.867 35.916C117.466 35.7656 116.957 35.6904 116.341 35.6904H113.914V49H110.959V33.3594H116.341C117.229 33.3594 118.021 33.4453 118.715 33.6172C119.417 33.7819 120.012 34.0397 120.499 34.3906C120.986 34.7415 121.354 35.182 121.605 35.7119C121.863 36.2419 121.992 36.8721 121.992 37.6025C121.992 38.2471 121.841 38.8415 121.541 39.3857C121.247 39.9229 120.792 40.3597 120.176 40.6963C119.568 41.0329 118.794 41.2262 117.856 41.2764L116.954 42.0283ZM116.825 49H112.087L113.323 46.6797H116.825C117.412 46.6797 117.895 46.583 118.275 46.3896C118.662 46.1963 118.948 45.9313 119.134 45.5947C119.328 45.251 119.424 44.8571 119.424 44.4131C119.424 43.9261 119.338 43.5036 119.167 43.1455C119.002 42.7874 118.737 42.5117 118.372 42.3184C118.014 42.125 117.541 42.0283 116.954 42.0283H113.881L113.903 39.9443H117.813L118.49 40.75C119.392 40.7572 120.126 40.9362 120.692 41.2871C121.265 41.638 121.687 42.0892 121.959 42.6406C122.232 43.1921 122.368 43.7865 122.368 44.4238C122.368 45.4264 122.149 46.2679 121.712 46.9482C121.283 47.6286 120.653 48.1406 119.822 48.4844C118.998 48.8281 117.999 49 116.825 49ZM142.783 35.7334L138.325 49H135.199L141.042 33.3594H143.04L142.783 35.7334ZM146.51 49L142.031 35.7334L141.762 33.3594H143.771L149.647 49H146.51ZM146.306 43.1885V45.5195H137.916V43.1885H146.306ZM154.241 47.6143C154.241 47.1846 154.388 46.8229 154.682 46.5293C154.976 46.2357 155.373 46.0889 155.874 46.0889C156.376 46.0889 156.773 46.2357 157.067 46.5293C157.36 46.8229 157.507 47.1846 157.507 47.6143C157.507 48.0368 157.36 48.3949 157.067 48.6885C156.773 48.9749 156.376 49.1182 155.874 49.1182C155.373 49.1182 154.976 48.9749 154.682 48.6885C154.388 48.3949 154.241 48.0368 154.241 47.6143ZM169.664 42.0283H165.668L165.647 39.9443H169.073C169.661 39.9443 170.151 39.862 170.545 39.6973C170.939 39.5326 171.236 39.2926 171.437 38.9775C171.644 38.6624 171.748 38.2793 171.748 37.8281C171.748 37.3268 171.652 36.9186 171.458 36.6035C171.272 36.2884 170.978 36.0592 170.577 35.916C170.176 35.7656 169.668 35.6904 169.052 35.6904H166.624V49H163.67V33.3594H169.052C169.94 33.3594 170.731 33.4453 171.426 33.6172C172.128 33.7819 172.722 34.0397 173.209 34.3906C173.696 34.7415 174.065 35.182 174.316 35.7119C174.573 36.2419 174.702 36.8721 174.702 37.6025C174.702 38.2471 174.552 38.8415 174.251 39.3857C173.958 39.9229 173.503 40.3597 172.887 40.6963C172.278 41.0329 171.505 41.2262 170.567 41.2764L169.664 42.0283ZM169.535 49H164.798L166.033 46.6797H169.535C170.123 46.6797 170.606 46.583 170.986 46.3896C171.372 46.1963 171.659 45.9313 171.845 45.5947C172.038 45.251 172.135 44.8571 172.135 44.4131C172.135 43.9261 172.049 43.5036 171.877 43.1455C171.712 42.7874 171.447 42.5117 171.082 42.3184C170.724 42.125 170.252 42.0283 169.664 42.0283H166.592L166.613 39.9443H170.524L171.2 40.75C172.103 40.7572 172.837 40.9362 173.403 41.2871C173.975 41.638 174.398 42.0892 174.67 42.6406C174.942 43.1921 175.078 43.7865 175.078 44.4238C175.078 45.4264 174.86 46.2679 174.423 46.9482C173.993 47.6286 173.363 48.1406 172.532 48.4844C171.709 48.8281 170.71 49 169.535 49ZM180.618 47.6143C180.618 47.1846 180.765 46.8229 181.059 46.5293C181.352 46.2357 181.75 46.0889 182.251 46.0889C182.752 46.0889 183.15 46.2357 183.443 46.5293C183.737 46.8229 183.884 47.1846 183.884 47.6143C183.884 48.0368 183.737 48.3949 183.443 48.6885C183.15 48.9749 182.752 49.1182 182.251 49.1182C181.75 49.1182 181.352 48.9749 181.059 48.6885C180.765 48.3949 180.618 48.0368 180.618 47.6143Z" fill="white"/>
<path d="M5.18555 9.28076L1.65527 19H0.212402L4.27734 8.33594H5.20752L5.18555 9.28076ZM8.14453 19L4.60693 9.28076L4.58496 8.33594H5.51514L9.59473 19H8.14453ZM7.96143 15.0522V16.2095H1.97021V15.0522H7.96143ZM19.5557 17.8501V19H11.4844V17.8501H19.5557ZM11.7114 17.8501V21.6221H10.3125L10.3052 17.8501H11.7114ZM20.7861 17.8501L20.7715 21.6147H19.3726V17.8501H20.7861ZM18.1714 8.33594V9.49316H13.4985V8.33594H18.1714ZM19.3872 8.33594V19H17.981V8.33594H19.3872ZM13.0151 8.33594H14.4287L14.209 12.6279C14.1797 13.2725 14.1187 13.8682 14.0259 14.415C13.9331 14.957 13.8184 15.4526 13.6816 15.9019C13.5449 16.3511 13.3887 16.7539 13.2129 17.1104C13.0371 17.4619 12.8491 17.7671 12.6489 18.0259C12.4487 18.2798 12.2388 18.4897 12.019 18.6558C11.8042 18.8169 11.5869 18.9316 11.3672 19H10.7227V17.8501H11.1768C11.3037 17.7134 11.4478 17.5156 11.6089 17.2568C11.7749 16.998 11.9385 16.6636 12.0996 16.2534C12.2656 15.8384 12.4097 15.333 12.5317 14.7373C12.6587 14.1416 12.7441 13.4385 12.7881 12.6279L13.0151 8.33594ZM26.25 14.0122H23.5474L23.5327 12.877H25.9863C26.3916 12.877 26.7456 12.8086 27.0483 12.6719C27.3511 12.5352 27.5854 12.3398 27.7515 12.0859C27.9224 11.8271 28.0078 11.5195 28.0078 11.1631C28.0078 10.7725 27.9321 10.4551 27.7808 10.2109C27.6343 9.96191 27.4072 9.78125 27.0996 9.66895C26.7969 9.55176 26.4111 9.49316 25.9424 9.49316H23.8623V19H22.4487V8.33594H25.9424C26.4893 8.33594 26.9775 8.39209 27.4072 8.50439C27.8369 8.61182 28.2007 8.78271 28.4985 9.01709C28.8013 9.24658 29.0308 9.53955 29.187 9.896C29.3433 10.2524 29.4214 10.6797 29.4214 11.1777C29.4214 11.6172 29.3091 12.0151 29.0845 12.3716C28.8599 12.7231 28.5474 13.0112 28.147 13.2358C27.7515 13.4604 27.2876 13.6045 26.7554 13.668L26.25 14.0122ZM26.1841 19H22.9907L23.7891 17.8501H26.1841C26.6333 17.8501 27.0142 17.772 27.3267 17.6157C27.644 17.4595 27.8857 17.2397 28.0518 16.9565C28.2178 16.6685 28.3008 16.3291 28.3008 15.9385C28.3008 15.543 28.23 15.2012 28.0884 14.9131C27.9468 14.625 27.7246 14.4028 27.4219 14.2466C27.1191 14.0903 26.7285 14.0122 26.25 14.0122H24.2358L24.2505 12.877H27.0044L27.3047 13.2871C27.8174 13.3311 28.252 13.4775 28.6084 13.7266C28.9648 13.9707 29.2358 14.2832 29.4214 14.6641C29.6118 15.0449 29.707 15.4648 29.707 15.9238C29.707 16.5879 29.5605 17.1494 29.2676 17.6084C28.9795 18.0625 28.5718 18.4092 28.0444 18.6484C27.5171 18.8828 26.897 19 26.1841 19ZM40.0049 13.3311V14.0049C40.0049 14.8057 39.9048 15.5234 39.7046 16.1582C39.5044 16.793 39.2163 17.3325 38.8403 17.7769C38.4644 18.2212 38.0127 18.5605 37.4854 18.7949C36.9629 19.0293 36.377 19.1465 35.7275 19.1465C35.0977 19.1465 34.519 19.0293 33.9917 18.7949C33.4692 18.5605 33.0151 18.2212 32.6294 17.7769C32.2485 17.3325 31.9531 16.793 31.7432 16.1582C31.5332 15.5234 31.4282 14.8057 31.4282 14.0049V13.3311C31.4282 12.5303 31.5308 11.8149 31.7358 11.1851C31.9458 10.5503 32.2412 10.0107 32.6221 9.56641C33.0029 9.11719 33.4546 8.77539 33.9771 8.54102C34.5044 8.30664 35.083 8.18945 35.7129 8.18945C36.3623 8.18945 36.9482 8.30664 37.4707 8.54102C37.998 8.77539 38.4497 9.11719 38.8257 9.56641C39.2065 10.0107 39.4971 10.5503 39.6973 11.1851C39.9023 11.8149 40.0049 12.5303 40.0049 13.3311ZM38.606 14.0049V13.3164C38.606 12.6816 38.54 12.1201 38.4082 11.6318C38.2812 11.1436 38.0933 10.7334 37.8442 10.4014C37.5952 10.0693 37.29 9.81787 36.9287 9.64697C36.5723 9.47607 36.167 9.39062 35.7129 9.39062C35.2734 9.39062 34.8755 9.47607 34.519 9.64697C34.1675 9.81787 33.8647 10.0693 33.6108 10.4014C33.3618 10.7334 33.1689 11.1436 33.0322 11.6318C32.8955 12.1201 32.8271 12.6816 32.8271 13.3164V14.0049C32.8271 14.6445 32.8955 15.2109 33.0322 15.7041C33.1689 16.1924 33.3643 16.605 33.6182 16.9419C33.877 17.2739 34.1821 17.5254 34.5337 17.6963C34.8901 17.8672 35.2881 17.9526 35.7275 17.9526C36.1865 17.9526 36.5942 17.8672 36.9507 17.6963C37.3071 17.5254 37.6074 17.2739 37.8516 16.9419C38.1006 16.605 38.2886 16.1924 38.4155 15.7041C38.5425 15.2109 38.606 14.6445 38.606 14.0049ZM43.6011 8.33594V19H42.1875V8.33594H43.6011ZM50.1709 8.33594L45.542 14.2026H43.0371L42.8174 13.0308H44.6997L48.4204 8.33594H50.1709ZM48.75 19L44.7437 14.0195L45.5347 12.7817L50.4785 19H48.75ZM55.708 9.28076L52.1777 19H50.7349L54.7998 8.33594H55.73L55.708 9.28076ZM58.667 19L55.1294 9.28076L55.1074 8.33594H56.0376L60.1172 19H58.667ZM58.4839 15.0522V16.2095H52.4927V15.0522H58.4839ZM64.5337 8.33594V19H63.1421V8.33594H64.5337ZM67.9614 8.33594V9.49316H59.7217V8.33594H67.9614ZM75.7764 15.6089H77.1826C77.1094 16.2827 76.9165 16.8857 76.604 17.418C76.2915 17.9502 75.8496 18.3726 75.2783 18.6851C74.707 18.9927 73.9941 19.1465 73.1396 19.1465C72.5146 19.1465 71.9458 19.0293 71.4331 18.7949C70.9253 18.5605 70.4883 18.2285 70.1221 17.7988C69.7559 17.3643 69.4727 16.8442 69.2725 16.2388C69.0771 15.6284 68.9795 14.9497 68.9795 14.2026V13.1406C68.9795 12.3936 69.0771 11.7173 69.2725 11.1118C69.4727 10.5015 69.7583 9.979 70.1294 9.54443C70.5054 9.10986 70.957 8.77539 71.4844 8.54102C72.0117 8.30664 72.605 8.18945 73.2642 8.18945C74.0698 8.18945 74.751 8.34082 75.3076 8.64355C75.8643 8.94629 76.2964 9.36621 76.604 9.90332C76.9165 10.4355 77.1094 11.0532 77.1826 11.7563H75.7764C75.708 11.2583 75.5811 10.8311 75.3955 10.4746C75.21 10.1133 74.9463 9.83496 74.6045 9.63965C74.2627 9.44434 73.8159 9.34668 73.2642 9.34668C72.7905 9.34668 72.373 9.43701 72.0117 9.61768C71.6553 9.79834 71.355 10.0547 71.1108 10.3867C70.8716 10.7188 70.6909 11.1167 70.5688 11.5806C70.4468 12.0444 70.3857 12.5596 70.3857 13.126V14.2026C70.3857 14.7251 70.4395 15.2158 70.5469 15.6748C70.6592 16.1338 70.8276 16.5366 71.0522 16.8833C71.2769 17.23 71.5625 17.5034 71.9092 17.7036C72.2559 17.8989 72.666 17.9966 73.1396 17.9966C73.7402 17.9966 74.2188 17.9014 74.5752 17.7109C74.9316 17.5205 75.2002 17.2471 75.3809 16.8906C75.5664 16.5342 75.6982 16.1069 75.7764 15.6089ZM80.5884 8.33594V19H79.1748V8.33594H80.5884ZM87.1582 8.33594L82.5293 14.2026H80.0244L79.8047 13.0308H81.687L85.4077 8.33594H87.1582ZM85.7373 19L81.731 14.0195L82.522 12.7817L87.4658 19H85.7373ZM90.2197 16.5537L95.4712 8.33594H96.8848V19H95.4712V10.7749L90.2197 19H88.8135V8.33594H90.2197V16.5537ZM100.928 16.5537L106.179 8.33594H107.593V19H106.179V10.7749L100.928 19H99.5215V8.33594H100.928V16.5537ZM104.678 5.69189H105.776C105.776 6.07275 105.688 6.41211 105.513 6.70996C105.337 7.00293 105.085 7.23242 104.758 7.39844C104.431 7.56445 104.043 7.64746 103.594 7.64746C102.915 7.64746 102.378 7.4668 101.982 7.10547C101.592 6.73926 101.396 6.26807 101.396 5.69189H102.495C102.495 5.97998 102.578 6.23389 102.744 6.45361C102.91 6.67334 103.193 6.7832 103.594 6.7832C103.984 6.7832 104.263 6.67334 104.429 6.45361C104.595 6.23389 104.678 5.97998 104.678 5.69189ZM115.364 8.33594V19H113.95V8.33594H115.364ZM121.934 8.33594L117.305 14.2026H114.8L114.58 13.0308H116.462L120.183 8.33594H121.934ZM120.513 19L116.506 14.0195L117.297 12.7817L122.241 19H120.513ZM127.471 9.28076L123.94 19H122.498L126.562 8.33594H127.493L127.471 9.28076ZM130.43 19L126.892 9.28076L126.87 8.33594H127.8L131.88 19H130.43ZM130.247 15.0522V16.2095H124.255V15.0522H130.247ZM139.812 8.33594V9.49316H134.67V19H133.264V8.33594H139.812ZM134.341 12.6792H137.249C138.03 12.6792 138.689 12.811 139.226 13.0747C139.763 13.3335 140.171 13.6973 140.449 14.166C140.728 14.6348 140.867 15.1841 140.867 15.814C140.867 16.2827 140.789 16.7124 140.632 17.103C140.476 17.4888 140.244 17.8257 139.937 18.1138C139.629 18.397 139.25 18.6167 138.801 18.7729C138.352 18.9243 137.834 19 137.249 19H133.264V8.33594H134.678V17.8501H137.249C137.771 17.8501 138.193 17.7549 138.516 17.5645C138.843 17.3691 139.082 17.1152 139.233 16.8027C139.385 16.4902 139.46 16.1558 139.46 15.7993C139.46 15.4429 139.385 15.1157 139.233 14.8179C139.082 14.52 138.843 14.2832 138.516 14.1074C138.193 13.9268 137.771 13.8364 137.249 13.8364H134.341V12.6792ZM144.243 16.5537L149.495 8.33594H150.908V19H149.495V10.7749L144.243 19H142.837V8.33594H144.243V16.5537ZM160.444 12.9209V14.0708H154.673V12.9209H160.444ZM154.893 8.33594V19H153.479V8.33594H154.893ZM161.675 8.33594V19H160.269V8.33594H161.675ZM170.962 17.8501V19H165.315V17.8501H170.962ZM165.601 8.33594V19H164.187V8.33594H165.601ZM170.215 12.9209V14.0708H165.315V12.9209H170.215ZM170.889 8.33594V9.49316H165.315V8.33594H170.889ZM176.799 8.33594V19H175.408V8.33594H176.799ZM180.227 8.33594V9.49316H171.987V8.33594H180.227Z" fill="white"/>
</svg>
