<svg width="69" height="103" viewBox="0 0 69 103" fill="none" xmlns="http://www.w3.org/2000/svg">
<path fill-rule="evenodd" clip-rule="evenodd" d="M61.5 55.5C64.1875 50.1692 66 39.0195 66 32.7346C66 15.07 53.0612 3 35.25 3C17.4388 3 3 15.07 3 32.7346C3 50.3992 18.3346 64.7192 36.1458 64.7192C35.7331 70.4269 35.0404 74.3201 33.4583 79.8231C31.3349 87.2091 27.75 100.5 27.75 100.5C27.75 100.5 41.9989 85.1605 48.6875 75.3808C54.3441 67.11 59.6883 59.3986 61.5 55.5Z" fill="#27262F"/>
<path d="M61.5 55.5L59.2676 54.3746L59.2497 54.4102L59.2328 54.4464L61.5 55.5ZM36.1458 64.7192L38.6393 64.8995L38.8331 62.2192H36.1458V64.7192ZM33.4583 79.8231L31.0557 79.1323L33.4583 79.8231ZM27.75 100.5L25.3363 99.8489C25.0369 100.959 25.5329 102.13 26.5383 102.687C27.5437 103.244 28.7994 103.044 29.5817 102.201L27.75 100.5ZM48.6875 75.3808L46.624 73.9695L46.624 73.9695L48.6875 75.3808ZM63.5 32.7346C63.5 35.6834 63.0695 39.8837 62.3 44.0176C61.5231 48.1921 60.4489 52.0315 59.2676 54.3746L63.7324 56.6254C65.2386 53.6378 66.4144 49.2369 67.2156 44.9326C68.0243 40.5877 68.5 36.0707 68.5 32.7346H63.5ZM35.25 5.5C43.5843 5.5 50.63 8.31683 55.5758 13.0494C60.5117 17.7724 63.5 24.5384 63.5 32.7346H68.5C68.5 23.2662 65.0188 15.1649 59.0326 9.43679C53.0562 3.71817 44.7269 0.5 35.25 0.5V5.5ZM5.5 32.7346C5.5 16.7033 18.5526 5.5 35.25 5.5V0.5C16.3251 0.5 0.5 13.4367 0.5 32.7346H5.5ZM36.1458 62.2192C19.6059 62.2192 5.5 48.9116 5.5 32.7346H0.5C0.5 51.8869 17.0634 67.2192 36.1458 67.2192V62.2192ZM33.6523 64.5389C33.2521 70.0736 32.5899 73.7958 31.0557 79.1323L35.861 80.5138C37.4909 74.8444 38.2141 70.7801 38.6393 64.8995L33.6523 64.5389ZM31.0557 79.1323C29.9891 82.8422 28.5583 88.025 27.3965 92.2716C26.8151 94.3967 26.3001 96.2907 25.9305 97.6535C25.7457 98.3349 25.5972 98.8835 25.4949 99.2619C25.4437 99.4511 25.4041 99.5978 25.3772 99.6972C25.3638 99.7469 25.3536 99.7847 25.3467 99.8102C25.3433 99.823 25.3407 99.8326 25.3389 99.8391C25.338 99.8423 25.3374 99.8448 25.3369 99.8464C25.3367 99.8473 25.3366 99.8479 25.3364 99.8483C25.3364 99.8485 25.3363 99.8487 25.3363 99.8488C25.3363 99.8489 25.3363 99.8489 27.75 100.5C30.1637 101.151 30.1637 101.151 30.1638 101.151C30.1638 101.151 30.1638 101.151 30.1639 101.15C30.164 101.15 30.1642 101.15 30.1644 101.149C30.1648 101.147 30.1654 101.145 30.1663 101.142C30.168 101.135 30.1706 101.126 30.174 101.113C30.1808 101.088 30.191 101.05 30.2043 101.001C30.231 100.902 30.2705 100.756 30.3215 100.567C30.4235 100.19 30.5717 99.6424 30.7561 98.9623C31.1251 97.6022 31.639 95.7119 32.2193 93.591C33.3807 89.3457 34.8041 84.19 35.861 80.5138L31.0557 79.1323ZM27.75 100.5C29.5817 102.201 29.5818 102.201 29.582 102.201C29.5821 102.201 29.5824 102.201 29.5826 102.2C29.5831 102.2 29.5839 102.199 29.5848 102.198C29.5868 102.196 29.5895 102.193 29.5932 102.189C29.6004 102.181 29.6111 102.17 29.625 102.155C29.653 102.125 29.6942 102.08 29.748 102.022C29.8556 101.905 30.0137 101.734 30.2168 101.513C30.623 101.07 31.2097 100.429 31.9342 99.6283C33.3828 98.0283 35.3843 95.7925 37.5969 93.2483C41.9999 88.1856 47.318 81.8116 50.751 76.7921L46.624 73.9695C43.3683 78.7296 38.2177 84.9153 33.8241 89.9672C31.6384 92.4804 29.6597 94.6907 28.2276 96.2725C27.5118 97.0632 26.933 97.6962 26.5339 98.1309C26.3343 98.3482 26.1797 98.5159 26.0753 98.6289C26.0231 98.6854 25.9835 98.7282 25.9571 98.7567C25.9439 98.7709 25.934 98.7816 25.9275 98.7886C25.9243 98.7921 25.9219 98.7947 25.9204 98.7964C25.9196 98.7972 25.919 98.7978 25.9187 98.7982C25.9185 98.7983 25.9184 98.7984 25.9183 98.7985C25.9183 98.7986 25.9183 98.7986 27.75 100.5ZM50.751 76.7921C53.5709 72.6691 56.3386 68.6481 58.624 65.1751C60.8842 61.7404 62.7729 58.6932 63.7672 56.5536L59.2328 54.4464C58.4154 56.2054 56.7262 58.9632 54.4472 62.4266C52.1934 65.8516 49.4607 69.8217 46.624 73.9695L50.751 76.7921Z" fill="white"/>
<path d="M36.3755 16.8287L52.5099 21.163C52.7267 21.2206 52.8781 21.3968 52.8842 21.6055C52.951 23.8836 53.2998 36.7024 52.7573 38.5365C52.5371 39.5796 51.5137 43.0166 49.6356 45.3345C48.1978 47.1089 47.3429 48.1 45.2575 49.9265C42.3516 52.4715 38.1053 54.75 36.3755 54.75C34.6446 54.75 30.3959 52.4715 27.4884 49.9265C25.4017 48.1 24.5463 47.1089 23.1077 45.3345C21.2285 43.0166 20.2046 39.5796 19.9843 38.5365C19.4414 36.7024 19.7905 23.8836 19.8573 21.6055C19.8634 21.3968 20.0149 21.2206 20.2318 21.163L36.3755 16.8287Z" fill="white"/>
<path d="M36.3685 18.4567L51.0374 22.1878C51.2396 22.2416 51.3809 22.4059 51.3866 22.6005C51.4489 24.7248 51.7417 36.7053 51.2356 38.4156C51.0302 39.3882 49.9642 42.0398 48.2777 44.6802C47.0323 46.337 44.7745 49.0605 42.8291 50.7636C40.1605 52.9132 38.1618 53.8642 36.637 54.3561C36.4616 54.4127 36.2736 54.4178 36.0956 54.37C34.416 53.9196 33.0995 53.1384 30.1934 51.0743C28.2468 49.3711 25.7753 46.3349 24.4333 44.6802C22.6803 42.5188 21.7329 39.3882 21.5274 38.4156C21.021 36.7053 21.1844 24.7248 21.2467 22.6005C21.2524 22.4059 21.3938 22.2416 21.5961 22.1878L36.3685 18.4567Z" fill="#2C2C2C"/>
<path d="M23.0146 31.9452C24.1895 32.0314 24.6626 31.7052 24.6626 31.7052L25.1745 31.432L24.9259 36.8424C24.9259 36.8424 23.1712 34.9743 22.6945 34.9974C21.2571 35.0673 20.8818 36.5341 19.7203 37.403C18.3111 38.4572 17.3645 39.0935 15.6166 39.256C14.0414 39.4025 11.6981 38.4381 11.6981 38.4381C11.6981 38.4381 17.5812 36.7451 17.6696 33.7659C17.7397 31.4026 14.201 28.5071 14.201 28.5071L15.2146 28.0807L13.6791 28.1141L13.2062 27.7373L14.5626 27.4255L11.9662 27.0496L6.75273 24.3263C6.75273 24.3263 14.1406 25.4423 17.9432 27.7357C20.1465 29.0645 21.9344 31.73 23.0146 31.9452Z" fill="#F7B70B"/>
<path d="M19.4259 30.1986C18.5329 29.2271 16.9888 28.1561 16.9888 28.1561C16.9888 28.1561 18.9291 29.9201 19.8205 31.2199C20.2259 31.811 20.5183 32.4111 21.0507 32.8911C21.9847 33.7331 24.3466 33.7267 24.3466 33.7267L24.2769 32.7518C24.2769 32.7518 22.376 32.9695 21.4684 32.3804C20.7309 31.9017 20.0209 30.846 19.4259 30.1986Z" fill="#2C2C2C"/>
<path d="M47.4473 40.5042L58.1243 46.2971L49.0533 38.7C48.371 38.1288 48.0139 37.2715 48.1018 36.4084C48.26 34.8558 48.4094 33.6154 48.504 32.6071C48.9857 27.4691 48.0415 28.3541 39.5521 24.6422C39.4664 24.6047 39.4014 24.5271 39.3859 24.4383C39.3859 24.4383 38.3211 22.2079 38.3425 19.3128C38.3636 16.4562 39.2709 9.75 39.2709 9.75C39.2709 9.75 37.0449 14.0652 35.8822 16.9453C34.7252 19.8111 33.3363 24.4383 33.3363 24.4383C33.3207 24.5271 33.2557 24.6047 33.1701 24.6422C24.6807 28.3541 23.7365 27.4691 24.2182 32.6071C24.3127 33.6154 24.4622 34.8558 24.6203 36.4084C24.7082 37.2715 24.3512 38.1288 23.6689 38.7L14.5979 46.2971L25.2748 40.5042L27.5263 39.1812L31.6346 41.5023L36.3496 42.3837L41.0876 41.5023L45.1959 39.1812L47.4473 40.5042Z" fill="#F7B70B"/>
<path d="M58.0545 46.2177C56.5458 45.2196 56.453 45.15 56.453 45.15L47.8171 38.9223L46.5065 34.6783C46.5065 34.6783 45.3037 37.4512 45.0915 37.7712C44.7156 38.3381 44.6903 38.4237 44.1636 38.7014C42.5978 39.527 41.9367 39.7246 40.4057 40.4339C38.8747 41.1432 38.376 41.4106 37.6337 41.7013C36.9076 41.9856 36.3929 42.0119 36.3707 42.0129C36.3707 42.0129 35.8468 42.0072 35.1033 41.716C34.3599 41.4247 33.8604 41.1567 32.3271 40.4459C30.7938 39.7352 30.1316 39.5371 28.5635 38.7098C28.036 38.4316 28.0106 38.3457 27.6342 37.7777C27.4216 37.457 26.217 34.6783 26.217 34.6783L24.9044 38.9312L16.2553 45.1718C16.2553 45.1718 16.1624 45.2416 14.6514 46.2418C11.025 49.6609 26.0666 42.5079 26.0666 42.5079C27.0913 42.1693 28.2242 42.4207 29.0114 43.1345C31.6183 45.4981 34.8176 48.0477 36.3695 48.0477C37.919 48.0477 41.1134 45.4756 43.7164 43.1169C44.5024 42.4046 45.6335 42.1537 46.6567 42.4916C46.6567 42.4916 61.6754 49.6297 58.0545 46.2177Z" fill="white"/>
<path fill-rule="evenodd" clip-rule="evenodd" d="M27.0878 34.0508L32.5171 38.8547C27.4564 37.7764 28.6079 38.9056 27.0878 34.0508Z" fill="#2C2C2C"/>
<path fill-rule="evenodd" clip-rule="evenodd" d="M45.612 34.0508L40.1858 38.8547C45.2436 37.7764 44.0928 38.9056 45.612 34.0508Z" fill="#2C2C2C"/>
<path d="M36.3694 44.2311H39.9058C39.9058 44.2311 40.0269 44.1214 39.1882 43.898C38.5277 43.7221 37.0292 43.6443 36.3694 43.6377V44.2311Z" fill="#2C2C2C"/>
<path d="M36.3694 44.2311L32.7971 44.2312C32.7971 44.2312 32.6759 44.1214 33.5151 43.898C34.1759 43.7221 35.7093 43.6443 36.3694 43.6377V44.2311Z" fill="#2C2C2C"/>
<path d="M37.5302 18.8718C37.5592 18.4076 38.1801 13.8351 38.1801 13.8351C38.1801 13.8351 37.3999 15.9809 37.0427 17.5952C36.8338 18.3844 36.6481 19.1968 36.6481 21.1929C36.6481 22.3661 36.7491 24.3401 36.7627 24.5996C36.7636 24.6175 36.7747 24.6325 36.7912 24.6393L39.1085 25.6029C39.1085 25.6029 38.6458 25.2316 38.4586 24.9763C38.0176 24.3496 37.8551 23.4443 37.739 22.4463C37.623 21.4482 37.4707 19.8235 37.5302 18.8718Z" fill="#2C2C2C"/>
</svg>
