<svg width="22" height="29" viewBox="0 0 22 29" fill="none" xmlns="http://www.w3.org/2000/svg">
<path d="M6.66972 12.223C6.66972 9.64188 8.60844 7.54948 11 7.54948C13.3915 7.54948 15.3302 9.64188 15.3302 12.223C15.3302 14.8041 13.3915 16.8965 11 16.8965C8.60844 16.8965 6.66972 14.8041 6.66972 12.223Z" fill="#F7B70B"/>
<path fill-rule="evenodd" clip-rule="evenodd" d="M0.0391749 10.6087C0.497033 4.61374 5.13878 0 10.7122 0H11.2878C16.8612 0 21.503 4.61374 21.9608 10.6087C22.2073 13.8364 21.2835 17.0414 19.384 19.5486L12.9978 27.9778C11.9653 29.3407 10.0347 29.3407 9.00217 27.9778L2.61598 19.5486C0.716457 17.0414 -0.20734 13.8364 0.0391749 10.6087ZM11 5.39249C7.50466 5.39249 4.67115 8.4506 4.67115 12.223C4.67115 15.9953 7.50466 19.0535 11 19.0535C14.4953 19.0535 17.3288 15.9953 17.3288 12.223C17.3288 8.4506 14.4953 5.39249 11 5.39249Z" fill="#F7B70B"/>
</svg>
