<svg width="1079" height="1113" viewBox="0 0 1079 1113" fill="none" xmlns="http://www.w3.org/2000/svg">
<mask id="mask0_312_353" style="mask-type:alpha" maskUnits="userSpaceOnUse" x="0" y="0" width="1079" height="1113">
<rect width="1079" height="1113" fill="#D9D9D9"/>
</mask>
<g mask="url(#mask0_312_353)">
<path d="M-835.981 1725.04C-306.38 1745.63 -274.071 1062.64 -11.6776 881.05C366.48 619.363 750.976 1013.87 817.541 693.099C884.107 372.328 955.36 84.5659 1340.42 300.775C1725.49 516.983 1781.32 245.343 1781.32 245.343" stroke="#F7B70B" stroke-opacity="0.1" stroke-width="0.6482" stroke-miterlimit="10"/>
<path d="M1775.83 237.167C1771.71 237.885 1713.73 519.112 1332.86 310.3C951.985 101.489 875.332 368.739 805.896 686.041C735.968 1003.75 366.535 634.6 -14.9448 896.925C-279.004 1078.63 -322.836 1731.95 -844.07 1709.82" stroke="#F7B70B" stroke-opacity="0.1" stroke-width="0.6553" stroke-miterlimit="10"/>
<path d="M1770.32 229.055C1762.08 230.492 1701.92 521.312 1325.27 319.891C948.626 118.469 866.572 365.206 794.237 679.046C720.945 993.689 366.598 649.865 -18.2261 912.865C-283.928 1094.66 -339.329 1718.25 -852.129 1694.6" stroke="#F7B70B" stroke-opacity="0.1" stroke-width="0.6623" stroke-miterlimit="10"/>
<path d="M1764.83 220.907C1752.48 223.063 1690.16 523.469 1317.71 329.445C945.258 135.422 857.804 361.645 782.576 672.053C705.892 983.64 366.667 665.16 -21.5083 928.805C-288.861 1110.65 -355.787 1704.57 -860.226 1679.36" stroke="#F7B70B" stroke-opacity="0.1" stroke-width="0.6694" stroke-miterlimit="10"/>
<path d="M1759.32 212.767C1742.88 215.633 1678.35 525.641 1310.12 339.007C941.893 152.373 849.747 358.272 770.911 665.03C691.565 973.713 366.753 680.389 -24.7882 944.744C-293.785 1126.67 -372.271 1690.9 -868.284 1664.14" stroke="#F7B70B" stroke-opacity="0.1" stroke-width="0.6764" stroke-miterlimit="10"/>
<path d="M1753.81 204.655C1733.24 208.211 1666.57 527.834 1302.54 348.598C938.526 169.325 841.119 354.768 759.25 658.036C676.711 963.704 366.822 695.683 -28.0777 960.655C-298.717 1142.66 -388.736 1677.19 -876.343 1648.92" stroke="#F7B70B" stroke-opacity="0.1" stroke-width="0.6835" stroke-miterlimit="10"/>
<path d="M1748.32 196.507C1723.64 200.782 1654.78 529.999 1294.97 358.152C935.159 186.276 832.522 351.256 747.583 651.013C661.821 953.674 366.877 710.92 -31.3668 976.566C-303.642 1158.69 -405.222 1663.52 -884.44 1633.68" stroke="#F7B70B" stroke-opacity="0.1" stroke-width="0.6905" stroke-miterlimit="10"/>
<path d="M1742.8 188.367C1714 193.36 1643 532.163 1287.38 367.685C931.756 203.206 823.896 347.751 735.917 643.99C646.932 943.644 366.94 726.186 -34.6552 992.477C-308.567 1174.71 -421.685 1649.81 -892.498 1618.46" stroke="#F7B70B" stroke-opacity="0.1" stroke-width="0.6976" stroke-miterlimit="10"/>
<path d="M1737.29 180.227C1704.37 185.939 1631.18 534.335 1279.78 377.247C928.396 220.188 815.238 344.254 724.256 636.997C632.048 933.644 367.002 741.452 -37.9377 1008.42C-313.529 1190.71 -438.172 1636.14 -900.588 1603.25" stroke="#F7B70B" stroke-opacity="0.1" stroke-width="0.7046" stroke-miterlimit="10"/>
<path d="M1731.81 172.108C1694.77 178.539 1619.43 536.521 1272.23 386.83C925.03 237.14 806.62 340.779 712.59 629.974C617.159 923.614 367.057 756.688 -41.2258 1024.33C-318.453 1206.73 -454.635 1622.43 -908.654 1588" stroke="#F7B70B" stroke-opacity="0.1" stroke-width="0.7117" stroke-miterlimit="10"/>
<path d="M1726.29 163.968C1685.14 171.117 1607.62 538.693 1264.64 396.392C921.662 254.091 797.963 337.282 700.922 622.952C602.239 913.592 367.119 771.954 -44.4785 1040.26C-323.357 1222.72 -471.092 1608.75 -916.714 1572.78" stroke="#F7B70B" stroke-opacity="0.1" stroke-width="0.7187" stroke-miterlimit="10"/>
<path d="M1720.77 155.827C1675.53 163.687 1595.83 540.857 1257.05 405.954C918.295 271.043 789.306 333.784 689.263 615.958C587.32 903.569 367.211 787.212 -47.7674 1056.17C-328.311 1238.75 -487.578 1595.08 -924.802 1557.57" stroke="#F7B70B" stroke-opacity="0.1" stroke-width="0.7257" stroke-miterlimit="10"/>
<path d="M1715.29 147.68C1665.93 156.258 1584.05 543.022 1249.49 415.508C914.929 287.995 780.621 330.295 677.596 608.935C572.371 893.554 367.245 802.485 -51.0851 1072.09C-333.243 1254.74 -504.041 1581.37 -932.868 1542.32" stroke="#F7B70B" stroke-opacity="0.1" stroke-width="0.7328" stroke-miterlimit="10"/>
<path d="M1709.78 139.568C1656.29 148.836 1572.27 545.215 1241.9 425.099C911.541 304.983 771.935 326.806 665.936 601.941C557.459 883.561 367.307 817.751 -54.3667 1088.03C-338.167 1270.76 -520.527 1567.7 -940.957 1527.1" stroke="#F7B70B" stroke-opacity="0.1" stroke-width="0.7398" stroke-miterlimit="10"/>
<path d="M1704.29 131.42C1646.69 141.407 1560.48 547.379 1234.34 434.653C908.167 321.905 763.25 323.316 654.299 594.911C542.533 873.509 367.429 833.001 -57.6258 1103.93C-343.099 1286.76 -536.991 1553.99 -949.016 1511.88" stroke="#F7B70B" stroke-opacity="0.1" stroke-width="0.7469" stroke-miterlimit="10"/>
<path d="M1698.78 123.28C1637.05 133.985 1548.71 549.573 1226.75 444.215C904.8 338.857 754.557 319.797 642.633 587.888C527.555 863.502 367.463 848.274 -60.9069 1119.87C-348.024 1302.78 -553.476 1540.32 -957.082 1496.64" stroke="#F7B70B" stroke-opacity="0.1" stroke-width="0.7539" stroke-miterlimit="10"/>
<path d="M1693.27 115.168C1627.43 126.592 1536.9 551.773 1219.16 453.776C901.427 355.779 745.843 316.315 630.974 580.894C512.607 853.487 367.555 863.532 -64.1657 1135.78C-352.955 1318.77 -569.91 1526.6 -965.141 1481.41" stroke="#F7B70B" stroke-opacity="0.1" stroke-width="0.761" stroke-miterlimit="10"/>
<path d="M1687.78 107.021C1617.82 119.163 1525.11 553.938 1211.6 463.331C898.067 372.761 737.149 312.797 619.306 573.871C497.628 843.48 367.609 878.769 -67.4556 1151.69C-357.91 1334.8 -586.426 1512.94 -973.23 1466.2" stroke="#F7B70B" stroke-opacity="0.1" stroke-width="0.768" stroke-miterlimit="10"/>
<path d="M1682.26 98.8803C1608.19 111.741 1513.33 556.102 1204.01 472.893C894.7 389.712 728.404 309.323 607.639 566.849C482.642 833.444 367.672 894.034 -70.7439 1167.6C-362.813 1350.79 -602.89 1499.23 -981.297 1450.95" stroke="#F7B70B" stroke-opacity="0.1" stroke-width="0.7751" stroke-miterlimit="10"/>
<path d="M1676.75 90.7404C1598.58 104.312 1501.51 558.275 1196.42 482.455C891.296 406.643 719.651 305.82 595.971 559.826C467.627 823.415 367.727 909.271 -74.0338 1183.51C-367.775 1366.79 -619.355 1485.52 -989.394 1435.71" stroke="#F7B70B" stroke-opacity="0.1" stroke-width="0.7821" stroke-miterlimit="10"/>
<path d="M1671.27 82.621C1588.99 96.9112 1489.76 560.46 1188.86 492.038C887.937 423.623 710.9 302.316 584.312 552.832C452.619 813.415 367.797 924.566 -77.3071 1199.48C-372.692 1382.84 -635.833 1471.88 -997.445 1420.52" stroke="#F7B70B" stroke-opacity="0.1" stroke-width="0.7892" stroke-miterlimit="10"/>
<path d="M1665.75 74.4805C1579.35 89.4601 1477.95 562.632 1181.27 501.6C884.572 440.575 702.149 298.812 572.654 545.838C437.605 803.386 367.861 939.831 -80.595 1215.39C-377.623 1398.83 -652.325 1458.18 -1005.53 1405.31" stroke="#F7B70B" stroke-opacity="0.1" stroke-width="0.7962" stroke-miterlimit="10"/>
<path d="M1660.23 66.3405C1569.75 82.0601 1466.16 564.797 1173.68 511.162C881.203 457.527 693.395 295.309 560.985 538.816C422.588 793.358 367.914 955.068 -83.8855 1231.3C-382.557 1414.82 -668.783 1444.5 -1013.6 1390.06" stroke="#F7B70B" stroke-opacity="0.1" stroke-width="0.8033" stroke-miterlimit="10"/>
<path d="M1654.76 58.2214C1560.12 74.6381 1454.38 566.99 1166.1 520.752C877.808 474.486 684.607 291.784 549.32 531.793C407.538 783.308 367.978 970.333 -87.173 1247.21C-387.517 1430.82 -685.275 1430.8 -1021.7 1374.82" stroke="#F7B70B" stroke-opacity="0.1" stroke-width="0.8103" stroke-miterlimit="10"/>
<path d="M1649.24 50.0808C1550.48 67.2161 1442.6 569.154 1158.51 530.314C874.442 491.437 675.826 288.288 537.66 524.799C392.494 773.286 368.07 985.591 -90.4541 1263.15C-392.434 1446.88 -701.731 1417.12 -1029.75 1359.6" stroke="#F7B70B" stroke-opacity="0.1" stroke-width="0.8173" stroke-miterlimit="10"/>
<path d="M1643.75 41.9337C1540.88 59.7875 1430.81 571.319 1150.94 539.84C871.074 508.39 667.035 284.764 525.992 517.777C377.44 763.237 368.131 1000.86 -93.7446 1279.06C-397.368 1462.87 -718.189 1403.44 -1037.81 1344.38" stroke="#F7B70B" stroke-opacity="0.1" stroke-width="0.8244" stroke-miterlimit="10"/>
<path d="M1638.24 33.7931C1531.24 52.3654 1419.03 573.483 1143.36 549.43C867.708 525.341 658.21 281.218 514.333 510.782C362.396 753.216 368.195 1016.12 -97.025 1295C-402.292 1478.89 -734.674 1389.76 -1045.9 1329.16" stroke="#F7B70B" stroke-opacity="0.1" stroke-width="0.8314" stroke-miterlimit="10"/>
<path d="M1632.73 25.6817C1521.65 44.965 1407.22 575.684 1135.77 558.992C864.341 542.293 649.392 277.701 502.666 503.76C347.307 743.144 368.257 1031.39 -100.314 1310.91C-407.254 1494.89 -751.168 1376.06 -1054 1313.92" stroke="#F7B70B" stroke-opacity="0.1" stroke-width="0.8385" stroke-miterlimit="10"/>
<path d="M1627.24 17.534C1512.03 37.5068 1395.43 577.849 1128.2 568.547C860.974 559.245 640.565 274.155 491.028 496.729C332.247 733.065 368.341 1046.62 -103.574 1326.81C-412.149 1510.91 -767.625 1362.38 -1062.03 1298.7" stroke="#F7B70B" stroke-opacity="0.1" stroke-width="0.8455" stroke-miterlimit="10"/>
<path d="M1621.73 9.39319C1502.41 30.1136 1383.65 580.013 1120.61 578.108C857.579 576.204 631.74 270.608 479.369 489.735C317.159 722.993 368.412 1061.91 -106.855 1342.75C-417.081 1526.9 -784.087 1348.67 -1070.12 1283.48" stroke="#F7B70B" stroke-opacity="0.1" stroke-width="0.8526" stroke-miterlimit="10"/>
<path d="M1616.21 1.25299C1492.77 22.6629 1371.86 582.177 1113.02 587.67C854.212 593.155 622.878 267.04 467.673 482.72C302.011 712.937 368.438 1077.16 -110.173 1358.67C-422.005 1542.92 -800.573 1335 -1078.18 1268.26" stroke="#F7B70B" stroke-opacity="0.1" stroke-width="0.8596" stroke-miterlimit="10"/>
<path d="M1610.73 -6.86611C1483.17 15.2624 1360.08 584.37 1105.46 597.224C850.845 610.107 614.044 263.465 456.035 475.69C286.914 702.836 368.53 1092.41 -113.425 1374.61C-426.938 1558.91 -817.038 1321.29 -1086.27 1253.02" stroke="#F7B70B" stroke-opacity="0.1" stroke-width="0.8667" stroke-miterlimit="10"/>
<path d="M1605.21 -15.0061C1473.53 7.84098 1348.27 586.543 1097.88 606.815C847.478 627.059 605.189 259.927 444.376 468.696C271.789 692.744 368.593 1107.68 -116.714 1390.52C-431.892 1574.94 -833.523 1307.62 -1094.33 1237.8" stroke="#F7B70B" stroke-opacity="0.1" stroke-width="0.8737" stroke-miterlimit="10"/>
<path d="M1599.7 -23.1465C1463.93 0.411531 1336.48 588.707 1090.29 616.377C844.112 644.011 596.319 256.33 432.709 461.673C256.663 682.65 368.655 1122.95 -119.995 1406.46C-436.816 1590.97 -849.987 1293.91 -1102.39 1222.58" stroke="#F7B70B" stroke-opacity="0.1" stroke-width="0.8808" stroke-miterlimit="10"/>
<path d="M1594.22 -31.2653C1454.33 -6.98873 1324.71 590.9 1082.73 625.931C840.715 660.97 587.447 252.733 421.049 454.68C241.529 672.528 368.717 1138.21 -123.285 1422.37C-441.749 1606.96 -866.473 1280.24 -1110.49 1207.34" stroke="#F7B70B" stroke-opacity="0.1" stroke-width="0.8878" stroke-miterlimit="10"/>
<path d="M1588.7 -39.406C1444.7 -14.4109 1312.92 593.064 1075.13 635.493C837.349 677.921 578.548 249.144 409.382 447.657C226.359 662.385 368.802 1153.44 -126.544 1438.27C-446.673 1622.98 -882.929 1266.56 -1118.55 1192.12" stroke="#F7B70B" stroke-opacity="0.1" stroke-width="0.8949" stroke-miterlimit="10"/>
<path d="M1583.18 -47.5461C1435.06 -21.8325 1301.1 595.237 1067.54 645.055C833.982 694.873 569.677 245.547 397.714 440.634C211.218 652.234 368.864 1168.71 -129.833 1454.18C-451.606 1638.97 -899.423 1252.86 -1126.64 1176.91" stroke="#F7B70B" stroke-opacity="0.1" stroke-width="0.9019" stroke-miterlimit="10"/>
<path d="M1577.7 -55.6939C1425.46 -29.2617 1289.35 597.393 1059.98 654.609C830.615 711.825 560.763 241.9 386.048 433.611C196.047 642.091 368.919 1183.94 -133.122 1470.09C-456.531 1655 -915.879 1239.18 -1134.7 1161.66" stroke="#F7B70B" stroke-opacity="0.1" stroke-width="0.9089" stroke-miterlimit="10"/>
<path d="M1572.19 -63.8052C1415.83 -36.6835 1277.54 599.594 1052.4 664.2C827.257 728.806 551.893 238.304 374.389 426.618C180.878 631.947 368.99 1199.24 -136.403 1486.03C-461.462 1670.99 -932.343 1225.47 -1142.76 1146.44" stroke="#F7B70B" stroke-opacity="0.1" stroke-width="0.916" stroke-miterlimit="10"/>
<path d="M1566.7 -71.9531C1406.22 -44.1129 1265.76 601.759 1044.81 673.762C823.86 745.765 542.977 234.657 362.728 419.624C165.706 621.804 369.052 1214.5 -139.685 1501.97C-466.388 1687.01 -948.83 1211.8 -1150.85 1131.22" stroke="#F7B70B" stroke-opacity="0.1" stroke-width="0.923" stroke-miterlimit="10"/>
<path d="M1561.18 -80.0936C1396.62 -51.5424 1253.97 603.923 1037.25 683.316C820.523 762.709 534.092 231.002 351.091 412.593C150.551 611.594 369.144 1229.76 -142.944 1517.87C-471.349 1703.01 -965.286 1198.12 -1158.92 1115.98" stroke="#F7B70B" stroke-opacity="0.1" stroke-width="0.9301" stroke-miterlimit="10"/>
<path d="M1555.67 -88.2343C1386.98 -58.9646 1242.19 606.087 1029.66 692.878C817.127 779.668 525.171 227.325 339.395 405.578C135.33 601.371 369.17 1245 -146.261 1533.79C-476.273 1719.03 -981.778 1184.42 -1167 1100.76" stroke="#F7B70B" stroke-opacity="0.1" stroke-width="0.9371" stroke-miterlimit="10"/>
<path d="M1550.19 -96.3525C1377.38 -66.3642 1230.41 608.281 1022.1 702.462C813.759 796.621 516.248 223.65 327.734 398.585C120.151 591.199 369.232 1260.27 -149.544 1549.73C-481.207 1735.03 -998.236 1170.74 -1175.06 1085.54" stroke="#F7B70B" stroke-opacity="0.1" stroke-width="0.9442" stroke-miterlimit="10"/>
<path d="M1544.67 -104.493C1367.75 -73.786 1218.62 610.445 1014.5 711.994C810.393 813.572 507.326 219.974 316.097 391.554C104.988 580.961 369.324 1275.53 -152.803 1565.64C-486.131 1751.05 -1014.73 1157.04 -1183.13 1070.29" stroke="#F7B70B" stroke-opacity="0.1" stroke-width="0.9512" stroke-miterlimit="10"/>
<path d="M1539.16 -112.634C1358.15 -81.2158 1206.84 612.609 1006.92 721.585C807.027 830.524 498.131 215.965 304.439 384.56C89.4858 570.377 369.388 1290.79 -156.084 1581.58C-491.055 1767.07 -1031.18 1143.36 -1191.22 1055.08" stroke="#F7B70B" stroke-opacity="0.1" stroke-width="0.9583" stroke-miterlimit="10"/>
<path d="M1533.68 -120.753C1348.51 -88.6378 1195.06 614.803 999.36 731.139C803.661 847.475 489.365 212.404 292.772 377.537C74.4489 560.261 369.48 1306.05 -159.372 1597.49C-495.986 1783.07 -1047.67 1129.69 -1199.28 1039.86" stroke="#F7B70B" stroke-opacity="0.1" stroke-width="0.9653" stroke-miterlimit="10"/>
<path d="M1528.16 -128.893C1338.88 -96.0592 1183.24 616.975 991.768 740.701C800.294 864.427 480.597 208.843 281.104 370.515C59.4179 550.175 369.534 1321.29 -162.662 1613.4C-500.912 1799.09 -1064.13 1115.98 -1207.37 1024.62" stroke="#F7B70B" stroke-opacity="0.1" stroke-width="0.9724" stroke-miterlimit="10"/>
</g>
</svg>
