<svg width="20" height="20" viewBox="0 0 20 20" fill="none" xmlns="http://www.w3.org/2000/svg">
<path fill-rule="evenodd" clip-rule="evenodd" d="M17.0833 2.90835C16.159 1.98416 15.0613 1.25152 13.8532 0.752444C12.6452 0.253367 11.3504 -0.00232927 10.0433 1.59878e-05C4.55333 1.59878e-05 0.0908333 4.44752 0.0858333 9.90752C0.0858333 11.6558 0.544167 13.3575 1.4125 14.8633L0 20L5.27917 18.6217C6.74027 19.4134 8.37568 19.8284 10.0375 19.8292H10.0433C15.5267 19.8292 19.995 15.3817 20 9.91668C20 7.27002 18.9642 4.78002 17.0833 2.90835ZM10.0433 18.1567C8.56072 18.1576 7.10507 17.7604 5.82833 17.0067L5.5275 16.8258L2.39583 17.6425L3.23167 14.6025L3.03583 14.2883C2.20712 12.9776 1.76838 11.4582 1.77083 9.90752C1.77083 5.36502 5.48417 1.67252 10.0475 1.67252C11.1339 1.67006 12.2101 1.88205 13.2144 2.29632C14.2186 2.71059 15.1313 3.31901 15.9 4.08668C16.669 4.84901 17.2789 5.75649 17.6943 6.75643C18.1097 7.75638 18.3224 8.82888 18.32 9.91168C18.315 14.4592 14.6017 18.1567 10.0425 18.1567H10.0433ZM14.5825 11.9842C14.3342 11.86 13.1125 11.2617 12.8825 11.1758C12.6542 11.095 12.4867 11.0525 12.3242 11.3C12.1575 11.5467 11.68 12.1075 11.5367 12.2692C11.3942 12.4358 11.2458 12.4542 10.9975 12.3308C10.7492 12.2075 9.9475 11.9458 8.9975 11.1C8.2575 10.4442 7.76167 9.63168 7.61333 9.38502C7.47 9.13752 7.59917 9.00418 7.72333 8.88085C7.83333 8.77168 7.97167 8.59085 8.09583 8.44835C8.21917 8.30668 8.2625 8.20168 8.34333 8.03502C8.425 7.86835 8.38667 7.72668 8.32417 7.60252C8.2625 7.47918 7.76583 6.25835 7.55583 5.76418C7.35583 5.27918 7.15 5.34585 6.9975 5.34085C6.85417 5.33168 6.6875 5.33168 6.52 5.33168C6.39419 5.33479 6.27037 5.36377 6.15624 5.41682C6.04212 5.46986 5.94015 5.54584 5.85667 5.64002C5.6275 5.88752 4.98833 6.48585 4.98833 7.70668C4.98833 8.92835 5.88 10.1025 6.005 10.2683C6.12917 10.435 7.75667 12.9342 10.2533 14.0083C10.845 14.265 11.3075 14.4167 11.67 14.5308C12.2675 14.7208 12.8067 14.6925 13.2367 14.6308C13.7133 14.5592 14.7067 14.0317 14.9167 13.4525C15.1217 12.8725 15.1217 12.3775 15.06 12.2733C14.9975 12.1692 14.8308 12.1067 14.5825 11.9842Z" fill="#F7B70B"/>
</svg>
