<svg width="20" height="19" viewBox="0 0 20 19" fill="none" xmlns="http://www.w3.org/2000/svg">
<path d="M19.9988 0.66686L16.8355 18.0386C16.8355 18.0386 16.3932 19.2433 15.1768 18.6645L10.6771 14.9071L7.78905 17.774C7.78905 17.774 7.56436 17.9598 7.31731 17.8445L7.87022 12.5178L7.88904 12.5331L7.9008 12.4249C7.9008 12.4249 15.9944 4.49837 16.3273 4.16075C16.659 3.82312 16.5485 3.75136 16.5485 3.75136C16.5708 3.3408 15.9509 3.75136 15.9509 3.75136L5.22334 11.172L0.755397 9.53333C0.755397 9.53333 0.0707364 9.26864 0.00368204 8.68986C-0.0621959 8.11225 0.777748 7.79815 0.777748 7.79815L18.5401 0.209244C18.5401 0.209244 19.9988 -0.489534 19.9988 0.66686Z" fill="#F7B70B"/>
</svg>
