<svg width="20" height="20" viewBox="0 0 20 20" fill="none" xmlns="http://www.w3.org/2000/svg">
<path d="M12.3268 8.31884C12.2592 8.31885 12.1939 8.29393 12.1435 8.24884C12.0943 8.20546 12.0643 8.14431 12.0601 8.07884C12.0151 7.22051 11.5893 6.79967 10.7185 6.75467C10.6499 6.75014 10.5856 6.71976 10.5385 6.66967C10.5159 6.64549 10.4985 6.61699 10.4873 6.5859C10.476 6.5548 10.4712 6.52175 10.473 6.48874C10.4749 6.45573 10.4834 6.42343 10.4981 6.3938C10.5128 6.36418 10.5333 6.33783 10.5585 6.31634C10.6109 6.2711 10.6784 6.24729 10.7476 6.24968C11.896 6.30968 12.5343 6.93217 12.5935 8.05301C12.5955 8.08664 12.5905 8.12033 12.5787 8.1519C12.5669 8.18347 12.5487 8.21223 12.5251 8.23634C12.4767 8.2871 12.4103 8.31674 12.3401 8.31884H12.3268Z" fill="#F7B70B"/>
<path d="M13.6867 8.75405H13.6934C13.7625 8.7542 13.8291 8.72832 13.88 8.68155C13.9044 8.6592 13.924 8.6322 13.9377 8.60214C13.9515 8.57209 13.959 8.53958 13.96 8.50655C13.9833 7.51822 13.6642 6.67738 13.0242 6.01238C12.3825 5.34822 11.4817 4.97072 10.3442 4.89155C10.2744 4.88664 10.2053 4.90838 10.1508 4.95238C10.1245 4.97335 10.1029 4.99952 10.0871 5.02924C10.0714 5.05896 10.0619 5.09161 10.0593 5.12515C10.0567 5.15869 10.0611 5.1924 10.0721 5.22418C10.0831 5.25596 10.1006 5.28514 10.1233 5.30988C10.1707 5.3614 10.236 5.39273 10.3058 5.39738C11.3158 5.46738 12.0742 5.77905 12.6308 6.35572C13.1867 6.93072 13.4475 7.63072 13.4267 8.49572C13.425 8.56238 13.4517 8.62738 13.5 8.67572C13.5492 8.72405 13.6167 8.75238 13.6867 8.75405Z" fill="#F7B70B"/>
<path d="M15.0965 9.27303C15.027 9.27317 14.96 9.24697 14.909 9.1997C14.8845 9.17702 14.8648 9.14959 14.8512 9.11907C14.8376 9.08856 14.8303 9.0556 14.8298 9.0222C14.8173 7.47553 14.3482 6.29387 13.394 5.41137C12.4523 4.54053 11.2607 4.0947 9.85568 4.0847C9.78574 4.0841 9.71855 4.05734 9.66734 4.0097C9.64292 3.98668 9.62344 3.95892 9.61012 3.92811C9.59679 3.8973 9.58989 3.8641 9.58984 3.83053C9.58984 3.76387 9.61818 3.6997 9.66818 3.6522C9.71958 3.60454 9.78725 3.57831 9.85734 3.57887H9.85901C11.4073 3.5897 12.7223 4.08387 13.7673 5.0497C14.8115 6.0147 15.3507 7.3522 15.364 9.01887C15.364 9.08553 15.3373 9.15053 15.2873 9.19803C15.2364 9.2461 15.169 9.27293 15.099 9.27303H15.0965Z" fill="#F7B70B"/>
<path d="M11.3612 11.2484C11.1596 11.4842 10.7846 11.4542 10.7846 11.4542C8.04206 10.7917 7.30873 8.15839 7.30873 8.15839C7.30873 8.15839 7.27539 7.80255 7.52539 7.61089L8.02123 7.23755C8.26706 7.05839 8.42373 6.62255 8.17373 6.19755C7.98206 5.87839 7.77373 5.56839 7.54873 5.26922C7.31264 4.97637 7.07008 4.6888 6.82123 4.40672C6.57623 4.13255 6.21623 4.06922 5.83623 4.25672H5.83206C5.45572 4.46094 5.11401 4.72335 4.81956 5.03422C4.81873 5.03672 4.81789 5.03755 4.81623 5.03839L4.81373 5.04172C4.57956 5.31005 4.44456 5.57339 4.41123 5.83172C4.40385 5.86958 4.40105 5.90819 4.40289 5.94672C4.40191 6.06099 4.42051 6.17457 4.45789 6.28255L4.47039 6.29089C4.58873 6.68922 4.88539 7.35339 5.52873 8.46005C5.89706 9.10005 6.32206 9.71005 6.79789 10.2817C7.03706 10.5684 7.29289 10.8426 7.56456 11.1017L7.57456 11.1101L7.59373 11.1292L7.68123 11.2126C7.95456 11.4692 8.24289 11.7126 8.54539 11.9384C9.1516 12.3921 9.79436 12.7949 10.4671 13.1426C11.6337 13.7526 12.3337 14.0342 12.7537 14.1459L12.7629 14.1584C12.9165 14.2057 13.0782 14.2208 13.2379 14.2026C13.5104 14.1717 13.7879 14.0442 14.0704 13.8209L14.0737 13.8184C14.398 13.5447 14.676 13.2206 14.8971 12.8584L14.8987 12.8517C15.0962 12.4917 15.0287 12.1501 14.7387 11.9176L14.6746 11.8676C14.5096 11.7384 14.0687 11.3942 13.8287 11.2267C13.5127 11.0137 13.1865 10.8162 12.8512 10.6351C12.4021 10.3976 11.9437 10.5459 11.7537 10.7792L11.3604 11.2484H11.3612Z" fill="#F7B70B"/>
<path fill-rule="evenodd" clip-rule="evenodd" d="M17.7407 1.9502C17.2173 1.49187 15.099 0.0343691 10.3823 0.0143691C10.3823 0.0143691 4.81983 -0.303964 2.10733 2.05604C0.598996 3.48604 0.0681624 5.58104 0.0123291 8.17854C-0.0435042 10.776 -0.116004 15.6435 4.8315 16.9635H4.8365L4.83233 18.9785C4.83233 18.9785 4.80066 19.7944 5.3665 19.9602C5.93816 20.1285 6.31316 19.7244 6.8015 19.1985C6.89816 19.0935 6.999 18.9844 7.10733 18.8735C7.46566 18.5069 7.96149 17.9685 8.33566 17.5569C11.719 17.8269 14.3215 17.2094 14.6173 17.1185C14.6782 17.0994 14.7648 17.0785 14.8715 17.0527C15.9648 16.7894 19.2232 16.0035 19.7957 11.571C20.4448 6.55437 19.4815 3.38104 17.7415 1.95104L17.7407 1.9502ZM18.3148 11.2119C17.8373 14.8702 15.2473 15.4419 14.314 15.6485C14.2107 15.671 14.1273 15.6894 14.0698 15.7069C13.824 15.7819 11.5382 16.321 8.66399 16.1435C8.66399 16.1435 6.52233 18.5935 5.85316 19.231C5.749 19.331 5.62566 19.3702 5.54483 19.351C5.42816 19.3244 5.39733 19.1944 5.39816 19.0052C5.40066 18.7352 5.4165 15.6585 5.4165 15.6585C1.36983 14.5935 1.464 10.6844 1.51733 8.46604L1.52316 8.24437C1.57066 6.0752 1.99983 4.2977 3.2765 3.1027C5.57066 1.13187 10.2957 1.42687 10.2957 1.42687C14.2857 1.44354 16.1982 2.5827 16.6415 2.96437C18.1132 4.15937 18.8632 7.0202 18.3148 11.2102V11.2119Z" fill="#F7B70B"/>
</svg>
