<svg width="15" height="26" viewBox="0 0 15 26" fill="none" xmlns="http://www.w3.org/2000/svg">
<path d="M0.668995 19.2511C0.455454 13.1076 2.4475 7.20313 6.26751 2.70931L6.87154 1.97133C8.25345 0.282927 10.652 -0.0614675 12.5549 1.15528L14.3369 2.29474C14.9163 2.6652 15.1502 3.422 14.8758 4.03829L12.827 8.64004C12.526 9.31595 11.7325 9.56601 11.081 9.19024L9.28737 8.15569C7.22831 10.8916 6.12447 14.3163 6.15323 17.8794L8.13202 18.3396C8.85076 18.5067 9.3216 19.2578 9.168 19.992L8.12223 24.9914C7.98221 25.6608 7.36887 26.0818 6.70905 25.9614L4.66559 25.5886C2.4849 25.1908 0.82112 23.2189 0.733291 20.9282L0.669082 19.2536L0.668995 19.2511Z" fill="#F7B70B"/>
</svg>
