<svg width="27" height="26" viewBox="0 0 27 26" fill="none" xmlns="http://www.w3.org/2000/svg">
<path d="M26.9984 0.900261L22.7279 24.3522C22.7279 24.3522 22.1308 25.9784 20.4887 25.1971L14.4141 20.1246L10.5152 23.9948C10.5152 23.9948 10.2119 24.2458 9.87837 24.0901L10.6248 16.8991L10.6502 16.9197L10.6661 16.7736C10.6661 16.7736 21.5924 6.0728 22.0419 5.61701C22.4897 5.16121 22.3404 5.06434 22.3404 5.06434C22.3706 4.51008 21.5337 5.06434 21.5337 5.06434L7.0515 15.0823L1.01979 12.87C1.01979 12.87 0.0954941 12.5127 0.00497075 11.7313C-0.0839645 10.9515 1.04996 10.5275 1.04996 10.5275L25.0291 0.282479C25.0291 0.282479 26.9984 -0.66087 26.9984 0.900261Z" fill="#27262F"/>
</svg>
