<svg width="29" height="28" viewBox="0 0 29 28" fill="none" xmlns="http://www.w3.org/2000/svg">
<path d="M17.2092 11.4822C17.1158 11.4822 17.0257 11.4478 16.9561 11.3856C16.8882 11.3257 16.8468 11.2413 16.8411 11.151C16.779 9.96623 16.1912 9.38536 14.9892 9.32324C14.8945 9.31698 14.8058 9.27505 14.7408 9.20592C14.7096 9.17254 14.6856 9.13321 14.6701 9.09029C14.6545 9.04736 14.6479 9.00175 14.6505 8.95618C14.653 8.91061 14.6648 8.86604 14.6851 8.82514C14.7053 8.78424 14.7337 8.74787 14.7684 8.71822C14.8407 8.65577 14.934 8.62291 15.0295 8.6262C16.6145 8.70902 17.4956 9.56824 17.5772 11.1153C17.58 11.1617 17.5731 11.2082 17.5568 11.2518C17.5406 11.2954 17.5154 11.3351 17.4829 11.3684C17.4161 11.4384 17.3244 11.4793 17.2276 11.4822H17.2092Z" fill="#27262F"/>
<path d="M19.0899 12.0833H19.0991C19.1945 12.0835 19.2865 12.0477 19.3567 11.9832C19.3903 11.9523 19.4174 11.9151 19.4364 11.8736C19.4553 11.8321 19.4658 11.7872 19.4671 11.7416C19.4993 10.3775 19.0588 9.21687 18.1754 8.29898C17.2897 7.38225 16.0463 6.86119 14.4763 6.75192C14.3799 6.74514 14.2845 6.77515 14.2094 6.83588C14.1731 6.86483 14.1432 6.90094 14.1214 6.94197C14.0997 6.983 14.0866 7.02806 14.0831 7.07435C14.0795 7.12064 14.0855 7.16717 14.1007 7.21104C14.1159 7.25491 14.14 7.29518 14.1715 7.32934C14.2368 7.40044 14.327 7.44368 14.4234 7.45011C15.8174 7.54673 16.8642 7.97692 17.6325 8.77288C18.3997 9.56654 18.7597 10.5327 18.731 11.7267C18.7287 11.8187 18.7655 11.9084 18.8322 11.9751C18.9001 12.0418 18.9932 12.081 19.0899 12.0833Z" fill="#27262F"/>
<path d="M21.0326 12.799C20.9366 12.7992 20.8442 12.763 20.7738 12.6978C20.7399 12.6665 20.7128 12.6286 20.694 12.5865C20.6752 12.5444 20.6652 12.4989 20.6645 12.4528C20.6473 10.318 19.9997 8.68693 18.6827 7.46883C17.3829 6.26684 15.7381 5.65146 13.7988 5.63766C13.7022 5.63683 13.6095 5.5999 13.5388 5.53414C13.5051 5.50236 13.4782 5.46404 13.4598 5.42152C13.4414 5.379 13.4319 5.33317 13.4318 5.28684C13.4318 5.19482 13.4709 5.10625 13.54 5.04069C13.6109 4.9749 13.7043 4.93869 13.8011 4.93947H13.8034C15.9405 4.95442 17.7556 5.63651 19.198 6.96963C20.6392 8.3016 21.3834 10.1477 21.4018 12.4482C21.4018 12.5402 21.365 12.6299 21.296 12.6955C21.2257 12.7618 21.1327 12.7989 21.036 12.799H21.0326Z" fill="#27262F"/>
<path d="M15.8784 15.5261C15.6 15.8516 15.0824 15.8102 15.0824 15.8102C11.297 14.8958 10.2848 11.2611 10.2848 11.2611C10.2848 11.2611 10.2388 10.7699 10.5838 10.5053L11.2682 9.99004C11.6075 9.74274 11.8238 9.14117 11.4787 8.55455C11.2141 8.11401 10.9266 7.68612 10.616 7.27319C10.2902 6.86897 9.95536 6.47205 9.61187 6.08269C9.2737 5.70427 8.7768 5.61685 8.2523 5.87565H8.24654C7.72709 6.15754 7.25543 6.51973 6.84901 6.94882C6.84786 6.95227 6.84671 6.95342 6.84441 6.95457L6.84096 6.95917C6.51774 7.32955 6.3314 7.69302 6.28539 8.0496C6.27521 8.10185 6.27135 8.15515 6.27389 8.20833C6.27253 8.36605 6.2982 8.52283 6.34981 8.67187L6.36706 8.68337C6.53039 9.23319 6.93988 10.1499 7.82786 11.6774C8.33626 12.5608 8.92288 13.4028 9.57967 14.1918C9.90978 14.5875 10.2629 14.966 10.6379 15.3237L10.6517 15.3352L10.6781 15.3616L10.7989 15.4767C11.1762 15.8309 11.5742 16.1668 11.9917 16.4785C12.8284 17.1048 13.7156 17.6608 14.6442 18.1406C16.2545 18.9826 17.2207 19.3714 17.8004 19.5255L17.813 19.5427C18.025 19.6081 18.2483 19.6289 18.4687 19.6037C18.8448 19.5611 19.2278 19.3852 19.6178 19.0769L19.6224 19.0734C20.07 18.6957 20.4537 18.2483 20.7588 17.7484L20.7611 17.7392C21.0337 17.2423 20.9405 16.7707 20.5403 16.4498L20.4517 16.3807C20.2239 16.2025 19.6155 15.7274 19.2842 15.4962C18.848 15.2022 18.3977 14.9296 17.935 14.6795C17.315 14.3517 16.6824 14.5565 16.4201 14.8785L15.8772 15.5261H15.8784Z" fill="#27262F"/>
<path fill-rule="evenodd" clip-rule="evenodd" d="M25.0367 2.73041C24.304 2.08871 21.3382 0.0481189 14.7345 0.0201177C14.7345 0.0201177 6.94668 -0.425569 3.149 2.87858C1.03724 4.88067 0.29404 7.81381 0.21587 11.4505C0.1377 15.0871 0.0361952 21.902 6.96301 23.75H6.97001L6.96418 26.5712C6.96418 26.5712 6.91984 27.7134 7.71205 27.9456C8.51242 28.1812 9.03744 27.6154 9.72114 26.8792C9.85648 26.7322 9.99765 26.5793 10.1493 26.4242C10.651 25.9108 11.3452 25.1571 11.8691 24.5807C16.606 24.9588 20.2496 24.0942 20.6638 23.967C20.749 23.9402 20.8703 23.911 21.0197 23.8749C22.5504 23.5062 27.1123 22.406 27.9138 16.2002C28.8227 9.17654 27.474 4.73367 25.0378 2.73158L25.0367 2.73041ZM25.8405 15.6973C25.172 20.8192 21.5458 21.6196 20.2391 21.909C20.0944 21.9405 19.9778 21.9661 19.8973 21.9906C19.5531 22.0956 16.3528 22.8505 12.3288 22.602C12.3288 22.602 9.33029 26.0321 8.39341 26.9247C8.24757 27.0647 8.0749 27.1195 7.96172 27.0927C7.79838 27.0554 7.75522 26.8733 7.75638 26.6085C7.75988 26.2305 7.78205 21.923 7.78205 21.923C2.11646 20.4319 2.2483 14.9588 2.32297 11.853L2.33113 11.5426C2.39764 8.50567 2.9985 6.01706 4.78591 4.34398C7.99789 1.58469 14.6132 1.99771 14.6132 1.99771C20.1995 2.02104 22.8771 3.61595 23.4978 4.15031C25.5582 5.82338 26.6082 9.82873 25.8405 15.695V15.6973Z" fill="#27262F"/>
</svg>
