<svg width="27" height="27" viewBox="0 0 27 27" fill="none" xmlns="http://www.w3.org/2000/svg">
<path fill-rule="evenodd" clip-rule="evenodd" d="M23.0625 3.92627C21.8146 2.67861 20.3328 1.68955 18.7019 1.0158C17.071 0.342046 15.3231 -0.00314451 13.5585 2.15835e-05C6.147 2.15835e-05 0.122625 6.00415 0.115875 13.3751C0.115875 15.7354 0.734625 18.0326 1.90688 20.0655L0 27L7.12688 25.1393C9.09936 26.2081 11.3072 26.7684 13.5506 26.7694H13.5585C20.961 26.7694 26.9932 20.7653 27 13.3875C27 9.81452 25.6016 6.45302 23.0625 3.92627ZM13.5585 24.5115C11.557 24.5127 9.59184 23.9765 7.86825 22.959L7.46212 22.7149L3.23438 23.8174L4.36275 19.7134L4.09837 19.2893C2.97961 17.5198 2.38731 15.4686 2.39062 13.3751C2.39062 7.24277 7.40363 2.2579 13.5641 2.2579C15.0307 2.25459 16.4836 2.54077 17.8394 3.10003C19.1952 3.6593 20.4273 4.48066 21.465 5.51702C22.5031 6.54617 23.3265 7.77126 23.8873 9.12119C24.4481 10.4711 24.7353 11.919 24.732 13.3808C24.7252 19.5199 19.7122 24.5115 13.5574 24.5115H13.5585ZM19.6864 16.1786C19.3511 16.011 17.7019 15.2033 17.3914 15.0874C17.0831 14.9783 16.857 14.9209 16.6376 15.255C16.4126 15.588 15.768 16.3451 15.5745 16.5634C15.3821 16.7884 15.1819 16.8131 14.8466 16.6466C14.5114 16.4801 13.4291 16.1269 12.1466 14.985C11.1476 14.0996 10.4782 13.0028 10.278 12.6698C10.0845 12.3356 10.2589 12.1556 10.4265 11.9891C10.575 11.8418 10.7618 11.5976 10.9294 11.4053C11.0959 11.214 11.1544 11.0723 11.2635 10.8473C11.3738 10.6223 11.322 10.431 11.2376 10.2634C11.1544 10.0969 10.4839 8.44877 10.2004 7.78165C9.93038 7.1269 9.6525 7.2169 9.44663 7.21015C9.25313 7.19777 9.02812 7.19777 8.802 7.19777C8.63216 7.20197 8.465 7.24109 8.31093 7.3127C8.15687 7.38431 8.0192 7.48688 7.9065 7.61402C7.59712 7.94815 6.73425 8.7559 6.73425 10.404C6.73425 12.0533 7.938 13.6384 8.10675 13.8623C8.27437 14.0873 10.4715 17.4611 13.842 18.9113C14.6407 19.2578 15.2651 19.4625 15.7545 19.6166C16.5611 19.8731 17.289 19.8349 17.8695 19.7516C18.513 19.6549 19.854 18.9428 20.1375 18.1609C20.4142 17.3779 20.4143 16.7096 20.331 16.569C20.2466 16.4284 20.0216 16.344 19.6864 16.1786Z" fill="#27262F"/>
</svg>
