<svg width="20" height="18" viewBox="0 0 20 18" fill="none" xmlns="http://www.w3.org/2000/svg">
<path d="M7.11502 2.18383H12.885V0.500024C12.885 0.223816 13.109 0 13.385 0H15.6236C15.8996 0 16.1234 0.223816 16.1234 0.500024V2.18383H17.3707C18.8179 2.18383 20 3.36593 20 4.81313V14.4222C20 15.8694 18.8179 17.0515 17.3707 17.0515H2.62929C1.18209 17.0515 0 15.8694 0 14.4222V4.81313C0 3.36593 1.18209 2.18383 2.62929 2.18383H3.87658V0.500024C3.87658 0.223816 4.10039 0 4.3766 0H6.615C6.89121 0 7.11502 0.223816 7.11502 0.500024V2.18383ZM2.76546 7.73359H4.15785V9.12598H2.76546V7.73359ZM2.76546 12.2514H4.15785V13.6436H2.76546V12.2514ZM13.2071 12.2514H14.5995V13.6436H13.2071V12.2514ZM9.72645 12.2514H11.1188V13.6436H9.72645V12.2514ZM6.24608 12.2514H7.63823V13.6436H6.24608V12.2514ZM2.76546 9.99252H4.15785V11.3849H2.76546V9.99252ZM13.2071 9.99252H14.5995V11.3849H13.2071V9.99252ZM9.72645 9.99252H11.1188V11.3849H9.72645V9.99252ZM6.24608 9.99252H7.63823V11.3849H6.24608V9.99252ZM13.2071 7.73359H14.5995V9.12598H13.2071V7.73359ZM9.72645 7.73359H11.1188V9.12598H9.72645V7.73359ZM6.24608 7.73359H7.63823V9.12598H6.24608V7.73359ZM1.00005 5.59588H15.7871C16.4448 5.59588 16.4448 6.59592 15.7871 6.59592H1.00005V14.4222C1.00005 15.3173 1.73427 16.0515 2.62929 16.0515H17.3707C18.2657 16.0515 19 15.3173 19 14.4222V4.81313C19 3.9181 18.2657 3.18388 17.3707 3.18388H16.1234V3.99416C16.1234 4.27012 15.8996 4.49418 15.6236 4.49418H13.385C13.109 4.49418 12.885 4.27012 12.885 3.99416V3.18388H7.11502V3.99416C7.11502 4.27012 6.89121 4.49418 6.615 4.49418H4.3766C4.10039 4.49418 3.87658 4.27012 3.87658 3.99416V3.18388H2.62929C1.73427 3.18388 1.00005 3.9181 1.00005 4.81313V5.59588ZM6.11497 1.00005H4.87662V3.49413H6.11497V1.00005ZM15.1236 1.00005H13.885V3.49413H15.1236V1.00005Z" fill="#F7B70B"/>
</svg>
